NotoSansDevanagariUI.glyphspackage
{
category = Letter;
glyphname = quotedbl.deva;
layers = (
{
layerId = "B871EA9A-50AC-43A6-961C-B7EB8764AD7C";
shapes = (
{
closed = 1;
nodes = (
(147,471,l),
(150,729,l),
(121,729,l),
(124,471,l)
);
},
{
closed = 1;
nodes = (
(293,471,l),
(296,729,l),
(267,729,l),
(270,471,l)
);
}
);
width = 400;
},
{
layerId = "6C7CC43D-04A1-4971-B3B5-A41D54964AD2";
shapes = (
{
closed = 1;
nodes = (
(201,471,l),
(226,729,l),
(115,729,l),
(140,471,l)
);
},
{
closed = 1;
nodes = (
(376,471,l),
(401,729,l),
(291,729,l),
(316,471,l)
);
}
);
width = 502;
},
{
layerId = UUID0;
shapes = (
{
closed = 1;
nodes = (
(225,472,l),
(245,729,l),
(109,729,l),
(129,472,l)
);
},
{
closed = 1;
nodes = (
(431,472,l),
(451,729,l),
(315,729,l),
(335,472,l)
);
}
);
width = 546;
},
{
layerId = "C05809E0-FD9D-43C4-90EB-E9E886B1ADAB";
shapes = (
{
closed = 1;
nodes = (
(250,471,l),
(270,729,l),
(96,729,l),
(116,471,l)
);
},
{
closed = 1;
nodes = (
(482,471,l),
(502,729,l),
(328,729,l),
(348,471,l)
);
}
);
width = 582;
},
{
layerId = "5CC745D4-D12D-435B-A472-7D28876E43BC";
shapes = (
{
closed = 1;
nodes = (
(132,471,l),
(135,729,l),
(106,729,l),
(109,471,l)
);
},
{
closed = 1;
nodes = (
(258,471,l),
(261,729,l),
(232,729,l),
(235,471,l)
);
}
);
width = 350;
},
{
layerId = "AA2163BC-B14D-4D16-A884-99BB623F1DBF";
shapes = (
{
closed = 1;
nodes = (
(177,471,l),
(194,729,l),
(100,729,l),
(117,471,l)
);
},
{
closed = 1;
nodes = (
(341,471,l),
(358,729,l),
(264,729,l),
(281,471,l)
);
}
);
width = 444;
},
{
layerId = "9A082071-1CDF-4F9E-B116-82A287035C9D";
shapes = (
{
closed = 1;
nodes = (
(215,471,l),
(234,729,l),
(93,729,l),
(112,471,l)
);
},
{
closed = 1;
nodes = (
(409,471,l),
(428,729,l),
(287,729,l),
(306,471,l)
);
}
);
width = 506;
},
{
layerId = "6EDA54BC-5413-4E6E-9D6B-A24A39A704A7";
shapes = (
{
closed = 1;
nodes = (
(239,471,l),
(259,729,l),
(89,729,l),
(109,471,l)
);
},
{
closed = 1;
nodes = (
(452,471,l),
(472,729,l),
(302,729,l),
(322,471,l)
);
}
);
width = 545;
}
);
subCategory = Other;
unicode = 34;
}
{
category = Mark;
glyphname = binducandradeva;
layers = (
{
anchors = (
{
name = _Anchor2;
pos = (-130,622);
}
);
layerId = "B871EA9A-50AC-43A6-961C-B7EB8764AD7C";
shapes = (
{
closed = 1;
nodes = (
(-274,724,l),
(-248,824,o),
(-206,870,o),
(-127,870,cs),
(-45,870,o),
(2,816,o),
(32,724,c),
(57,733,l),
(20,834,o),
(-35,896,o),
(-126,896,cs),
(-219,896,o),
(-273,839,o),
(-299,732,c)
);
},
{
closed = 1;
nodes = (
(-97,770,o),
(-111,782,o),
(-125,782,cs),
(-140,782,o),
(-154,771,o),
(-154,744,cs),
(-154,720,o),
(-142,706,o),
(-125,706,cs),
(-109,706,o),
(-97,719,o),
(-97,744,cs)
);
}
);
width = 0;
},
{
anchors = (
{
name = _Anchor2;
pos = (-180,622);
}
);
layerId = "6C7CC43D-04A1-4971-B3B5-A41D54964AD2";
shapes = (
{
closed = 1;
nodes = (
(-278,688,l),
(-256,777,o),
(-225,830,o),
(-147,830,cs),
(-76,830,o),
(-35,784,o),
(0,689,c),
(69,713,l),
(24,840,o),
(-49,896,o),
(-145,896,cs),
(-247,896,o),
(-320,848,o),
(-352,713,c)
);
},
{
closed = 1;
nodes = (
(-94,758,o),
(-117,780,o),
(-144,780,cs),
(-171,780,o),
(-194,758,o),
(-194,730,cs),
(-194,702,o),
(-171,680,o),
(-144,680,cs),
(-117,680,o),
(-94,702,o),
(-94,730,cs)
);
}
);
width = 0;
},
{
anchors = (
{
name = _Anchor2;
pos = (-239,622);
}
);
layerId = UUID0;
shapes = (
{
closed = 1;
nodes = (
(-308,656,l),
(-289,752,o),
(-255,800,o),
(-181,800,cs),
(-112,800,o),
(-66,757,o),
(-35,656,c),
(68,694,l),
(16,836,o),
(-71,896,o),
(-178,896,cs),
(-296,896,o),
(-382,841,o),
(-418,692,c)
);
},
{
closed = 1;
nodes = (
(-119,747,o),
(-146,773,o),
(-177,773,cs),
(-209,773,o),
(-236,747,o),
(-236,714,cs),
(-236,682,o),
(-209,656,o),
(-177,656,cs),
(-146,656,o),
(-119,682,o),
(-119,714,cs)
);
}
);
width = 0;
},
{
anchors = (
{
name = _Anchor2;
pos = (-267,622);
}
);
layerId = "C05809E0-FD9D-43C4-90EB-E9E886B1ADAB";
shapes = (
{
closed = 1;
nodes = (
(-311,644,l),
(-293,746,o),
(-259,793,o),
(-186,793,cs),
(-121,793,o),
(-82,756,o),
(-42,643,c),
(70,684,l),
(15,835,o),
(-74,896,o),
(-185,896,cs),
(-309,896,o),
(-396,840,o),
(-434,682,c)
);
},
{
closed = 1;
nodes = (
(-116,745,o),
(-142,770,o),
(-185,770,cs),
(-228,770,o),
(-254,746,o),
(-254,706,cs),
(-254,669,o),
(-226,644,o),
(-185,644,cs),
(-142,644,o),
(-116,669,o),
(-116,706,cs)
);
}
);
width = 0;
},
{
anchors = (
{
name = _Anchor2;
pos = (-107,622);
}
);
layerId = "5CC745D4-D12D-435B-A472-7D28876E43BC";
shapes = (
{
closed = 1;
nodes = (
(-206,724,l),
(-190,822,o),
(-163,870,o),
(-102,870,cs),
(-42,870,o),
(-8,816,o),
(11,724,c),
(37,731,l),
(14,836,o),
(-32,896,o),
(-103,896,cs),
(-175,896,o),
(-217,836,o),
(-232,730,c)
);
},
{
closed = 1;
nodes = (
(-73,770,o),
(-86,781,o),
(-100,781,cs),
(-117,781,o),
(-128,771,o),
(-128,744,cs),
(-128,720,o),
(-118,707,o),
(-101,707,cs),
(-85,707,o),
(-73,719,o),
(-73,744,cs)
);
}
);
width = 0;
},
{
anchors = (
{
name = _Anchor2;
pos = (-151,622);
}
);
layerId = "AA2163BC-B14D-4D16-A884-99BB623F1DBF";
shapes = (
{
closed = 1;
nodes = (
(-211,689,l),
(-196,779,o),
(-178,831,o),
(-120,831,cs),
(-64,831,o),
(-38,784,o),
(-15,690,c),
(47,708,l),
(17,838,o),
(-45,895,o),
(-118,895,cs),
(-202,895,o),
(-257,842,o),
(-277,708,c)
);
},
{
closed = 1;
nodes = (
(-76,755,o),
(-94,774,o),
(-116,774,cs),
(-140,774,o),
(-157,755,o),
(-157,727,cs),
(-157,699,o),
(-140,681,o),
(-116,681,cs),
(-94,681,o),
(-76,699,o),
(-76,727,cs)
);
}
);
width = 0;
},
{
anchors = (
{
name = _Anchor2;
pos = (-191,622);
}
);
layerId = "9A082071-1CDF-4F9E-B116-82A287035C9D";
shapes = (
{
closed = 1;
nodes = (
(-228,663,l),
(-217,761,o),
(-197,808,o),
(-139,808,cs),
(-86,808,o),
(-60,764,o),
(-36,663,c),
(47,689,l),
(14,831,o),
(-47,896,o),
(-138,896,cs),
(-239,896,o),
(-299,838,o),
(-317,685,c)
);
},
{
closed = 1;
nodes = (
(-88,745,o),
(-108,768,o),
(-138,768,cs),
(-169,768,o),
(-189,746,o),
(-189,713,cs),
(-189,681,o),
(-169,659,o),
(-138,659,cs),
(-107,659,o),
(-88,681,o),
(-88,712,cs)
);
}
);
width = 0;
},
{
anchors = (
{
name = _Anchor2;
pos = (-216,622);
}
);
layerId = "6EDA54BC-5413-4E6E-9D6B-A24A39A704A7";
shapes = (
{
closed = 1;
nodes = (
(-238,646,l),
(-229,750,o),
(-209,794,o),
(-150,794,cs),
(-99,794,o),
(-74,751,o),
(-48,646,c),
(47,677,l),
(12,826,o),
(-47,896,o),
(-150,896,cs),
(-261,896,o),
(-324,836,o),
(-341,671,c)
);
},
{
closed = 1;
nodes = (
(-95,739,o),
(-117,764,o),
(-151,764,cs),
(-187,764,o),
(-208,741,o),
(-208,704,cs),
(-208,669,o),
(-187,646,o),
(-151,646,cs),
(-115,646,o),
(-95,669,o),
(-95,702,cs)
);
}
);
width = 0;
}
);
subCategory = Nonspacing;
unicode = 2304;
}
{
category = Mark;
glyphname = anusvaradeva;
layers = (
{
anchors = (
{
name = _Anchor2;
pos = (-126,622);
}
);
layerId = "B871EA9A-50AC-43A6-961C-B7EB8764AD7C";
shapes = (
{
closed = 1;
nodes = (
(-144,745,o),
(-129,732,o),
(-113,732,cs),
(-96,732,o),
(-83,744,o),
(-83,770,cs),
(-83,793,o),
(-94,808,o),
(-113,808,cs),
(-131,808,o),
(-144,794,o),
(-144,770,cs)
);
}
);
width = 0;
},
{
anchors = (
{
name = _Anchor2;
pos = (-170,622);
}
);
layerId = "6C7CC43D-04A1-4971-B3B5-A41D54964AD2";
shapes = (
{
closed = 1;
nodes = (
(-185,740,o),
(-160,714,o),
(-130,714,cs),
(-100,714,o),
(-75,740,o),
(-75,772,cs),
(-75,804,o),
(-100,830,o),
(-130,830,cs),
(-160,830,o),
(-185,804,o),
(-185,772,cs)
);
}
);
width = 0;
},
{
anchors = (
{
name = _Anchor2;
pos = (-214,622);
}
);
layerId = UUID0;
shapes = (
{
closed = 1;
nodes = (
(-221,730,o),
(-189,698,o),
(-147,698,cs),
(-105,698,o),
(-74,730,o),
(-74,773,cs),
(-74,815,o),
(-105,848,o),
(-147,848,cs),
(-189,848,o),
(-221,815,o),
(-221,773,cs)
);
}
);
width = 0;
},
{
anchors = (
{
name = _Anchor2;
pos = (-247,622);
}
);
layerId = "C05809E0-FD9D-43C4-90EB-E9E886B1ADAB";
shapes = (
{
closed = 1;
nodes = (
(-241,727,o),
(-207,693,o),
(-158,693,cs),
(-110,693,o),
(-76,727,o),
(-76,774,cs),
(-76,820,o),
(-110,855,o),
(-158,855,cs),
(-207,855,o),
(-241,820,o),
(-241,774,cs)
);
}
);
width = 0;
},
{
anchors = (
{
name = _Anchor2;
pos = (-103,622);
}
);
layerId = "5CC745D4-D12D-435B-A472-7D28876E43BC";
shapes = (
{
closed = 1;
nodes = (
(-119,744,o),
(-105,733,o),
(-91,733,cs),
(-74,733,o),
(-62,743,o),
(-62,770,cs),
(-62,794,o),
(-73,807,o),
(-90,807,cs),
(-106,807,o),
(-119,795,o),
(-119,770,cs)
);
}
);
width = 0;
},
{
anchors = (
{
name = _Anchor2;
pos = (-139,622);
}
);
layerId = "AA2163BC-B14D-4D16-A884-99BB623F1DBF";
shapes = (
{
closed = 1;
nodes = (
(-151,739,o),
(-133,717,o),
(-102,717,cs),
(-70,717,o),
(-53,739,o),
(-53,772,cs),
(-53,804,o),
(-70,827,o),
(-102,827,cs),
(-133,827,o),
(-151,804,o),
(-151,772,cs)
);
}
);
width = 0;
},
{
anchors = (
{
name = _Anchor2;
pos = (-179,622);
}
);
layerId = "9A082071-1CDF-4F9E-B116-82A287035C9D";
shapes = (
{
closed = 1;
nodes = (
(-183,732,o),
(-159,704,o),
(-119,704,cs),
(-79,704,o),
(-56,732,o),
(-56,773,cs),
(-56,813,o),
(-79,842,o),
(-119,842,cs),
(-159,842,o),
(-183,813,o),
(-183,773,cs)
);
}
);
width = 0;
},
{
anchors = (
{
name = _Anchor2;
pos = (-204,622);
}
);
layerId = "6EDA54BC-5413-4E6E-9D6B-A24A39A704A7";
shapes = (
{
closed = 1;
nodes = (
(-202,728,o),
(-175,696,o),
(-129,696,cs),
(-84,696,o),
(-57,728,o),
(-57,774,cs),
(-57,819,o),
(-84,852,o),
(-129,852,cs),
(-175,852,o),
(-202,819,o),
(-202,774,cs)
);
}
);
width = 0;
}
);
subCategory = Nonspacing;
unicode = 2306;
}
{
category = Letter;
glyphname = ashortdeva;
layers = (
{
layerId = "B871EA9A-50AC-43A6-961C-B7EB8764AD7C";
shapes = (
{
closed = 1;
nodes = (
(685,596,l),
(685,622,l),
(462,622,l),
(462,596,l),
(544,596,l),
(544,0,l),
(570,0,l),
(570,596,l)
);
},
{
closed = 1;
nodes = (
(210,632,o),
(171,618,o),
(120,594,c),
(130,568,l),
(177,593,o),
(216,606,o),
(263,606,cs),
(335,606,o),
(376,569,o),
(376,501,cs),
(376,430,o),
(328,393,o),
(221,388,c),
(223,362,l),
(342,366,o),
(403,422,o),
(403,501,cs),
(403,583,o),
(350,632,o),
(263,632,cs)
);
},
{
closed = 1;
nodes = (
(405,266,o),
(385,303,o),
(355,334,c),
(353,342,l),
(340,356,o),
(326,370,o),
(309,382,c),
(295,390,l),
(271,379,l),
(335,335,o),
(378,283,o),
(378,221,cs),
(378,148,o),
(332,121,o),
(273,121,cs),
(179,121,o),
(115,205,o),
(49,370,c),
(23,361,l),
(102,169,o),
(176,95,o),
(277,95,cs),
(342,95,o),
(405,130,o),
(405,219,cs)
);
},
{
closed = 1;
nodes = (
(404,343,o),
(359,345,o),
(314,357,c),
(315,352,l),
(340,332,l),
(364,321,o),
(404,317,o),
(443,317,cs),
(478,317,o),
(517,321,o),
(553,331,c),
(553,357,l),
(513,346,o),
(470,343,o),
(438,343,cs)
);
},
{
closed = 1;
nodes = (
(568,615,l),
(538,774,o),
(497,794,o),
(443,794,cs),
(421,794,o),
(399,790,o),
(382,790,cs),
(323,790,o),
(310,812,o),
(282,896,c),
(258,888,l),
(293,783,o),
(323,764,o),
(383,764,cs),
(404,764,o),
(422,768,o),
(444,768,cs),
(502,768,o),
(516,721,o),
(542,615,c)
);
}
);
width = 670;
},
{
layerId = "6C7CC43D-04A1-4971-B3B5-A41D54964AD2";
shapes = (
{
closed = 1;
nodes = (
(779,551,l),
(779,622,l),
(521,622,l),
(521,551,l),
(594,551,l),
(594,0,l),
(675,0,l),
(675,551,l)
);
},
{
closed = 1;
nodes = (
(232,632,o),
(181,612,o),
(146,594,c),
(171,525,l),
(216,548,o),
(252,562,o),
(302,562,cs),
(343,562,o),
(380,542,o),
(380,494,cs),
(380,444,o),
(346,414,o),
(255,411,c),
(260,341,l),
(391,344,o),
(459,408,o),
(459,495,cs),
(459,574,o),
(402,632,o),
(298,632,cs)
);
},
{
closed = 1;
nodes = (
(470,251,o),
(460,279,o),
(443,304,c),
(438,323,l),
(424,345,o),
(399,370,o),
(380,386,c),
(337,377,l),
(278,374,l),
(340,335,o),
(391,291,o),
(391,227,cs),
(391,175,o),
(355,153,o),
(305,153,cs),
(222,153,o),
(157,240,o),
(100,382,c),
(29,356,l),
(113,159,o),
(197,80,o),
(312,80,cs),
(401,80,o),
(470,125,o),
(470,218,cs)
);
},
{
closed = 1;
nodes = (
(441,350,o),
(398,356,o),
(359,365,c),
(353,350,l),
(400,294,l),
(415,288,o),
(468,279,o),
(498,279,cs),
(553,279,o),
(594,285,o),
(651,310,c),
(651,382,l),
(588,359,o),
(550,350,o),
(486,350,cs)
);
},
{
closed = 1;
nodes = (
(670,615,l),
(634,769,o),
(590,812,o),
(516,812,cs),
(492,812,o),
(470,808,o),
(452,808,cs),
(395,808,o),
(377,837,o),
(355,896,c),
(289,873,l),
(328,763,o),
(378,737,o),
(448,737,cs),
(465,737,o),
(482,739,o),
(500,739,cs),
(550,739,o),
(572,711,o),
(594,615,c)
);
}
);
width = 764;
},
{
layerId = UUID0;
shapes = (
{
closed = 1;
nodes = (
(859,512,l),
(859,622,l),
(567,622,l),
(567,512,l),
(631,512,l),
(631,0,l),
(765,0,l),
(765,512,l)
);
},
{
closed = 1;
nodes = (
(261,632,o),
(198,610,o),
(159,590,c),
(196,490,l),
(232,508,o),
(270,522,o),
(311,522,cs),
(344,522,o),
(376,512,o),
(376,474,cs),
(376,435,o),
(353,414,o),
(275,410,c),
(281,304,l),
(429,308,o),
(509,378,o),
(509,477,cs),
(509,566,o),
(447,632,o),
(333,632,cs)
);
},
{
closed = 1;
nodes = (
(521,239,o),
(514,267,o),
(502,292,c),
(491,313,l),
(477,335,o),
(458,358,o),
(438,374,c),
(376,383,l),
(297,359,l),
(359,322,o),
(388,284,o),
(388,230,cs),
(388,193,o),
(369,173,o),
(330,173,cs),
(250,173,o),
(190,249,o),
(135,392,c),
(20,348,l),
(117,120,o),
(213,60,o),
(340,60,cs),
(458,60,o),
(521,117,o),
(521,211,cs)
);
},
{
closed = 1;
nodes = (
(485,346,o),
(459,350,o),
(434,355,c),
(419,342,l),
(431,249,l),
(459,244,o),
(499,238,o),
(542,238,cs),
(587,238,o),
(629,244,o),
(669,269,c),
(669,379,l),
(624,354,o),
(581,346,o),
(525,346,cs)
);
},
{
closed = 1;
nodes = (
(757,615,l),
(710,792,o),
(666,826,o),
(591,826,cs),
(568,826,o),
(552,823,o),
(525,823,cs),
(479,823,o),
(464,846,o),
(443,896,c),
(339,858,l),
(380,748,o),
(430,717,o),
(492,717,cs),
(507,717,o),
(525,720,o),
(543,720,cs),
(584,720,o),
(614,702,o),
(638,615,c)
);
}
);
width = 845;
},
{
layerId = "C05809E0-FD9D-43C4-90EB-E9E886B1ADAB";
shapes = (
{
closed = 1;
nodes = (
(923,484,l),
(923,622,l),
(604,622,l),
(604,484,l),
(661,484,l),
(661,0,l),
(838,0,l),
(838,484,l)
);
},
{
closed = 1;
nodes = (
(283,632,o),
(222,612,o),
(170,588,c),
(215,464,l),
(254,483,o),
(292,494,o),
(328,494,cs),
(355,494,o),
(375,484,o),
(375,458,cs),
(375,432,o),
(358,418,o),
(292,414,c),
(298,282,l),
(460,287,o),
(550,356,o),
(550,468,cs),
(550,562,o),
(482,632,o),
(356,632,cs)
);
},
{
closed = 1;
nodes = (
(565,246,o),
(557,275,o),
(544,300,c),
(534,317,l),
(520,339,o),
(501,358,o),
(480,374,c),
(396,378,l),
(315,341,l),
(362,309,o),
(388,275,o),
(388,231,cs),
(388,206,o),
(371,193,o),
(343,193,cs),
(273,193,o),
(210,277,o),
(161,401,c),
(14,346,l),
(107,117,o),
(225,52,o),
(357,52,cs),
(488,52,o),
(565,111,o),
(565,212,cs)
);
},
{
closed = 1;
nodes = (
(521,349,o),
(494,353,o),
(470,358,c),
(455,345,l),
(467,231,l),
(495,226,o),
(535,220,o),
(578,220,cs),
(623,220,o),
(665,226,o),
(705,251,c),
(705,383,l),
(660,358,o),
(617,349,o),
(561,349,cs)
);
},
{
closed = 1;
nodes = (
(820,615,l),
(772,803,o),
(719,833,o),
(645,833,cs),
(616,833,o),
(595,830,o),
(569,830,cs),
(532,830,o),
(519,847,o),
(497,896,c),
(374,851,l),
(416,741,o),
(459,706,o),
(524,706,cs),
(537,706,o),
(556,709,o),
(580,709,cs),
(610,709,o),
(643,697,o),
(667,615,c)
);
}
);
width = 908;
},
{
layerId = "5CC745D4-D12D-435B-A472-7D28876E43BC";
shapes = (
{
closed = 1;
nodes = (
(521,596,l),
(521,622,l),
(348,622,l),
(348,596,l),
(406,596,l),
(406,0,l),
(432,0,l),
(432,596,l)
);
},
{
closed = 1;
nodes = (
(151,632,o),
(117,622,o),
(80,604,c),
(90,579,l),
(124,597,o),
(156,606,o),
(188,606,cs),
(250,606,o),
(279,568,o),
(279,504,cs),
(279,440,o),
(245,398,o),
(163,388,c),
(165,363,l),
(254,374,o),
(306,421,o),
(306,503,cs),
(306,584,o),
(260,632,o),
(190,632,cs)
);
},
{
closed = 1;
nodes = (
(308,250,o),
(295,296,o),
(267,334,c),
(266,342,l),
(257,356,o),
(243,372,o),
(231,384,c),
(218,390,l),
(199,380,l),
(243,338,o),
(281,279,o),
(281,205,cs),
(281,145,o),
(254,121,o),
(211,121,cs),
(137,121,o),
(93,185,o),
(47,357,c),
(21,350,l),
(74,157,o),
(125,95,o),
(214,95,cs),
(262,95,o),
(308,126,o),
(308,203,cs)
);
},
{
closed = 1;
nodes = (
(304,343,o),
(268,345,o),
(239,354,c),
(239,349,l),
(258,329,l),
(277,319,o),
(307,317,o),
(336,317,cs),
(362,317,o),
(394,319,o),
(419,328,c),
(419,355,l),
(392,345,o),
(362,343,o),
(331,343,cs)
);
},
{
closed = 1;
nodes = (
(431,614,l),
(407,769,o),
(383,793,o),
(337,793,cs),
(324,793,o),
(307,789,o),
(292,789,cs),
(249,789,o),
(237,817,o),
(220,896,c),
(195,891,l),
(217,781,o),
(247,763,o),
(292,763,cs),
(307,763,o),
(321,767,o),
(339,767,cs),
(374,767,o),
(385,731,o),
(405,614,c)
);
}
);
width = 509;
},
{
layerId = "AA2163BC-B14D-4D16-A884-99BB623F1DBF";
shapes = (
{
closed = 1;
nodes = (
(591,554,l),
(591,622,l),
(391,622,l),
(391,554,l),
(440,554,l),
(440,0,l),
(515,0,l),
(515,554,l)
);
},
{
closed = 1;
nodes = (
(166,632,o),
(134,621,o),
(94,603,c),
(119,537,l),
(147,553,o),
(176,563,o),
(203,563,cs),
(249,563,o),
(275,538,o),
(275,494,cs),
(275,447,o),
(241,418,o),
(177,411,c),
(185,344,l),
(266,351,o),
(349,398,o),
(349,495,cs),
(349,576,o),
(300,632,o),
(213,632,cs)
);
},
{
closed = 1;
nodes = (
(356,249,o),
(345,281,o),
(335,306,cs),
(328,324,ls),
(318,346,o),
(301,370,o),
(287,386,c),
(255,378,l),
(206,374,l),
(245,336,o),
(283,280,o),
(283,215,cs),
(283,173,o),
(262,151,o),
(230,151,cs),
(168,151,o),
(128,235,o),
(89,374,c),
(21,356,l),
(80,157,o),
(136,82,o),
(236,82,cs),
(309,82,o),
(356,127,o),
(356,208,cs)
);
},
{
closed = 1;
nodes = (
(333,349,o),
(314,353,o),
(285,362,c),
(278,350,l),
(300,295,l),
(316,288,o),
(348,282,o),
(374,282,cs),
(410,282,o),
(440,288,o),
(475,309,c),
(475,377,l),
(434,357,o),
(410,349,o),
(364,349,cs)
);
},
{
closed = 1;
nodes = (
(510,615,l),
(484,774,o),
(454,811,o),
(400,811,cs),
(380,811,o),
(366,807,o),
(348,807,cs),
(314,807,o),
(302,826,o),
(280,896,c),
(219,879,l),
(248,762,o),
(291,739,o),
(335,739,cs),
(350,739,o),
(365,741,o),
(378,741,cs),
(412,741,o),
(425,711,o),
(442,615,c)
);
}
);
width = 579;
},
{
layerId = "9A082071-1CDF-4F9E-B116-82A287035C9D";
shapes = (
{
closed = 1;
nodes = (
(671,514,l),
(671,622,l),
(433,622,l),
(433,514,l),
(480,514,l),
(480,0,l),
(601,0,l),
(601,514,l)
);
},
{
closed = 1;
nodes = (
(190,632,o),
(153,620,o),
(111,602,c),
(149,501,l),
(175,516,o),
(202,523,o),
(224,523,cs),
(261,523,o),
(279,504,o),
(279,472,cs),
(279,438,o),
(252,417,o),
(200,412,c),
(212,308,l),
(318,320,o),
(399,371,o),
(399,478,cs),
(399,568,o),
(342,632,o),
(244,632,cs)
);
},
{
closed = 1;
nodes = (
(408,245,o),
(400,277,o),
(389,302,cs),
(382,320,ls),
(371,342,o),
(352,364,o),
(336,377,c),
(287,379,l),
(227,345,l),
(259,310,o),
(288,273,o),
(288,219,cs),
(288,192,o),
(275,174,o),
(248,174,cs),
(198,174,o),
(161,240,o),
(127,378,c),
(17,350,l),
(74,137,o),
(142,64,o),
(257,64,cs),
(354,64,o),
(408,116,o),
(408,209,cs)
);
},
{
closed = 1;
nodes = (
(381,348,o),
(358,352,o),
(336,359,c),
(327,346,l),
(341,258,l),
(359,251,o),
(393,246,o),
(419,246,cs),
(453,246,o),
(487,251,o),
(517,274,c),
(516,378,l),
(474,354,o),
(446,348,o),
(408,348,cs)
);
},
{
closed = 1;
nodes = (
(590,615,l),
(559,788,o),
(522,824,o),
(466,824,cs),
(443,824,o),
(427,821,o),
(412,821,cs),
(381,821,o),
(368,837,o),
(350,896,c),
(259,870,l),
(289,753,o),
(330,721,o),
(380,721,cs),
(392,721,o),
(409,723,o),
(421,723,cs),
(453,723,o),
(466,700,o),
(484,615,c)
);
}
);
width = 659;
},
{
layerId = "6EDA54BC-5413-4E6E-9D6B-A24A39A704A7";
shapes = (
{
closed = 1;
nodes = (
(721,489,l),
(721,622,l),
(467,622,l),
(467,489,l),
(505,489,l),
(505,0,l),
(655,0,l),
(655,489,l)
);
},
{
closed = 1;
nodes = (
(205,632,o),
(164,619,o),
(121,602,c),
(167,478,l),
(192,492,o),
(217,498,o),
(237,498,cs),
(268,498,o),
(281,482,o),
(281,459,cs),
(281,432,o),
(259,416,o),
(213,412,c),
(229,286,l),
(350,301,o),
(430,354,o),
(430,468,cs),
(430,563,o),
(367,632,o),
(262,632,cs)
);
},
{
closed = 1;
nodes = (
(441,242,o),
(435,274,o),
(424,299,c),
(416,318,l),
(404,340,o),
(384,360,o),
(368,372,c),
(307,379,l),
(241,326,l),
(270,294,o),
(292,266,o),
(292,222,cs),
(292,204,o),
(284,188,o),
(260,188,cs),
(218,188,o),
(183,243,o),
(151,381,c),
(15,346,l),
(71,124,o),
(146,53,o),
(271,53,cs),
(382,53,o),
(441,109,o),
(441,209,cs)
);
},
{
closed = 1;
nodes = (
(410,348,o),
(385,352,o),
(368,357,c),
(357,344,l),
(366,234,l),
(386,228,o),
(420,223,o),
(447,223,cs),
(480,223,o),
(515,228,o),
(542,252,c),
(541,378,l),
(499,352,o),
(468,348,o),
(435,348,cs)
);
},
{
closed = 1;
nodes = (
(640,615,l),
(607,797,o),
(565,832,o),
(507,832,cs),
(483,832,o),
(466,829,o),
(453,829,cs),
(424,829,o),
(409,844,o),
(394,896,c),
(285,865,l),
(315,748,o),
(355,709,o),
(408,709,cs),
(418,709,o),
(437,711,o),
(448,711,cs),
(479,711,o),
(492,693,o),
(510,615,c)
);
}
);
width = 709;
}
);
subCategory = Other;
unicode = 2308;
}
{
category = Letter;
glyphname = uudeva;
layers = (
{
anchors = (
{
name = Anchor2;
pos = (318,622);
},
{
name = Anchor8;
pos = (269,0);
}
);
layerId = "B871EA9A-50AC-43A6-961C-B7EB8764AD7C";
shapes = (
{
closed = 1;
nodes = (
(0,596,l),
(702,596,l),
(702,622,l),
(0,622,l)
);
},
{
closed = 1;
nodes = (
(297,605,l),
(350,581,o),
(387,538,o),
(387,476,cs),
(387,407,o),
(344,358,o),
(234,354,c),
(236,328,l),
(364,335,o),
(414,398,o),
(414,478,cs),
(414,538,o),
(377,591,o),
(316,616,c)
);
},
{
closed = 1;
nodes = (
(274,339,l),
(363,277,o),
(407,212,o),
(407,140,cs),
(407,50,o),
(352,26,o),
(292,26,cs),
(195,26,o),
(131,116,o),
(49,325,c),
(23,316,l),
(117,80,o),
(188,0,o),
(294,0,cs),
(378,0,o),
(434,48,o),
(434,137,cs),
(434,231,o),
(376,295,o),
(299,351,c)
);
},
{
closed = 1;
nodes = (
(396,230,l),
(430,275,o),
(465,306,o),
(516,306,cs),
(574,306,o),
(609,267,o),
(609,199,cs),
(609,124,o),
(582,73,o),
(541,16,c),
(565,0,l),
(607,60,o),
(636,121,o),
(636,196,cs),
(636,288,o),
(582,332,o),
(517,332,cs),
(464,332,o),
(424,303,o),
(381,254,c)
);
}
);
width = 687;
},
{
anchors = (
{
name = Anchor2;
pos = (333,622);
},
{
name = Anchor8;
pos = (299,0);
}
);
layerId = "6C7CC43D-04A1-4971-B3B5-A41D54964AD2";
shapes = (
{
closed = 1;
nodes = (
(0,551,l),
(780,551,l),
(780,622,l),
(0,622,l)
);
},
{
closed = 1;
nodes = (
(321,563,l),
(367,551,o),
(404,515,o),
(404,463,cs),
(404,397,o),
(357,367,o),
(259,364,c),
(264,294,l),
(405,297,o),
(485,364,o),
(485,464,cs),
(485,544,o),
(414,609,o),
(313,616,c)
);
},
{
closed = 1;
nodes = (
(298,322,l),
(371,275,o),
(414,224,o),
(414,160,cs),
(414,95,o),
(375,74,o),
(320,74,cs),
(227,74,o),
(156,181,o),
(100,338,c),
(29,313,l),
(117,84,o),
(214,0,o),
(328,0,cs),
(424,0,o),
(499,51,o),
(499,152,cs),
(499,242,o),
(441,300,o),
(387,345,c)
);
},
{
closed = 1;
nodes = (
(444,185,l),
(487,238,o),
(527,264,o),
(565,264,cs),
(611,264,o),
(641,239,o),
(641,181,cs),
(641,127,o),
(617,79,o),
(584,41,c),
(656,0,l),
(702,62,o),
(721,124,o),
(721,185,cs),
(721,277,o),
(660,333,o),
(573,333,cs),
(524,333,o),
(482,315,o),
(438,282,c)
);
}
);
width = 765;
},
{
anchors = (
{
name = Anchor2;
pos = (347,622);
},
{
name = Anchor8;
pos = (328,0);
}
);
layerId = UUID0;
shapes = (
{
closed = 1;
nodes = (
(0,512,l),
(842,512,l),
(842,622,l),
(0,622,l)
);
},
{
closed = 1;
nodes = (
(301,544,l),
(345,529,o),
(392,500,o),
(392,455,cs),
(392,398,o),
(345,384,o),
(269,381,c),
(274,275,l),
(431,283,o),
(526,346,o),
(526,446,cs),
(526,547,o),
(414,609,o),
(320,618,c)
);
},
{
closed = 1;
nodes = (
(315,299,l),
(376,261,o),
(408,227,o),
(408,174,cs),
(408,134,o),
(384,113,o),
(339,113,cs),
(260,113,o),
(202,192,o),
(135,355,c),
(20,312,l),
(121,76,o),
(214,0,o),
(350,0,cs),
(471,0,o),
(541,54,o),
(541,155,cs),
(541,219,o),
(503,284,o),
(439,336,c)
);
},
{
closed = 1;
nodes = (
(507,180,l),
(534,209,o),
(568,237,o),
(604,237,cs),
(637,237,o),
(658,222,o),
(658,177,cs),
(658,143,o),
(642,98,o),
(616,64,c),
(732,0,l),
(777,68,o),
(792,132,o),
(792,189,cs),
(792,295,o),
(725,347,o),
(625,347,cs),
(564,347,o),
(511,327,o),
(459,290,c)
);
}
);
width = 828;
},
{
anchors = (
{
name = Anchor2;
pos = (358,622);
},
{
name = Anchor8;
pos = (327,0);
}
);
layerId = "C05809E0-FD9D-43C4-90EB-E9E886B1ADAB";
shapes = (
{
closed = 1;
nodes = (
(0,484,l),
(890,484,l),
(890,622,l),
(0,622,l)
);
},
{
closed = 1;
nodes = (
(296,521,l),
(345,503,o),
(382,480,o),
(382,441,cs),
(382,397,o),
(348,389,o),
(282,386,c),
(289,254,l),
(455,262,o),
(559,324,o),
(559,436,cs),
(559,546,o),
(414,609,o),
(326,619,c)
);
},
{
closed = 1;
nodes = (
(328,288,l),
(373,261,o),
(403,228,o),
(403,184,cs),
(403,159,o),
(390,141,o),
(354,141,cs),
(278,141,o),
(217,226,o),
(161,366,c),
(14,311,l),
(114,66,o),
(234,0,o),
(367,0,cs),
(502,0,o),
(581,57,o),
(581,167,cs),
(581,234,o),
(534,295,o),
(475,336,c)
);
},
{
closed = 1;
nodes = (
(558,176,l),
(579,199,o),
(606,220,o),
(632,220,cs),
(654,220,o),
(672,209,o),
(672,178,cs),
(672,149,o),
(655,112,o),
(633,82,c),
(786,2,l),
(830,65,o),
(849,128,o),
(849,192,cs),
(849,296,o),
(777,357,o),
(666,357,cs),
(586,357,o),
(539,329,o),
(480,288,c)
);
}
);
width = 875;
},
{
anchors = (
{
name = Anchor2;
pos = (238,622);
},
{
name = Anchor8;
pos = (204,0);
}
);
layerId = "5CC745D4-D12D-435B-A472-7D28876E43BC";
shapes = (
{
closed = 1;
nodes = (
(0,596,l),
(532,596,l),
(532,622,l),
(0,622,l)
);
},
{
closed = 1;
nodes = (
(214,603,l),
(267,570,o),
(289,525,o),
(289,480,cs),
(289,405,o),
(247,363,o),
(160,354,c),
(163,328,l),
(267,340,o),
(316,396,o),
(316,478,cs),
(316,540,o),
(281,591,o),
(232,616,c)
);
},
{
closed = 1;
nodes = (
(194,342,l),
(254,278,o),
(301,211,o),
(301,121,cs),
(301,48,o),
(263,26,o),
(224,26,cs),
(146,26,o),
(99,110,o),
(47,310,c),
(21,303,l),
(81,76,o),
(135,0,o),
(223,0,cs),
(289,0,o),
(328,45,o),
(328,120,cs),
(328,218,o),
(275,291,o),
(218,354,c)
);
},
{
closed = 1;
nodes = (
(292,223,l),
(323,272,o),
(349,306,o),
(391,306,cs),
(431,306,o),
(451,269,o),
(451,202,cs),
(451,131,o),
(428,64,o),
(401,12,c),
(427,0,l),
(456,63,o),
(477,130,o),
(477,201,cs),
(477,293,o),
(441,332,o),
(393,332,cs),
(342,332,o),
(309,295,o),
(277,243,c)
);
}
);
width = 520;
},
{
anchors = (
{
name = Anchor2;
pos = (246,622);
},
{
name = Anchor8;
pos = (227,0);
}
);
layerId = "AA2163BC-B14D-4D16-A884-99BB623F1DBF";
shapes = (
{
closed = 1;
nodes = (
(0,554,l),
(586,554,l),
(586,622,l),
(0,622,l)
);
},
{
closed = 1;
nodes = (
(213,567,l),
(259,546,o),
(289,510,o),
(289,463,cs),
(289,398,o),
(250,373,o),
(177,363,c),
(186,296,l),
(296,312,o),
(364,361,o),
(364,461,cs),
(364,544,o),
(292,606,o),
(222,614,c)
);
},
{
closed = 1;
nodes = (
(211,321,l),
(258,273,o),
(298,213,o),
(298,147,cs),
(298,92,o),
(275,71,o),
(239,71,cs),
(174,71,o),
(132,169,o),
(88,331,c),
(19,313,l),
(81,83,o),
(141,0,o),
(246,0,cs),
(323,0,o),
(374,51,o),
(374,137,cs),
(374,237,o),
(322,298,o),
(285,343,c)
);
},
{
closed = 1;
nodes = (
(339,195,l),
(371,245,o),
(398,267,o),
(426,267,cs),
(451,267,o),
(468,244,o),
(468,192,cs),
(468,127,o),
(446,79,o),
(421,36,c),
(488,0,l),
(519,57,o),
(543,125,o),
(543,188,cs),
(543,278,o),
(498,334,o),
(434,334,cs),
(384,334,o),
(351,305,o),
(319,276,c)
);
}
);
width = 574;
},
{
anchors = (
{
name = Anchor2;
pos = (264,622);
},
{
name = Anchor8;
pos = (239,0);
}
);
layerId = "9A082071-1CDF-4F9E-B116-82A287035C9D";
shapes = (
{
closed = 1;
nodes = (
(0,514,l),
(649,514,l),
(649,622,l),
(0,622,l)
);
},
{
closed = 1;
nodes = (
(216,533,l),
(258,513,o),
(284,492,o),
(284,449,cs),
(284,400,o),
(253,382,o),
(194,377,c),
(206,273,l),
(339,290,o),
(406,341,o),
(406,442,cs),
(406,542,o),
(303,601,o),
(238,610,c)
);
},
{
closed = 1;
nodes = (
(231,295,l),
(271,255,o),
(300,212,o),
(300,161,cs),
(300,129,o),
(287,111,o),
(258,111,cs),
(203,111,o),
(167,184,o),
(127,338,c),
(17,309,l),
(78,77,o),
(148,0,o),
(268,0,cs),
(362,0,o),
(422,54,o),
(422,149,cs),
(422,237,o),
(379,292,o),
(338,334,c)
);
},
{
closed = 1;
nodes = (
(398,186,l),
(419,219,o),
(438,240,o),
(462,240,cs),
(478,240,o),
(492,227,o),
(492,187,cs),
(492,139,o),
(473,93,o),
(451,52,c),
(558,-1,l),
(592,64,o),
(613,132,o),
(613,192,cs),
(613,291,o),
(562,347,o),
(488,347,cs),
(430,347,o),
(392,319,o),
(350,283,c)
);
}
);
width = 637;
},
{
anchors = (
{
name = Anchor2;
pos = (275,622);
},
{
name = Anchor8;
pos = (246,0);
}
);
layerId = "6EDA54BC-5413-4E6E-9D6B-A24A39A704A7";
shapes = (
{
closed = 1;
nodes = (
(0,489,l),
(689,489,l),
(689,622,l),
(0,622,l)
);
},
{
closed = 1;
nodes = (
(219,511,l),
(258,493,o),
(282,481,o),
(282,440,cs),
(282,402,o),
(255,388,o),
(205,385,c),
(219,258,l),
(366,277,o),
(432,328,o),
(432,430,cs),
(432,540,o),
(311,598,o),
(248,608,c)
);
},
{
closed = 1;
nodes = (
(243,278,l),
(278,244,o),
(301,211,o),
(301,170,cs),
(301,152,o),
(293,136,o),
(269,136,cs),
(220,136,o),
(188,193,o),
(150,342,c),
(15,307,l),
(75,74,o),
(152,0,o),
(281,0,cs),
(385,0,o),
(452,56,o),
(452,156,cs),
(452,237,o),
(414,289,o),
(371,329,c)
);
},
{
closed = 1;
nodes = (
(435,180,l),
(448,202,o),
(462,223,o),
(484,223,cs),
(494,223,o),
(506,217,o),
(506,184,cs),
(506,147,o),
(490,102,o),
(470,62,c),
(601,-1,l),
(637,68,o),
(656,136,o),
(656,195,cs),
(656,299,o),
(602,355,o),
(522,355,cs),
(458,355,o),
(418,328,o),
(369,288,c)
);
}
);
width = 677;
}
);
subCategory = Other;
unicode = 2314;
}
{
category = Letter;
glyphname = ngadeva;
layers = (
{
anchors = (
{
name = Anchor2;
pos = (412,622);
},
{
name = Anchor6;
pos = (334,0);
},
{
name = Anchor8;
pos = (292,0);
}
);
layerId = "B871EA9A-50AC-43A6-961C-B7EB8764AD7C";
shapes = (
{
closed = 1;
nodes = (
(414,251,o),
(470,218,o),
(470,140,cs),
(470,72,o),
(423,26,o),
(319,26,cs),
(219,26,o),
(128,69,o),
(52,168,c),
(30,152,l),
(102,64,o),
(189,0,o),
(320,0,cs),
(440,0,o),
(497,62,o),
(497,139,cs),
(497,224,o),
(438,277,o),
(348,277,cs),
(295,277,o),
(260,267,o),
(229,253,c),
(199,272,o),
(163,311,o),
(163,356,cs),
(163,377,o),
(167,394,o),
(177,406,cs),
(195,429,o),
(225,438,o),
(277,438,cs),
(438,438,l),
(438,596,l),
(591,596,l),
(591,622,l),
(0,622,l),
(0,596,l),
(412,596,l),
(412,464,l),
(283,464,ls),
(206,464,o),
(175,447,o),
(154,419,cs),
(142,403,o),
(136,385,o),
(136,359,cs),
(136,294,o),
(182,253,o),
(226,224,c),
(265,245,o),
(304,251,o),
(348,251,cs)
);
},
{
closed = 1;
nodes = (
(474,335,o),
(489,322,o),
(505,322,cs),
(522,322,o),
(535,334,o),
(535,360,cs),
(535,383,o),
(524,398,o),
(505,398,cs),
(487,398,o),
(474,384,o),
(474,360,cs)
);
}
);
width = 576;
},
{
anchors = (
{
name = Anchor2;
pos = (401,622);
},
{
name = Anchor6;
pos = (330,0);
},
{
name = Anchor8;
pos = (316,0);
}
);
layerId = "6C7CC43D-04A1-4971-B3B5-A41D54964AD2";
shapes = (
{
closed = 1;
nodes = (
(419,222,o),
(453,197,o),
(453,152,cs),
(453,102,o),
(415,74,o),
(337,74,cs),
(237,74,o),
(162,116,o),
(86,207,c),
(25,158,l),
(104,65,o),
(206,0,o),
(337,0,cs),
(469,0,o),
(534,63,o),
(534,154,cs),
(534,240,o),
(461,294,o),
(362,294,cs),
(327,294,o),
(291,288,o),
(261,277,c),
(239,294,o),
(217,315,o),
(217,347,cs),
(217,361,o),
(222,373,o),
(232,381,cs),
(244,390,o),
(257,394,o),
(298,394,cs),
(482,394,l),
(482,551,l),
(662,551,l),
(662,622,l),
(0,622,l),
(0,551,l),
(401,551,l),
(401,465,l),
(308,465,ls),
(242,465,o),
(204,456,o),
(174,433,cs),
(151,416,o),
(137,389,o),
(137,352,cs),
(137,283,o),
(187,233,o),
(248,197,c),
(279,212,o),
(319,222,o),
(358,222,cs)
);
},
{
closed = 1;
nodes = (
(511,307,o),
(534,282,o),
(563,282,cs),
(592,282,o),
(615,307,o),
(615,337,cs),
(615,368,o),
(592,392,o),
(563,392,cs),
(534,392,o),
(511,368,o),
(511,337,cs)
);
}
);
width = 647;
},
{
anchors = (
{
name = Anchor2;
pos = (375,622);
},
{
name = Anchor6;
pos = (316,0);
},
{
name = Anchor8;
pos = (342,0);
}
);
layerId = UUID0;
shapes = (
{
closed = 1;
nodes = (
(428,200,o),
(446,184,o),
(446,160,cs),
(446,133,o),
(421,112,o),
(357,112,cs),
(254,112,o),
(183,159,o),
(112,232,c),
(14,155,l),
(90,72,o),
(203,0,o),
(361,0,cs),
(511,0,o),
(581,67,o),
(581,154,cs),
(581,246,o),
(514,304,o),
(394,304,cs),
(351,304,o),
(319,300,o),
(291,292,c),
(280,303,o),
(272,314,o),
(272,329,cs),
(272,340,o),
(276,346,o),
(284,351,c),
(291,355,o),
(299,357,o),
(321,357,cs),
(509,357,l),
(509,512,l),
(709,512,l),
(709,622,l),
(0,622,l),
(0,512,l),
(375,512,l),
(375,456,l),
(331,456,ls),
(247,456,o),
(211,446,o),
(179,421,cs),
(156,402,o),
(141,374,o),
(141,333,cs),
(141,266,o),
(202,203,o),
(261,177,c),
(298,193,o),
(339,200,o),
(374,200,cs)
);
},
{
closed = 1;
nodes = (
(541,300,o),
(570,271,o),
(609,271,cs),
(648,271,o),
(677,300,o),
(677,340,cs),
(677,379,o),
(648,409,o),
(609,409,cs),
(570,409,o),
(541,379,o),
(541,340,cs)
);
}
);
width = 695;
},
{
anchors = (
{
name = Anchor2;
pos = (371,622);
},
{
name = Anchor6;
pos = (317,0);
},
{
name = Anchor8;
pos = (363,0);
}
);
layerId = "C05809E0-FD9D-43C4-90EB-E9E886B1ADAB";
shapes = (
{
closed = 1;
nodes = (
(429,181,o),
(443,174,o),
(443,158,cs),
(443,139,o),
(422,129,o),
(366,129,cs),
(265,129,o),
(188,178,o),
(123,241,c),
(11,141,l),
(85,72,o),
(214,0,o),
(376,0,cs),
(561,0,o),
(624,67,o),
(624,155,cs),
(624,238,o),
(561,299,o),
(429,299,cs),
(384,299,o),
(362,295,o),
(333,290,c),
(324,299,o),
(318,307,o),
(318,317,cs),
(318,321,o),
(319,324,o),
(322,327,cs),
(326,331,o),
(333,333,o),
(346,333,cs),
(545,333,l),
(545,484,l),
(752,484,l),
(752,622,l),
(0,622,l),
(0,484,l),
(371,484,l),
(371,444,l),
(348,444,ls),
(249,444,o),
(215,436,o),
(183,409,cs),
(155,386,o),
(145,358,o),
(145,325,cs),
(145,254,o),
(211,196,o),
(277,166,c),
(310,175,o),
(353,181,o),
(383,181,cs)
);
},
{
closed = 1;
nodes = (
(571,289,o),
(602,258,o),
(646,258,cs),
(689,258,o),
(720,289,o),
(720,331,cs),
(720,372,o),
(689,404,o),
(646,404,cs),
(602,404,o),
(571,372,o),
(571,331,cs)
);
}
);
width = 737;
},
{
anchors = (
{
name = Anchor2;
pos = (303,622);
},
{
name = Anchor6;
pos = (247,0);
},
{
name = Anchor8;
pos = (220,0);
}
);
layerId = "5CC745D4-D12D-435B-A472-7D28876E43BC";
shapes = (
{
closed = 1;
nodes = (
(303,251,o),
(344,218,o),
(344,142,cs),
(344,69,o),
(308,26,o),
(233,26,cs),
(151,26,o),
(89,82,o),
(41,163,c),
(18,149,l),
(72,62,o),
(139,0,o),
(234,0,cs),
(328,0,o),
(371,59,o),
(371,142,cs),
(371,224,o),
(325,277,o),
(247,277,cs),
(223,277,o),
(200,272,o),
(180,264,c),
(158,287,o),
(129,321,o),
(129,367,cs),
(129,390,o),
(134,406,o),
(145,418,cs),
(159,432,o),
(177,438,o),
(217,438,cs),
(329,438,l),
(329,596,l),
(450,596,l),
(450,622,l),
(0,622,l),
(0,596,l),
(303,596,l),
(303,464,l),
(223,464,ls),
(167,464,o),
(143,454,o),
(125,435,cs),
(109,418,o),
(102,395,o),
(102,369,cs),
(102,313,o),
(140,264,o),
(173,235,c),
(198,246,o),
(221,251,o),
(248,251,cs)
);
},
{
closed = 1;
nodes = (
(350,334,o),
(364,323,o),
(378,323,cs),
(395,323,o),
(407,333,o),
(407,360,cs),
(407,384,o),
(396,397,o),
(379,397,cs),
(363,397,o),
(350,385,o),
(350,360,cs)
);
}
);
width = 438;
},
{
anchors = (
{
name = Anchor2;
pos = (282,622);
},
{
name = Anchor6;
pos = (235,0);
},
{
name = Anchor8;
pos = (238,0);
}
);
layerId = "AA2163BC-B14D-4D16-A884-99BB623F1DBF";
shapes = (
{
closed = 1;
nodes = (
(303,225,o),
(325,193,o),
(325,147,cs),
(325,94,o),
(294,70,o),
(239,70,cs),
(170,70,o),
(128,110,o),
(76,190,c),
(15,150,l),
(75,55,o),
(146,0,o),
(244,0,cs),
(349,0,o),
(400,63,o),
(400,144,cs),
(400,234,o),
(350,293,o),
(263,293,cs),
(245,293,o),
(221,290,o),
(200,283,c),
(184,304,o),
(172,326,o),
(172,354,cs),
(172,365,o),
(175,377,o),
(181,383,cs),
(190,393,o),
(203,397,o),
(230,397,cs),
(357,397,l),
(357,554,l),
(497,554,l),
(497,622,l),
(0,622,l),
(0,554,l),
(282,554,l),
(282,465,l),
(245,465,ls),
(180,465,o),
(151,452,o),
(129,431,cs),
(110,413,o),
(99,388,o),
(99,356,cs),
(99,293,o),
(140,245,o),
(177,208,c),
(203,219,o),
(226,225,o),
(250,225,cs)
);
},
{
closed = 1;
nodes = (
(375,307,o),
(392,287,o),
(421,287,cs),
(451,287,o),
(467,307,o),
(467,339,cs),
(467,369,o),
(452,391,o),
(421,391,cs),
(391,391,o),
(375,369,o),
(375,339,cs)
);
}
);
width = 485;
},
{
anchors = (
{
name = Anchor2;
pos = (279,622);
},
{
name = Anchor6;
pos = (238,0);
},
{
name = Anchor8;
pos = (266,0);
}
);
layerId = "9A082071-1CDF-4F9E-B116-82A287035C9D";
shapes = (
{
closed = 1;
nodes = (
(315,200,o),
(331,182,o),
(331,154,cs),
(331,120,o),
(310,106,o),
(267,106,cs),
(200,106,o),
(153,143,o),
(94,207,c),
(12,125,l),
(77,54,o),
(159,0,o),
(272,0,cs),
(398,0,o),
(452,65,o),
(452,150,cs),
(452,235,o),
(403,297,o),
(300,297,cs),
(279,297,o),
(260,295,o),
(240,289,c),
(230,303,o),
(224,316,o),
(224,333,cs),
(224,340,o),
(226,347,o),
(230,351,c),
(236,357,o),
(244,360,o),
(266,360,cs),
(398,360,l),
(398,514,l),
(551,514,l),
(551,622,l),
(0,622,l),
(0,514,l),
(279,514,l),
(279,453,l),
(262,453,ls),
(192,453,o),
(161,439,o),
(140,419,cs),
(118,399,o),
(107,371,o),
(107,338,cs),
(107,275,o),
(146,225,o),
(192,185,c),
(216,194,o),
(242,200,o),
(272,200,cs)
);
},
{
closed = 1;
nodes = (
(411,297,o),
(434,272,o),
(469,272,cs),
(505,272,o),
(525,297,o),
(525,335,cs),
(525,371,o),
(506,398,o),
(469,398,cs),
(431,398,o),
(411,371,o),
(411,335,cs)
);
}
);
width = 539;
},
{
anchors = (
{
name = Anchor2;
pos = (277,622);
},
{
name = Anchor6;
pos = (240,0);
},
{
name = Anchor8;
pos = (284,0);
}
);
layerId = "6EDA54BC-5413-4E6E-9D6B-A24A39A704A7";
shapes = (
{
closed = 1;
nodes = (
(323,185,o),
(335,175,o),
(335,158,cs),
(335,136,o),
(320,129,o),
(284,129,cs),
(218,129,o),
(169,163,o),
(105,218,c),
(10,110,l),
(79,54,o),
(167,0,o),
(290,0,cs),
(428,0,o),
(485,67,o),
(485,154,cs),
(485,236,o),
(436,300,o),
(323,300,cs),
(301,300,o),
(284,298,o),
(265,294,c),
(259,303,o),
(256,310,o),
(256,320,cs),
(256,325,o),
(258,329,o),
(260,331,cs),
(265,336,o),
(270,337,o),
(288,337,cs),
(423,337,l),
(423,489,l),
(585,489,l),
(585,622,l),
(0,622,l),
(0,489,l),
(277,489,l),
(277,446,l),
(273,446,ls),
(199,446,o),
(168,431,o),
(147,412,cs),
(123,391,o),
(112,361,o),
(112,326,cs),
(112,266,o),
(150,215,o),
(201,174,c),
(224,180,o),
(254,185,o),
(285,185,cs)
);
},
{
closed = 1;
nodes = (
(434,291,o),
(460,262,o),
(499,262,cs),
(539,262,o),
(561,291,o),
(561,333,cs),
(561,373,o),
(540,403,o),
(499,403,cs),
(457,403,o),
(434,373,o),
(434,333,cs)
);
}
);
width = 573;
}
);
subCategory = Other;
unicode = 2329;
}
{
category = Letter;
glyphname = cadeva;
layers = (
{
layerId = "B871EA9A-50AC-43A6-961C-B7EB8764AD7C";
shapes = (
{
closed = 1;
nodes = (
(574,622,l),
(0,622,l),
(0,596,l),
(433,596,l),
(433,239,l),
(442,259,l),
(410,225,o),
(359,185,o),
(287,185,cs),
(227,185,o),
(168,211,o),
(168,296,cs),
(168,377,o),
(232,418,o),
(327,418,cs),
(365,418,l),
(367,443,l),
(344,444,o),
(303,444,o),
(261,444,cs),
(39,444,l),
(39,416,l),
(225,418,l),
(165,392,o),
(141,353,o),
(141,296,cs),
(141,213,o),
(194,159,o),
(285,159,cs),
(369,159,o),
(422,203,o),
(449,234,c),
(433,227,l),
(433,0,l),
(459,0,l),
(459,596,l),
(574,596,l)
);
}
);
width = 559;
},
{
layerId = "6C7CC43D-04A1-4971-B3B5-A41D54964AD2";
shapes = (
{
closed = 1;
nodes = (
(649,622,l),
(0,622,l),
(0,551,l),
(465,551,l),
(465,249,l),
(467,262,l),
(429,222,o),
(383,188,o),
(317,188,cs),
(266,188,o),
(221,217,o),
(221,274,cs),
(221,337,o),
(272,370,o),
(350,370,cs),
(382,370,l),
(389,440,l),
(383,440,o),
(355,441,o),
(331,441,cs),
(38,441,l),
(38,369,l),
(185,371,l),
(159,349,o),
(141,314,o),
(141,275,cs),
(141,180,o),
(214,118,o),
(317,118,cs),
(386,118,o),
(433,144,o),
(468,167,c),
(465,186,l),
(465,0,l),
(545,0,l),
(545,551,l),
(649,551,l)
);
}
);
width = 634;
},
{
layerId = UUID0;
shapes = (
{
closed = 1;
nodes = (
(705,622,l),
(0,622,l),
(0,512,l),
(476,512,l),
(476,248,l),
(488,281,l),
(448,230,o),
(409,201,o),
(341,201,cs),
(296,201,o),
(270,226,o),
(270,262,cs),
(270,304,o),
(296,331,o),
(372,331,cs),
(394,331,l),
(404,439,l),
(398,440,o),
(371,441,o),
(346,441,cs),
(37,441,l),
(37,330,l),
(171,333,l),
(147,311,o),
(135,279,o),
(135,241,cs),
(135,152,o),
(212,91,o),
(333,91,cs),
(397,91,o),
(441,106,o),
(490,135,c),
(476,180,l),
(476,0,l),
(610,0,l),
(610,512,l),
(705,512,l)
);
}
);
width = 690;
},
{
layerId = "C05809E0-FD9D-43C4-90EB-E9E886B1ADAB";
shapes = (
{
closed = 1;
nodes = (
(745,622,l),
(0,622,l),
(0,484,l),
(483,484,l),
(483,247,l),
(510,305,l),
(486,263,o),
(433,212,o),
(361,212,cs),
(322,212,o),
(305,229,o),
(305,255,cs),
(305,281,o),
(324,297,o),
(374,297,cs),
(406,297,l),
(418,429,l),
(402,431,o),
(377,433,o),
(360,433,cs),
(34,433,l),
(34,296,l),
(154,300,l),
(138,284,o),
(128,257,o),
(128,228,cs),
(128,129,o),
(204,73,o),
(341,73,cs),
(421,73,o),
(474,94,o),
(528,133,c),
(483,176,l),
(483,0,l),
(660,0,l),
(660,484,l),
(745,484,l)
);
}
);
width = 730;
},
{
layerId = "5CC745D4-D12D-435B-A472-7D28876E43BC";
shapes = (
{
closed = 1;
nodes = (
(439,622,l),
(0,622,l),
(0,596,l),
(324,596,l),
(324,239,l),
(338,267,l),
(303,208,o),
(269,185,o),
(220,185,cs),
(175,185,o),
(135,211,o),
(135,296,cs),
(135,377,o),
(187,418,o),
(250,418,cs),
(273,418,l),
(277,443,l),
(262,444,o),
(232,444,o),
(204,444,cs),
(34,444,l),
(34,416,l),
(179,419,l),
(128,394,o),
(108,348,o),
(108,296,cs),
(108,208,o),
(153,159,o),
(219,159,cs),
(284,159,o),
(320,197,o),
(342,232,c),
(324,227,l),
(324,0,l),
(350,0,l),
(350,596,l),
(439,596,l)
);
}
);
width = 427;
},
{
layerId = "AA2163BC-B14D-4D16-A884-99BB623F1DBF";
shapes = (
{
closed = 1;
nodes = (
(490,622,l),
(0,622,l),
(0,554,l),
(339,554,l),
(339,207,l),
(369,275,l),
(339,228,o),
(301,188,o),
(246,188,cs),
(202,188,o),
(177,215,o),
(177,273,cs),
(177,339,o),
(209,374,o),
(275,374,cs),
(279,374,l),
(286,440,l),
(278,441,o),
(261,441,o),
(244,441,cs),
(30,441,l),
(30,373,l),
(146,375,l),
(117,349,o),
(102,313,o),
(102,271,cs),
(102,179,o),
(159,120,o),
(241,120,cs),
(294,120,o),
(334,142,o),
(357,166,c),
(339,173,l),
(339,0,l),
(414,0,l),
(414,554,l),
(490,554,l)
);
}
);
width = 478;
},
{
layerId = "9A082071-1CDF-4F9E-B116-82A287035C9D";
shapes = (
{
closed = 1;
nodes = (
(545,622,l),
(0,622,l),
(0,514,l),
(354,514,l),
(354,209,l),
(384,285,l),
(360,239,o),
(327,201,o),
(277,201,cs),
(239,201,o),
(222,223,o),
(222,261,cs),
(222,305,o),
(243,330,o),
(292,330,cs),
(301,330,l),
(309,434,l),
(296,436,o),
(279,437,o),
(265,437,cs),
(30,437,l),
(30,329,l),
(133,333,l),
(113,312,o),
(101,281,o),
(101,244,cs),
(101,151,o),
(160,93,o),
(258,93,cs),
(319,93,o),
(359,111,o),
(395,149,c),
(354,175,l),
(354,0,l),
(475,0,l),
(475,514,l),
(545,514,l)
);
}
);
width = 533;
},
{
layerId = "6EDA54BC-5413-4E6E-9D6B-A24A39A704A7";
shapes = (
{
closed = 1;
nodes = (
(580,622,l),
(0,622,l),
(0,489,l),
(364,489,l),
(364,210,l),
(394,292,l),
(373,246,o),
(343,209,o),
(296,209,cs),
(263,209,o),
(250,228,o),
(250,253,cs),
(250,283,o),
(265,302,o),
(302,302,cs),
(314,302,l),
(323,431,l),
(307,433,o),
(290,434,o),
(278,434,cs),
(30,434,l),
(30,301,l),
(125,306,l),
(111,289,o),
(100,261,o),
(100,227,cs),
(100,133,o),
(161,76,o),
(268,76,cs),
(335,76,o),
(374,91,o),
(419,138,c),
(364,177,l),
(364,0,l),
(514,0,l),
(514,489,l),
(580,489,l)
);
}
);
width = 568;
}
);
subCategory = Other;
unicode = 2330;
}
{
category = Letter;
glyphname = jhadeva;
layers = (
{
layerId = "B871EA9A-50AC-43A6-961C-B7EB8764AD7C";
shapes = (
{
closed = 1;
nodes = (
(701,596,l),
(701,622,l),
(452,622,l),
(452,596,l),
(560,596,l),
(560,0,l),
(586,0,l),
(586,596,l)
);
},
{
closed = 1;
nodes = (
(335,251,o),
(394,221,o),
(394,141,cs),
(394,63,o),
(339,24,o),
(230,24,cs),
(196,24,o),
(166,28,o),
(133,36,c),
(141,23,l),
(202,-19,o),
(284,-65,o),
(367,-107,c),
(378,-83,l),
(308,-52,o),
(241,-16,o),
(187,15,c),
(157,54,o),
(122,79,o),
(93,79,cs),
(69,79,o),
(60,67,o),
(60,51,cs),
(60,15,o),
(123,5,o),
(183,2,cs),
(188,2,o),
(205,0,o),
(236,0,cs),
(343,0,o),
(421,44,o),
(421,141,cs),
(421,219,o),
(362,277,o),
(272,277,cs),
(219,277,o),
(184,267,o),
(153,253,c),
(123,272,o),
(87,311,o),
(87,356,cs),
(87,377,o),
(91,394,o),
(101,406,cs),
(119,429,o),
(147,438,o),
(204,438,cs),
(366,438,l),
(366,596,l),
(471,596,l),
(471,622,l),
(0,622,l),
(0,596,l),
(340,596,l),
(340,464,l),
(210,464,ls),
(130,464,o),
(99,447,o),
(78,419,cs),
(66,403,o),
(60,386,o),
(60,359,cs),
(60,294,o),
(106,253,o),
(150,224,c),
(189,245,o),
(228,251,o),
(270,251,cs)
);
},
{
closed = 1;
nodes = (
(396,256,o),
(356,261,o),
(316,271,c),
(308,264,l),
(307,255,l),
(362,234,o),
(409,230,o),
(455,230,cs),
(500,230,o),
(534,236,o),
(570,248,c),
(570,274,l),
(529,261,o),
(498,256,o),
(454,256,cs)
);
}
);
width = 686;
},
{
layerId = "6C7CC43D-04A1-4971-B3B5-A41D54964AD2";
shapes = (
{
closed = 1;
nodes = (
(771,551,l),
(771,622,l),
(489,622,l),
(489,551,l),
(586,551,l),
(586,0,l),
(667,0,l),
(667,551,l)
);
},
{
closed = 1;
nodes = (
(332,222,o),
(366,197,o),
(366,153,cs),
(366,94,o),
(312,68,o),
(219,68,cs),
(192,68,o),
(135,76,o),
(99,92,c),
(135,28,l),
(204,-19,o),
(289,-67,o),
(382,-110,c),
(415,-40,l),
(350,-20,o),
(289,2,o),
(241,25,c),
(173,93,o),
(138,116,o),
(101,116,cs),
(66,116,o),
(48,94,o),
(48,65,cs),
(48,20,o),
(101,4,o),
(185,1,c),
(199,0,o),
(214,0,o),
(230,0,cs),
(365,0,o),
(447,52,o),
(447,154,cs),
(447,240,o),
(374,294,o),
(275,294,cs),
(240,294,o),
(204,288,o),
(174,277,c),
(152,294,o),
(130,315,o),
(130,347,cs),
(130,361,o),
(135,373,o),
(145,381,cs),
(157,390,o),
(170,394,o),
(211,394,cs),
(395,394,l),
(395,551,l),
(505,551,l),
(505,622,l),
(0,622,l),
(0,551,l),
(314,551,l),
(314,465,l),
(218,465,ls),
(150,465,o),
(117,456,o),
(87,433,cs),
(64,416,o),
(50,389,o),
(50,352,cs),
(50,284,o),
(98,234,o),
(161,197,c),
(191,212,o),
(232,222,o),
(271,222,cs)
);
},
{
closed = 1;
nodes = (
(425,268,o),
(384,274,o),
(345,283,c),
(339,268,l),
(387,217,l),
(412,206,o),
(454,197,o),
(484,197,cs),
(542,197,o),
(580,203,o),
(637,228,c),
(637,300,l),
(574,277,o),
(536,268,o),
(480,268,cs)
);
}
);
width = 756;
},
{
layerId = UUID0;
shapes = (
{
closed = 1;
nodes = (
(823,512,l),
(823,622,l),
(509,622,l),
(509,512,l),
(595,512,l),
(595,0,l),
(729,0,l),
(729,512,l)
);
},
{
closed = 1;
nodes = (
(328,200,o),
(346,184,o),
(346,157,cs),
(346,123,o),
(307,103,o),
(230,103,cs),
(192,103,o),
(153,113,o),
(119,129,c),
(144,19,l),
(210,-29,o),
(304,-82,o),
(405,-127,c),
(450,-32,l),
(378,-9,o),
(297,21,o),
(257,43,c),
(199,117,o),
(156,149,o),
(104,149,cs),
(74,149,o),
(42,128,o),
(42,84,cs),
(42,12,o),
(111,0,o),
(214,0,cs),
(235,0,o),
(256,7,o),
(262,7,cs),
(403,7,o),
(481,56,o),
(481,152,cs),
(481,246,o),
(414,304,o),
(294,304,cs),
(251,304,o),
(218,300,o),
(191,292,c),
(180,303,o),
(172,314,o),
(172,329,cs),
(172,340,o),
(176,346,o),
(184,351,c),
(191,355,o),
(199,357,o),
(221,357,cs),
(429,357,l),
(429,512,l),
(532,512,l),
(532,622,l),
(0,622,l),
(0,512,l),
(295,512,l),
(295,456,l),
(231,456,ls),
(147,456,o),
(111,446,o),
(79,421,cs),
(56,402,o),
(41,374,o),
(41,333,cs),
(41,266,o),
(102,203,o),
(161,177,c),
(198,193,o),
(239,200,o),
(274,200,cs)
);
},
{
closed = 1;
nodes = (
(440,282,o),
(376,287,o),
(353,294,c),
(359,259,l),
(440,179,l),
(455,176,o),
(470,174,o),
(487,174,cs),
(550,174,o),
(589,182,o),
(627,202,c),
(627,315,l),
(590,298,o),
(551,282,o),
(474,282,cs)
);
}
);
width = 809;
},
{
layerId = "C05809E0-FD9D-43C4-90EB-E9E886B1ADAB";
shapes = (
{
closed = 1;
nodes = (
(863,484,l),
(863,622,l),
(524,622,l),
(524,484,l),
(601,484,l),
(601,0,l),
(778,0,l),
(778,484,l)
);
},
{
closed = 1;
nodes = (
(322,181,o),
(334,174,o),
(334,157,cs),
(334,139,o),
(313,126,o),
(248,126,cs),
(222,126,o),
(175,129,o),
(124,150,c),
(152,18,l),
(232,-34,o),
(333,-91,o),
(428,-132,c),
(484,-13,l),
(413,4,o),
(310,37,o),
(261,59,c),
(214,124,o),
(160,164,o),
(108,164,cs),
(73,164,o),
(34,147,o),
(34,92,cs),
(34,20,o),
(102,0,o),
(227,0,cs),
(258,0,o),
(259,6,o),
(265,6,cs),
(450,-3,o),
(512,73,o),
(512,153,cs),
(512,237,o),
(451,299,o),
(321,299,cs),
(276,299,o),
(254,295,o),
(225,290,c),
(216,299,o),
(210,306,o),
(210,317,cs),
(210,321,o),
(211,324,o),
(214,327,cs),
(218,331,o),
(225,333,o),
(238,333,cs),
(458,333,l),
(458,484,l),
(555,484,l),
(555,622,l),
(0,622,l),
(0,484,l),
(284,484,l),
(284,444,l),
(238,444,ls),
(139,444,o),
(107,436,o),
(75,409,cs),
(47,386,o),
(37,358,o),
(37,325,cs),
(37,254,o),
(103,196,o),
(169,166,c),
(202,176,o),
(243,181,o),
(273,181,cs)
);
},
{
closed = 1;
nodes = (
(443,281,o),
(396,289,o),
(376,294,c),
(377,262,l),
(428,161,l),
(443,155,o),
(470,149,o),
(522,149,cs),
(552,149,o),
(602,154,o),
(645,178,c),
(646,317,l),
(608,293,o),
(552,281,o),
(496,281,cs)
);
}
);
width = 848;
},
{
layerId = "5CC745D4-D12D-435B-A472-7D28876E43BC";
shapes = (
{
closed = 1;
nodes = (
(530,596,l),
(530,622,l),
(338,622,l),
(338,596,l),
(415,596,l),
(415,0,l),
(441,0,l),
(441,596,l)
);
},
{
closed = 1;
nodes = (
(250,251,o),
(288,215,o),
(288,142,cs),
(288,63,o),
(246,24,o),
(172,24,cs),
(146,24,o),
(123,28,o),
(94,38,c),
(107,23,l),
(155,-20,o),
(210,-63,o),
(272,-107,c),
(287,-85,l),
(237,-54,o),
(189,-19,o),
(151,12,c),
(125,52,o),
(97,75,o),
(72,75,cs),
(57,75,o),
(45,67,o),
(45,50,cs),
(45,15,o),
(92,5,o),
(138,2,cs),
(154,1,o),
(165,0,o),
(174,0,cs),
(260,0,o),
(315,46,o),
(315,142,cs),
(315,221,o),
(270,277,o),
(191,277,cs),
(167,277,o),
(144,272,o),
(124,264,c),
(103,286,o),
(73,321,o),
(73,367,cs),
(73,390,o),
(78,406,o),
(89,418,cs),
(103,432,o),
(121,438,o),
(161,438,cs),
(275,438,l),
(275,596,l),
(368,596,l),
(368,622,l),
(0,622,l),
(0,596,l),
(249,596,l),
(249,464,l),
(167,464,ls),
(111,464,o),
(87,454,o),
(69,435,cs),
(53,418,o),
(46,395,o),
(46,369,cs),
(46,313,o),
(84,264,o),
(117,235,c),
(142,246,o),
(165,251,o),
(192,251,cs)
);
},
{
closed = 1;
nodes = (
(297,256,o),
(268,259,o),
(237,269,c),
(233,262,l),
(237,255,l),
(273,235,o),
(312,230,o),
(342,230,cs),
(374,230,o),
(399,235,o),
(428,247,c),
(428,273,l),
(396,260,o),
(375,256,o),
(340,256,cs)
);
}
);
width = 518;
},
{
layerId = "AA2163BC-B14D-4D16-A884-99BB623F1DBF";
shapes = (
{
closed = 1;
nodes = (
(576,554,l),
(576,622,l),
(360,622,l),
(360,554,l),
(425,554,l),
(425,0,l),
(500,0,l),
(500,554,l)
);
},
{
closed = 1;
nodes = (
(236,225,o),
(258,193,o),
(258,147,cs),
(258,90,o),
(222,67,o),
(169,67,cs),
(145,67,o),
(111,75,o),
(86,90,c),
(103,28,l),
(154,-19,o),
(213,-66,o),
(280,-110,c),
(317,-47,l),
(268,-26,o),
(211,4,o),
(183,24,c),
(140,91,o),
(103,110,o),
(75,110,cs),
(49,110,o),
(32,92,o),
(32,64,cs),
(32,20,o),
(80,5,o),
(145,2,cs),
(158,1,o),
(171,1,o),
(174,1,cs),
(278,1,o),
(333,56,o),
(333,144,cs),
(333,226,o),
(286,293,o),
(196,293,cs),
(179,293,o),
(154,290,o),
(133,283,c),
(117,304,o),
(105,326,o),
(105,354,cs),
(105,365,o),
(108,377,o),
(114,383,cs),
(123,393,o),
(136,397,o),
(163,397,cs),
(297,397,l),
(297,554,l),
(378,554,l),
(378,622,l),
(0,622,l),
(0,554,l),
(222,554,l),
(222,465,l),
(178,465,ls),
(113,465,o),
(84,452,o),
(62,431,cs),
(43,413,o),
(32,387,o),
(32,356,cs),
(32,293,o),
(73,245,o),
(110,208,c),
(136,219,o),
(160,225,o),
(183,225,cs)
);
},
{
closed = 1;
nodes = (
(313,267,o),
(275,273,o),
(253,282,c),
(253,268,l),
(282,219,l),
(301,209,o),
(336,200,o),
(358,200,cs),
(398,200,o),
(424,204,o),
(458,228,c),
(459,298,l),
(423,276,o),
(399,267,o),
(345,267,cs)
);
}
);
width = 564;
},
{
layerId = "9A082071-1CDF-4F9E-B116-82A287035C9D";
shapes = (
{
closed = 1;
nodes = (
(631,514,l),
(631,622,l),
(383,622,l),
(383,514,l),
(440,514,l),
(440,0,l),
(561,0,l),
(561,514,l)
);
},
{
closed = 1;
nodes = (
(235,200,o),
(251,182,o),
(251,153,cs),
(251,118,o),
(229,101,o),
(182,101,cs),
(159,101,o),
(128,106,o),
(94,121,c),
(115,22,l),
(177,-30,o),
(240,-80,o),
(307,-122,c),
(358,-32,l),
(309,-14,o),
(232,21,o),
(197,42,c),
(165,110,o),
(125,141,o),
(85,141,cs),
(52,141,o),
(27,119,o),
(27,80,cs),
(27,18,o),
(82,2,o),
(167,1,c),
(183,1,o),
(189,3,o),
(193,3,cs),
(323,3,o),
(371,65,o),
(371,153,cs),
(371,231,o),
(325,297,o),
(220,297,cs),
(200,297,o),
(180,295,o),
(160,289,c),
(150,303,o),
(144,316,o),
(144,333,cs),
(144,340,o),
(146,347,o),
(150,351,c),
(156,357,o),
(164,360,o),
(186,360,cs),
(334,360,l),
(334,514,l),
(411,514,l),
(411,622,l),
(0,622,l),
(0,514,l),
(215,514,l),
(215,453,l),
(183,453,ls),
(112,453,o),
(82,439,o),
(60,419,cs),
(38,399,o),
(27,371,o),
(27,338,cs),
(27,275,o),
(66,225,o),
(112,185,c),
(136,194,o),
(163,200,o),
(191,200,cs)
);
},
{
closed = 1;
nodes = (
(324,276,o),
(297,282,o),
(277,289,c),
(276,264,l),
(301,185,l),
(315,178,o),
(344,172,o),
(383,172,cs),
(411,172,o),
(439,175,o),
(475,197,c),
(477,308,l),
(445,285,o),
(409,276,o),
(365,276,cs)
);
}
);
width = 619;
},
{
layerId = "6EDA54BC-5413-4E6E-9D6B-A24A39A704A7";
shapes = (
{
closed = 1;
nodes = (
(665,489,l),
(665,622,l),
(397,622,l),
(397,489,l),
(449,489,l),
(449,0,l),
(599,0,l),
(599,489,l)
);
},
{
closed = 1;
nodes = (
(235,185,o),
(247,175,o),
(247,156,cs),
(247,135,o),
(234,123,o),
(190,123,cs),
(168,123,o),
(138,126,o),
(99,141,c),
(123,18,l),
(191,-37,o),
(257,-88,o),
(324,-130,c),
(383,-23,l),
(334,-6,o),
(245,31,o),
(206,53,c),
(181,122,o),
(139,160,o),
(92,160,cs),
(54,160,o),
(24,136,o),
(24,90,cs),
(24,17,o),
(84,0,o),
(180,0,cs),
(198,0,o),
(201,4,o),
(205,4,cs),
(352,4,o),
(395,71,o),
(395,158,cs),
(395,234,o),
(349,300,o),
(235,300,cs),
(213,300,o),
(196,298,o),
(177,294,c),
(171,303,o),
(168,310,o),
(168,320,cs),
(168,325,o),
(170,329,o),
(172,331,cs),
(177,336,o),
(182,337,o),
(200,337,cs),
(357,337,l),
(357,489,l),
(432,489,l),
(432,622,l),
(0,622,l),
(0,489,l),
(210,489,l),
(210,446,l),
(186,446,ls),
(111,446,o),
(80,431,o),
(59,412,cs),
(35,391,o),
(24,361,o),
(24,326,cs),
(24,266,o),
(62,215,o),
(113,174,c),
(136,180,o),
(166,185,o),
(196,185,cs)
);
},
{
closed = 1;
nodes = (
(332,281,o),
(312,287,o),
(292,293,c),
(291,261,l),
(314,164,l),
(325,159,o),
(349,154,o),
(399,154,cs),
(420,154,o),
(449,157,o),
(487,178,c),
(489,314,l),
(460,291,o),
(416,281,o),
(378,281,cs)
);
}
);
width = 653;
}
);
subCategory = Other;
unicode = 2333;
}
{
category = Letter;
glyphname = nyadeva;
layers = (
{
layerId = "B871EA9A-50AC-43A6-961C-B7EB8764AD7C";
shapes = (
{
closed = 1;
nodes = (
(675,596,l),
(675,622,l),
(0,622,l),
(0,596,l),
(534,596,l),
(534,0,l),
(560,0,l),
(560,596,l)
);
},
{
closed = 1;
nodes = (
(545,345,l),
(516,325,o),
(483,317,o),
(448,317,cs),
(433,317,o),
(420,319,o),
(412,321,c),
(412,297,l),
(427,292,o),
(441,291,o),
(447,291,cs),
(489,291,o),
(521,301,o),
(546,315,c)
);
},
{
closed = 1;
nodes = (
(182,399,l),
(218,418,o),
(246,429,o),
(288,429,cs),
(354,429,o),
(405,393,o),
(405,309,cs),
(405,236,o),
(365,185,o),
(266,185,cs),
(174,185,o),
(106,238,o),
(50,372,c),
(24,362,l),
(85,218,o),
(163,159,o),
(268,159,cs),
(361,159,o),
(431,206,o),
(431,309,cs),
(431,406,o),
(369,455,o),
(287,455,cs),
(244,455,o),
(207,442,o),
(172,425,c)
);
}
);
width = 660;
},
{
layerId = "6C7CC43D-04A1-4971-B3B5-A41D54964AD2";
shapes = (
{
closed = 1;
nodes = (
(756,551,l),
(756,622,l),
(0,622,l),
(0,551,l),
(572,551,l),
(572,0,l),
(653,0,l),
(653,551,l)
);
},
{
closed = 1;
nodes = (
(646,391,l),
(611,353,o),
(568,315,o),
(493,315,cs),
(469,315,o),
(450,320,o),
(437,326,c),
(448,249,l),
(463,246,o),
(468,245,o),
(484,245,cs),
(554,245,o),
(605,262,o),
(646,290,c)
);
},
{
closed = 1;
nodes = (
(219,348,l),
(250,363,o),
(279,373,o),
(313,373,cs),
(368,373,o),
(411,348,o),
(411,287,cs),
(411,229,o),
(367,192,o),
(294,192,cs),
(206,192,o),
(152,241,o),
(98,365,c),
(29,338,l),
(97,186,o),
(186,118,o),
(300,118,cs),
(377,118,o),
(487,153,o),
(487,287,cs),
(487,389,o),
(414,446,o),
(315,446,cs),
(279,446,o),
(233,438,o),
(192,420,c)
);
}
);
width = 742;
},
{
layerId = UUID0;
shapes = (
{
closed = 1;
nodes = (
(843,512,l),
(843,622,l),
(0,622,l),
(0,512,l),
(615,512,l),
(615,0,l),
(749,0,l),
(749,512,l)
);
},
{
closed = 1;
nodes = (
(709,399,l),
(673,361,o),
(631,324,o),
(555,324,cs),
(531,324,o),
(513,328,o),
(499,334,c),
(511,229,l),
(525,227,o),
(530,226,o),
(547,226,cs),
(617,226,o),
(667,243,o),
(709,271,c)
);
},
{
closed = 1;
nodes = (
(251,316,l),
(282,330,o),
(304,336,o),
(336,336,cs),
(380,336,o),
(412,316,o),
(412,271,cs),
(412,229,o),
(384,202,o),
(321,202,cs),
(247,202,o),
(183,258,o),
(133,367,c),
(20,319,l),
(99,151,o),
(208,89,o),
(330,89,cs),
(421,89,o),
(542,126,o),
(542,272,cs),
(542,383,o),
(461,449,o),
(343,449,cs),
(302,449,o),
(259,442,o),
(211,420,c)
);
}
);
width = 829;
},
{
layerId = "C05809E0-FD9D-43C4-90EB-E9E886B1ADAB";
shapes = (
{
closed = 1;
nodes = (
(912,484,l),
(912,622,l),
(0,622,l),
(0,484,l),
(650,484,l),
(650,0,l),
(827,0,l),
(827,484,l)
);
},
{
closed = 1;
nodes = (
(748,396,l),
(711,358,o),
(670,321,o),
(593,321,cs),
(569,321,o),
(552,325,o),
(537,331,c),
(550,206,l),
(563,204,o),
(574,203,o),
(586,203,cs),
(656,203,o),
(705,220,o),
(748,248,c)
);
},
{
closed = 1;
nodes = (
(275,285,l),
(303,296,o),
(326,302,o),
(354,302,cs),
(390,302,o),
(413,289,o),
(413,255,cs),
(413,221,o),
(391,206,o),
(344,206,cs),
(272,206,o),
(206,261,o),
(155,361,c),
(14,302,l),
(95,133,o),
(227,68,o),
(351,68,cs),
(467,68,o),
(584,102,o),
(584,254,cs),
(584,374,o),
(511,440,o),
(385,440,cs),
(322,440,o),
(274,429,o),
(226,411,c)
);
}
);
width = 897;
},
{
layerId = "5CC745D4-D12D-435B-A472-7D28876E43BC";
shapes = (
{
closed = 1;
nodes = (
(513,596,l),
(513,622,l),
(0,622,l),
(0,596,l),
(398,596,l),
(398,0,l),
(424,0,l),
(424,596,l)
);
},
{
closed = 1;
nodes = (
(414,339,l),
(385,321,o),
(362,317,o),
(337,317,cs),
(325,317,o),
(316,318,o),
(308,320,c),
(309,295,l),
(319,292,o),
(329,291,o),
(338,291,cs),
(366,291,o),
(393,296,o),
(415,309,c)
);
},
{
closed = 1;
nodes = (
(134,410,l),
(159,422,o),
(183,429,o),
(209,429,cs),
(262,429,o),
(299,393,o),
(299,310,cs),
(299,232,o),
(272,185,o),
(203,185,cs),
(134,185,o),
(90,230,o),
(46,359,c),
(21,350,l),
(70,207,o),
(124,159,o),
(204,159,cs),
(276,159,o),
(325,206,o),
(325,309,cs),
(325,403,o),
(279,455,o),
(209,455,cs),
(183,455,o),
(152,447,o),
(125,434,c)
);
}
);
width = 501;
},
{
layerId = "AA2163BC-B14D-4D16-A884-99BB623F1DBF";
shapes = (
{
closed = 1;
nodes = (
(577,554,l),
(577,622,l),
(0,622,l),
(0,554,l),
(426,554,l),
(426,0,l),
(501,0,l),
(501,554,l)
);
},
{
closed = 1;
nodes = (
(485,363,l),
(447,329,o),
(420,316,o),
(382,316,cs),
(362,316,o),
(348,318,o),
(336,322,c),
(344,253,l),
(355,250,o),
(365,249,o),
(378,249,cs),
(414,249,o),
(450,254,o),
(485,270,c)
);
},
{
closed = 1;
nodes = (
(161,362,l),
(183,372,o),
(203,378,o),
(225,378,cs),
(268,378,o),
(294,350,o),
(294,288,cs),
(294,228,o),
(272,191,o),
(221,191,cs),
(161,191,o),
(124,242,o),
(87,356,c),
(21,333,l),
(74,178,o),
(137,121,o),
(224,121,cs),
(296,121,o),
(366,158,o),
(366,288,cs),
(366,390,o),
(317,447,o),
(231,447,cs),
(197,447,o),
(167,440,o),
(136,427,c)
);
}
);
width = 565;
},
{
layerId = "9A082071-1CDF-4F9E-B116-82A287035C9D";
shapes = (
{
closed = 1;
nodes = (
(662,514,l),
(662,622,l),
(0,622,l),
(0,514,l),
(471,514,l),
(471,0,l),
(592,0,l),
(592,514,l)
);
},
{
closed = 1;
nodes = (
(541,367,l),
(503,335,o),
(468,320,o),
(432,320,cs),
(410,320,o),
(397,322,o),
(386,326,c),
(395,227,l),
(405,224,o),
(416,223,o),
(429,223,cs),
(470,223,o),
(502,231,o),
(538,249,c)
);
},
{
closed = 1;
nodes = (
(196,323,l),
(213,330,o),
(230,335,o),
(248,335,cs),
(283,335,o),
(302,312,o),
(302,268,cs),
(302,226,o),
(285,200,o),
(245,200,cs),
(196,200,o),
(162,240,o),
(124,356,c),
(17,322,l),
(73,158,o),
(149,91,o),
(252,91,cs),
(344,91,o),
(419,133,o),
(419,268,cs),
(419,376,o),
(369,444,o),
(264,444,cs),
(227,444,o),
(191,434,o),
(159,421,c)
);
}
);
width = 650;
},
{
layerId = "6EDA54BC-5413-4E6E-9D6B-A24A39A704A7";
shapes = (
{
closed = 1;
nodes = (
(715,489,l),
(715,622,l),
(0,622,l),
(0,489,l),
(499,489,l),
(499,0,l),
(649,0,l),
(649,489,l)
);
},
{
closed = 1;
nodes = (
(576,369,l),
(538,338,o),
(499,322,o),
(464,322,cs),
(441,322,o),
(429,325,o),
(418,329,c),
(428,210,l),
(437,208,o),
(448,207,o),
(461,207,cs),
(506,207,o),
(536,217,o),
(572,236,c)
);
},
{
closed = 1;
nodes = (
(218,298,l),
(232,304,o),
(248,308,o),
(263,308,cs),
(293,308,o),
(307,288,o),
(307,256,cs),
(307,224,o),
(293,206,o),
(261,206,cs),
(219,206,o),
(186,239,o),
(148,356,c),
(15,315,l),
(73,145,o),
(157,72,o),
(270,72,cs),
(374,72,o),
(453,117,o),
(453,255,cs),
(453,368,o),
(402,442,o),
(286,442,cs),
(247,442,o),
(206,431,o),
(174,418,c)
);
}
);
width = 703;
}
);
subCategory = Other;
unicode = 2334;
}
{
category = Letter;
glyphname = ttadeva;
layers = (
{
anchors = (
{
name = Anchor2;
pos = (295,622);
},
{
name = Anchor6;
pos = (296,0);
},
{
name = Anchor8;
pos = (254,0);
}
);
layerId = "B871EA9A-50AC-43A6-961C-B7EB8764AD7C";
shapes = (
{
closed = 1;
nodes = (
(489,622,l),
(0,622,l),
(0,596,l),
(295,596,l),
(295,419,l),
(299,422,l),
(296,422,ls),
(156,422,o),
(54,348,o),
(54,219,cs),
(54,81,o),
(145,0,o),
(272,0,cs),
(340,0,o),
(396,16,o),
(450,43,c),
(441,68,l),
(381,38,o),
(339,26,o),
(273,26,cs),
(161,26,o),
(81,93,o),
(81,219,cs),
(81,274,o),
(102,320,o),
(142,351,cs),
(181,381,o),
(227,396,o),
(304,396,cs),
(321,396,l),
(321,596,l),
(489,596,l)
);
}
);
width = 474;
},
{
anchors = (
{
name = Anchor2;
pos = (290,622);
},
{
name = Anchor6;
pos = (290,0);
},
{
name = Anchor8;
pos = (277,0);
}
);
layerId = "6C7CC43D-04A1-4971-B3B5-A41D54964AD2";
shapes = (
{
closed = 1;
nodes = (
(519,622,l),
(0,622,l),
(0,551,l),
(290,551,l),
(290,416,l),
(293,420,l),
(288,420,ls),
(161,420,o),
(46,350,o),
(46,220,cs),
(46,80,o),
(148,0,o),
(286,0,cs),
(356,0,o),
(423,20,o),
(482,47,c),
(455,121,l),
(399,92,o),
(355,74,o),
(283,74,cs),
(199,74,o),
(126,118,o),
(126,215,cs),
(126,259,o),
(146,294,o),
(181,318,cs),
(211,338,o),
(252,349,o),
(316,349,cs),
(371,349,l),
(371,551,l),
(519,551,l)
);
}
);
width = 504;
},
{
anchors = (
{
name = Anchor2;
pos = (280,622);
},
{
name = Anchor6;
pos = (280,0);
},
{
name = Anchor8;
pos = (275,0);
}
);
layerId = UUID0;
shapes = (
{
closed = 1;
nodes = (
(555,622,l),
(0,622,l),
(0,512,l),
(280,512,l),
(280,430,l),
(304,435,l),
(297,435,l),
(150,435,o),
(36,362,o),
(36,227,cs),
(36,83,o),
(148,0,o),
(305,0,cs),
(399,0,o),
(460,20,o),
(523,49,c),
(481,161,l),
(427,130,o),
(374,114,o),
(308,114,cs),
(229,114,o),
(170,145,o),
(170,221,cs),
(170,257,o),
(184,284,o),
(217,303,cs),
(243,318,o),
(275,327,o),
(346,327,cs),
(414,327,l),
(414,512,l),
(555,512,l)
);
}
);
width = 541;
},
{
anchors = (
{
name = Anchor2;
pos = (268,622);
},
{
name = Anchor6;
pos = (258,0);
},
{
name = Anchor8;
pos = (281,0);
}
);
layerId = "C05809E0-FD9D-43C4-90EB-E9E886B1ADAB";
shapes = (
{
closed = 1;
nodes = (
(574,622,l),
(0,622,l),
(0,484,l),
(268,484,l),
(268,423,l),
(298,432,l),
(291,432,l),
(146,432,o),
(28,367,o),
(28,227,cs),
(28,82,o),
(144,0,o),
(310,0,cs),
(391,0,o),
(477,19,o),
(547,51,c),
(495,188,l),
(447,160,o),
(388,140,o),
(324,140,cs),
(254,140,o),
(206,164,o),
(206,223,cs),
(206,248,o),
(219,269,o),
(241,281,cs),
(263,293,o),
(291,299,o),
(361,299,cs),
(443,299,l),
(443,484,l),
(574,484,l)
);
}
);
width = 559;
},
{
anchors = (
{
name = Anchor2;
pos = (219,622);
},
{
name = Anchor6;
pos = (220,0);
},
{
name = Anchor8;
pos = (193,0);
}
);
layerId = "5CC745D4-D12D-435B-A472-7D28876E43BC";
shapes = (
{
closed = 1;
nodes = (
(371,622,l),
(0,622,l),
(0,596,l),
(219,596,l),
(219,415,l),
(238,422,l),
(234,422,l),
(124,422,o),
(44,349,o),
(44,215,cs),
(44,73,o),
(111,0,o),
(209,0,cs),
(259,0,o),
(302,12,o),
(340,36,c),
(329,61,l),
(290,37,o),
(258,26,o),
(210,26,cs),
(126,26,o),
(71,86,o),
(71,216,cs),
(71,271,o),
(88,319,o),
(118,351,cs),
(145,380,o),
(181,396,o),
(236,396,cs),
(245,396,l),
(245,596,l),
(371,596,l)
);
}
);
width = 359;
},
{
anchors = (
{
name = Anchor2;
pos = (208,622);
},
{
name = Anchor6;
pos = (208,0);
},
{
name = Anchor8;
pos = (201,0);
}
);
layerId = "AA2163BC-B14D-4D16-A884-99BB623F1DBF";
shapes = (
{
closed = 1;
nodes = (
(391,622,l),
(0,622,l),
(0,554,l),
(208,554,l),
(208,413,l),
(240,418,l),
(230,418,l),
(127,418,o),
(33,346,o),
(33,212,cs),
(33,72,o),
(116,0,o),
(225,0,cs),
(275,0,o),
(325,13,o),
(370,38,c),
(342,106,l),
(299,83,o),
(269,71,o),
(224,71,cs),
(164,71,o),
(108,106,o),
(108,210,cs),
(108,261,o),
(129,296,o),
(151,315,cs),
(180,341,o),
(222,352,o),
(268,352,cs),
(283,352,l),
(283,554,l),
(391,554,l)
);
}
);
width = 379;
},
{
anchors = (
{
name = Anchor2;
pos = (202,622);
},
{
name = Anchor6;
pos = (210,0);
},
{
name = Anchor8;
pos = (210,0);
}
);
layerId = "9A082071-1CDF-4F9E-B116-82A287035C9D";
shapes = (
{
closed = 1;
nodes = (
(424,622,l),
(0,622,l),
(0,514,l),
(202,514,l),
(202,419,l),
(252,428,l),
(239,428,l),
(130,428,o),
(28,358,o),
(28,217,cs),
(28,78,o),
(114,0,o),
(238,0,cs),
(297,0,o),
(350,12,o),
(402,39,c),
(362,145,l),
(320,122,o),
(289,110,o),
(246,110,cs),
(194,110,o),
(150,139,o),
(150,214,cs),
(150,253,o),
(166,279,o),
(187,295,cs),
(213,315,o),
(254,322,o),
(307,322,cs),
(322,322,l),
(322,514,l),
(424,514,l)
);
}
);
width = 412;
},
{
anchors = (
{
name = Anchor2;
pos = (198,622);
},
{
name = Anchor6;
pos = (211,0);
},
{
name = Anchor8;
pos = (216,0);
}
);
layerId = "6EDA54BC-5413-4E6E-9D6B-A24A39A704A7";
shapes = (
{
closed = 1;
nodes = (
(444,622,l),
(0,622,l),
(0,489,l),
(198,489,l),
(198,422,l),
(257,434,l),
(244,434,l),
(132,434,o),
(25,366,o),
(25,220,cs),
(25,82,o),
(113,0,o),
(246,0,cs),
(311,0,o),
(365,12,o),
(422,40,c),
(375,169,l),
(333,146,o),
(302,135,o),
(260,135,cs),
(212,135,o),
(177,160,o),
(177,216,cs),
(177,248,o),
(190,269,o),
(209,282,cs),
(234,299,o),
(269,303,o),
(321,303,cs),
(346,303,l),
(346,489,l),
(444,489,l)
);
}
);
width = 432;
}
);
subCategory = Other;
unicode = 2335;
}
{
category = Letter;
glyphname = tthadeva;
layers = (
{
anchors = (
{
name = Anchor2;
pos = (295,622);
},
{
name = Anchor6;
pos = (325,0);
},
{
name = Anchor8;
pos = (274,0);
}
);
layerId = "B871EA9A-50AC-43A6-961C-B7EB8764AD7C";
shapes = (
{
closed = 1;
nodes = (
(564,622,l),
(0,622,l),
(0,596,l),
(295,596,l),
(295,416,l),
(300,422,l),
(296,422,ls),
(158,422,o),
(54,348,o),
(54,219,cs),
(54,81,o),
(145,0,o),
(275,0,cs),
(397,0,o),
(495,62,o),
(495,200,cs),
(495,293,o),
(441,372,o),
(321,420,c),
(321,596,l),
(564,596,l)
);
},
{
closed = 1;
nodes = (
(159,26,o),
(81,93,o),
(81,214,cs),
(81,274,o),
(102,320,o),
(142,351,cs),
(181,381,o),
(227,396,o),
(304,396,cs),
(313,396,l),
(415,358,o),
(469,280,o),
(469,200,cs),
(469,79,o),
(385,26,o),
(275,26,cs)
);
}
);
width = 549;
},
{
anchors = (
{
name = Anchor2;
pos = (290,622);
},
{
name = Anchor6;
pos = (322,0);
},
{
name = Anchor8;
pos = (292,0);
}
);
layerId = "6C7CC43D-04A1-4971-B3B5-A41D54964AD2";
shapes = (
{
closed = 1;
nodes = (
(600,622,l),
(0,622,l),
(0,551,l),
(290,551,l),
(290,415,l),
(294,420,l),
(287,420,ls),
(162,420,o),
(46,350,o),
(46,216,cs),
(46,78,o),
(146,0,o),
(297,0,cs),
(429,0,o),
(539,58,o),
(539,198,cs),
(539,295,o),
(477,374,o),
(371,414,c),
(371,551,l),
(600,551,l)
);
},
{
closed = 1;
nodes = (
(197,72,o),
(126,117,o),
(126,210,cs),
(126,262,o),
(149,298,o),
(187,321,cs),
(217,339,o),
(259,349,o),
(308,349,cs),
(343,349,l),
(419,317,o),
(458,264,o),
(458,200,cs),
(458,111,o),
(388,72,o),
(293,72,cs)
);
}
);
width = 585;
},
{
anchors = (
{
name = Anchor2;
pos = (280,622);
},
{
name = Anchor6;
pos = (290,0);
},
{
name = Anchor8;
pos = (309,0);
}
);
layerId = UUID0;
shapes = (
{
closed = 1;
nodes = (
(632,622,l),
(0,622,l),
(0,512,l),
(280,512,l),
(280,414,l),
(315,435,l),
(301,435,l),
(149,435,o),
(36,363,o),
(36,226,cs),
(36,75,o),
(150,0,o),
(315,0,cs),
(459,0,o),
(582,57,o),
(582,201,cs),
(582,296,o),
(524,384,o),
(414,425,c),
(414,512,l),
(632,512,l)
);
},
{
closed = 1;
nodes = (
(229,112,o),
(170,146,o),
(170,220,cs),
(170,257,o),
(184,284,o),
(217,303,cs),
(243,318,o),
(275,327,o),
(346,327,cs),
(351,327,l),
(416,302,o),
(448,260,o),
(448,210,cs),
(448,141,o),
(391,112,o),
(310,112,cs)
);
}
);
width = 618;
},
{
anchors = (
{
name = Anchor2;
pos = (268,622);
},
{
name = Anchor6;
pos = (292,0);
},
{
name = Anchor8;
pos = (315,0);
}
);
layerId = "C05809E0-FD9D-43C4-90EB-E9E886B1ADAB";
shapes = (
{
closed = 1;
nodes = (
(646,622,l),
(0,622,l),
(0,484,l),
(268,484,l),
(268,410,l),
(306,432,l),
(291,432,l),
(146,432,o),
(28,367,o),
(28,229,cs),
(28,86,o),
(140,0,o),
(323,0,cs),
(492,0,o),
(605,58,o),
(605,208,cs),
(605,294,o),
(558,372,o),
(443,421,c),
(443,484,l),
(646,484,l)
);
},
{
closed = 1;
nodes = (
(251,139,o),
(206,167,o),
(206,223,cs),
(206,248,o),
(219,269,o),
(241,281,cs),
(263,293,o),
(291,299,o),
(361,299,cs),
(371,299,l),
(407,280,o),
(427,251,o),
(427,212,cs),
(427,163,o),
(388,139,o),
(315,139,cs)
);
}
);
width = 631;
},
{
anchors = (
{
name = Anchor2;
pos = (219,622);
},
{
name = Anchor6;
pos = (241,0);
},
{
name = Anchor8;
pos = (207,0);
}
);
layerId = "5CC745D4-D12D-435B-A472-7D28876E43BC";
shapes = (
{
closed = 1;
nodes = (
(427,622,l),
(0,622,l),
(0,596,l),
(219,596,l),
(219,419,l),
(227,421,l),
(224,421,ls),
(127,421,o),
(44,349,o),
(44,216,cs),
(44,81,o),
(108,0,o),
(208,0,cs),
(301,0,o),
(370,61,o),
(370,197,cs),
(370,293,o),
(332,375,o),
(245,420,c),
(245,596,l),
(427,596,l)
);
},
{
closed = 1;
nodes = (
(124,26,o),
(71,93,o),
(71,214,cs),
(71,274,o),
(89,319,o),
(118,351,cs),
(145,381,o),
(183,396,o),
(231,396,cs),
(236,396,l),
(309,361,o),
(343,282,o),
(343,197,cs),
(343,77,o),
(287,26,o),
(207,26,cs)
);
}
);
width = 415;
},
{
anchors = (
{
name = Anchor2;
pos = (208,622);
},
{
name = Anchor6;
pos = (224,0);
},
{
name = Anchor8;
pos = (218,0);
}
);
layerId = "AA2163BC-B14D-4D16-A884-99BB623F1DBF";
shapes = (
{
closed = 1;
nodes = (
(448,622,l),
(0,622,l),
(0,554,l),
(208,554,l),
(208,413,l),
(246,418,l),
(237,418,l),
(127,418,o),
(33,346,o),
(33,208,cs),
(33,76,o),
(111,0,o),
(222,0,cs),
(326,0,o),
(403,58,o),
(403,193,cs),
(403,290,o),
(360,364,o),
(283,410,c),
(283,554,l),
(448,554,l)
);
},
{
closed = 1;
nodes = (
(160,70,o),
(108,106,o),
(108,205,cs),
(108,263,o),
(128,297,o),
(150,316,cs),
(181,343,o),
(219,352,o),
(262,352,c),
(245,352,l),
(298,322,o),
(328,260,o),
(328,196,cs),
(328,111,o),
(285,70,o),
(218,70,cs)
);
}
);
width = 436;
},
{
anchors = (
{
name = Anchor2;
pos = (201,622);
},
{
name = Anchor6;
pos = (225,0);
},
{
name = Anchor8;
pos = (232,0);
}
);
layerId = "9A082071-1CDF-4F9E-B116-82A287035C9D";
shapes = (
{
closed = 1;
nodes = (
(476,622,l),
(0,622,l),
(0,514,l),
(201,514,l),
(201,412,l),
(272,428,l),
(241,428,l),
(130,428,o),
(28,358,o),
(28,216,cs),
(28,80,o),
(110,0,o),
(239,0,cs),
(356,0,o),
(438,62,o),
(438,200,cs),
(438,292,o),
(399,368,o),
(321,418,c),
(321,514,l),
(476,514,l)
);
},
{
closed = 1;
nodes = (
(191,109,o),
(149,136,o),
(149,209,cs),
(149,255,o),
(165,281,o),
(187,297,cs),
(209,314,o),
(237,322,o),
(276,323,c),
(261,323,l),
(296,298,o),
(319,253,o),
(319,203,cs),
(319,140,o),
(288,109,o),
(234,109,cs)
);
}
);
width = 464;
},
{
anchors = (
{
name = Anchor2;
pos = (197,622);
},
{
name = Anchor6;
pos = (225,0);
},
{
name = Anchor8;
pos = (240,0);
}
);
layerId = "6EDA54BC-5413-4E6E-9D6B-A24A39A704A7";
shapes = (
{
closed = 1;
nodes = (
(494,622,l),
(0,622,l),
(0,489,l),
(197,489,l),
(197,411,l),
(270,434,l),
(244,434,l),
(132,434,o),
(25,365,o),
(25,221,cs),
(25,83,o),
(110,0,o),
(249,0,cs),
(375,0,o),
(460,64,o),
(460,204,cs),
(460,293,o),
(424,371,o),
(345,423,c),
(345,489,l),
(494,489,l)
);
},
{
closed = 1;
nodes = (
(210,133,o),
(175,154,o),
(175,211,cs),
(175,250,o),
(188,271,o),
(210,285,cs),
(227,296,o),
(249,303,o),
(285,304,c),
(272,304,l),
(295,283,o),
(313,248,o),
(313,208,cs),
(313,158,o),
(287,133,o),
(245,133,cs)
);
}
);
width = 482;
}
);
subCategory = Other;
unicode = 2336;
}
{
category = Letter;
glyphname = ddadeva;
layers = (
{
anchors = (
{
name = Anchor2;
pos = (412,622);
},
{
name = Anchor6;
pos = (334,0);
},
{
name = Anchor8;
pos = (292,0);
}
);
layerId = "B871EA9A-50AC-43A6-961C-B7EB8764AD7C";
shapes = (
{
closed = 1;
nodes = (
(414,251,o),
(470,218,o),
(470,140,cs),
(470,72,o),
(423,26,o),
(319,26,cs),
(219,26,o),
(128,69,o),
(52,168,c),
(30,152,l),
(102,64,o),
(189,0,o),
(320,0,cs),
(440,0,o),
(497,62,o),
(497,139,cs),
(497,224,o),
(438,277,o),
(348,277,cs),
(295,277,o),
(260,267,o),
(229,253,c),
(199,272,o),
(163,310,o),
(163,356,cs),
(163,377,o),
(167,394,o),
(177,406,cs),
(195,429,o),
(225,438,o),
(277,438,cs),
(438,438,l),
(438,596,l),
(563,596,l),
(563,622,l),
(0,622,l),
(0,596,l),
(412,596,l),
(412,464,l),
(283,464,ls),
(206,464,o),
(175,447,o),
(154,419,cs),
(142,403,o),
(136,385,o),
(136,359,cs),
(136,294,o),
(182,253,o),
(226,224,c),
(265,245,o),
(304,251,o),
(348,251,cs)
);
}
);
width = 548;
},
{
anchors = (
{
name = Anchor2;
pos = (401,622);
},
{
name = Anchor6;
pos = (330,0);
},
{
name = Anchor8;
pos = (316,0);
}
);
layerId = "6C7CC43D-04A1-4971-B3B5-A41D54964AD2";
shapes = (
{
closed = 1;
nodes = (
(419,222,o),
(453,198,o),
(453,152,cs),
(453,102,o),
(415,74,o),
(337,74,cs),
(237,74,o),
(162,116,o),
(86,207,c),
(25,158,l),
(104,65,o),
(206,0,o),
(337,0,cs),
(469,0,o),
(534,64,o),
(534,154,cs),
(534,240,o),
(461,294,o),
(362,294,cs),
(327,294,o),
(291,288,o),
(261,277,c),
(239,294,o),
(217,315,o),
(217,347,cs),
(217,361,o),
(222,373,o),
(232,381,cs),
(244,390,o),
(257,394,o),
(298,394,cs),
(482,394,l),
(482,551,l),
(592,551,l),
(592,622,l),
(0,622,l),
(0,551,l),
(401,551,l),
(401,465,l),
(308,465,ls),
(242,465,o),
(204,456,o),
(174,433,cs),
(151,416,o),
(137,389,o),
(137,352,cs),
(137,284,o),
(185,234,o),
(248,197,c),
(279,212,o),
(319,222,o),
(358,222,cs)
);
}
);
width = 577;
},
{
anchors = (
{
name = Anchor2;
pos = (395,622);
},
{
name = Anchor6;
pos = (316,0);
},
{
name = Anchor8;
pos = (342,0);
}
);
layerId = UUID0;
shapes = (
{
closed = 1;
nodes = (
(428,200,o),
(446,184,o),
(446,160,cs),
(446,133,o),
(421,112,o),
(357,112,cs),
(254,112,o),
(183,159,o),
(112,232,c),
(14,155,l),
(90,72,o),
(203,0,o),
(361,0,cs),
(511,0,o),
(581,67,o),
(581,154,cs),
(581,246,o),
(514,304,o),
(394,304,cs),
(351,304,o),
(319,300,o),
(291,292,c),
(280,303,o),
(272,314,o),
(272,329,cs),
(272,340,o),
(276,346,o),
(284,351,c),
(291,355,o),
(299,357,o),
(321,357,cs),
(529,357,l),
(529,512,l),
(632,512,l),
(632,622,l),
(0,622,l),
(0,512,l),
(395,512,l),
(395,456,l),
(331,456,ls),
(247,456,o),
(211,446,o),
(179,421,cs),
(156,402,o),
(141,374,o),
(141,333,cs),
(141,266,o),
(202,203,o),
(261,177,c),
(298,193,o),
(339,200,o),
(374,200,cs)
);
}
);
width = 618;
},
{
anchors = (
{
name = Anchor2;
pos = (396,622);
},
{
name = Anchor6;
pos = (317,0);
},
{
name = Anchor8;
pos = (363,0);
}
);
layerId = "C05809E0-FD9D-43C4-90EB-E9E886B1ADAB";
shapes = (
{
closed = 1;
nodes = (
(429,181,o),
(443,174,o),
(443,158,cs),
(443,139,o),
(423,129,o),
(366,129,cs),
(265,129,o),
(188,178,o),
(123,241,c),
(11,141,l),
(85,72,o),
(215,0,o),
(376,0,cs),
(561,0,o),
(624,67,o),
(624,155,cs),
(624,238,o),
(561,299,o),
(429,299,cs),
(384,299,o),
(362,295,o),
(333,290,c),
(324,299,o),
(318,307,o),
(318,317,cs),
(318,322,o),
(319,324,o),
(322,327,cs),
(326,331,o),
(333,333,o),
(346,333,cs),
(570,333,l),
(570,484,l),
(667,484,l),
(667,622,l),
(0,622,l),
(0,484,l),
(396,484,l),
(396,444,l),
(348,444,ls),
(249,444,o),
(215,436,o),
(183,409,cs),
(155,386,o),
(145,358,o),
(145,325,cs),
(145,254,o),
(211,196,o),
(277,166,c),
(310,175,o),
(353,181,o),
(383,181,cs)
);
}
);
width = 652;
},
{
anchors = (
{
name = Anchor2;
pos = (303,622);
},
{
name = Anchor6;
pos = (247,0);
},
{
name = Anchor8;
pos = (220,0);
}
);
layerId = "5CC745D4-D12D-435B-A472-7D28876E43BC";
shapes = (
{
closed = 1;
nodes = (
(303,251,o),
(344,218,o),
(344,142,cs),
(344,69,o),
(308,26,o),
(233,26,cs),
(151,26,o),
(89,82,o),
(41,163,c),
(18,149,l),
(72,62,o),
(139,0,o),
(234,0,cs),
(328,0,o),
(371,59,o),
(371,142,cs),
(371,224,o),
(325,277,o),
(247,277,cs),
(223,277,o),
(200,272,o),
(180,264,c),
(159,286,o),
(129,321,o),
(129,367,cs),
(129,390,o),
(134,406,o),
(145,418,cs),
(159,432,o),
(177,438,o),
(217,438,cs),
(329,438,l),
(329,596,l),
(424,596,l),
(424,622,l),
(0,622,l),
(0,596,l),
(303,596,l),
(303,464,l),
(223,464,ls),
(167,464,o),
(143,454,o),
(125,435,cs),
(109,418,o),
(102,395,o),
(102,369,cs),
(102,313,o),
(140,264,o),
(173,235,c),
(198,246,o),
(221,251,o),
(248,251,cs)
);
}
);
width = 412;
},
{
anchors = (
{
name = Anchor2;
pos = (288,622);
},
{
name = Anchor6;
pos = (235,0);
},
{
name = Anchor8;
pos = (238,0);
}
);
layerId = "AA2163BC-B14D-4D16-A884-99BB623F1DBF";
shapes = (
{
closed = 1;
nodes = (
(303,225,o),
(325,193,o),
(325,147,cs),
(325,94,o),
(294,70,o),
(239,70,cs),
(170,70,o),
(128,110,o),
(76,190,c),
(15,150,l),
(75,55,o),
(146,0,o),
(244,0,cs),
(349,0,o),
(400,63,o),
(400,144,cs),
(400,234,o),
(350,293,o),
(263,293,cs),
(245,293,o),
(221,290,o),
(200,283,c),
(184,304,o),
(172,326,o),
(172,354,cs),
(172,365,o),
(175,377,o),
(181,383,cs),
(190,393,o),
(203,397,o),
(230,397,cs),
(363,397,l),
(363,554,l),
(445,554,l),
(445,622,l),
(0,622,l),
(0,554,l),
(288,554,l),
(288,465,l),
(245,465,ls),
(180,465,o),
(151,452,o),
(129,431,cs),
(110,413,o),
(99,388,o),
(99,356,cs),
(99,293,o),
(140,245,o),
(177,208,c),
(203,219,o),
(226,225,o),
(250,225,cs)
);
}
);
width = 433;
},
{
anchors = (
{
name = Anchor2;
pos = (294,622);
},
{
name = Anchor6;
pos = (238,0);
},
{
name = Anchor8;
pos = (266,0);
}
);
layerId = "9A082071-1CDF-4F9E-B116-82A287035C9D";
shapes = (
{
closed = 1;
nodes = (
(315,200,o),
(331,182,o),
(331,154,cs),
(331,120,o),
(310,106,o),
(267,106,cs),
(200,106,o),
(153,143,o),
(94,207,c),
(12,125,l),
(77,54,o),
(159,0,o),
(272,0,cs),
(398,0,o),
(452,65,o),
(452,150,cs),
(452,235,o),
(403,297,o),
(300,297,cs),
(279,297,o),
(260,295,o),
(240,289,c),
(230,303,o),
(224,316,o),
(224,333,cs),
(224,340,o),
(226,347,o),
(230,351,c),
(236,357,o),
(244,360,o),
(266,360,cs),
(413,360,l),
(413,514,l),
(491,514,l),
(491,622,l),
(0,622,l),
(0,514,l),
(294,514,l),
(294,453,l),
(262,453,ls),
(192,453,o),
(161,439,o),
(140,419,cs),
(118,399,o),
(107,370,o),
(107,338,cs),
(107,275,o),
(146,225,o),
(192,185,c),
(216,194,o),
(242,200,o),
(272,200,cs)
);
}
);
width = 479;
},
{
anchors = (
{
name = Anchor2;
pos = (298,622);
},
{
name = Anchor6;
pos = (240,0);
},
{
name = Anchor8;
pos = (284,0);
}
);
layerId = "6EDA54BC-5413-4E6E-9D6B-A24A39A704A7";
shapes = (
{
closed = 1;
nodes = (
(323,185,o),
(335,175,o),
(335,157,cs),
(335,136,o),
(320,129,o),
(284,129,cs),
(218,129,o),
(169,163,o),
(105,218,c),
(10,110,l),
(79,54,o),
(167,0,o),
(290,0,cs),
(428,0,o),
(485,67,o),
(485,154,cs),
(485,236,o),
(436,300,o),
(323,300,cs),
(301,300,o),
(284,298,o),
(265,294,c),
(259,303,o),
(256,310,o),
(256,320,cs),
(256,325,o),
(258,329,o),
(260,331,cs),
(265,336,o),
(270,337,o),
(288,337,cs),
(444,337,l),
(444,489,l),
(520,489,l),
(520,622,l),
(0,622,l),
(0,489,l),
(298,489,l),
(298,446,l),
(273,446,ls),
(199,446,o),
(168,431,o),
(147,412,cs),
(123,391,o),
(112,361,o),
(112,326,cs),
(112,266,o),
(150,215,o),
(201,174,c),
(224,180,o),
(254,185,o),
(285,185,cs)
);
}
);
width = 508;
}
);
subCategory = Other;
unicode = 2337;
}
{
category = Letter;
glyphname = nnadeva;
layers = (
{
layerId = "B871EA9A-50AC-43A6-961C-B7EB8764AD7C";
shapes = (
{
closed = 1;
nodes = (
(665,596,l),
(665,622,l),
(0,622,l),
(0,596,l),
(90,596,l),
(90,344,ls),
(90,274,o),
(109,225,o),
(150,199,cs),
(171,186,o),
(200,179,o),
(228,179,cs),
(265,179,o),
(293,187,o),
(314,203,cs),
(354,231,o),
(368,277,o),
(368,343,cs),
(368,596,l),
(524,596,l),
(524,0,l),
(550,0,l),
(550,596,l)
);
},
{
closed = 1;
nodes = (
(198,205,o),
(176,213,o),
(161,223,cs),
(123,247,o),
(116,294,o),
(116,360,cs),
(116,596,l),
(342,596,l),
(342,360,ls),
(342,300,o),
(336,249,o),
(298,223,cs),
(282,211,o),
(259,205,o),
(228,205,cs)
);
}
);
width = 650;
},
{
layerId = "6C7CC43D-04A1-4971-B3B5-A41D54964AD2";
shapes = (
{
closed = 1;
nodes = (
(737,551,l),
(737,622,l),
(0,622,l),
(0,551,l),
(79,551,l),
(79,352,ls),
(79,280,o),
(91,236,o),
(114,205,cs),
(143,166,o),
(188,146,o),
(251,146,cs),
(313,146,o),
(357,165,o),
(385,198,cs),
(409,228,o),
(420,265,o),
(420,321,cs),
(420,551,l),
(553,551,l),
(553,0,l),
(634,0,l),
(634,551,l)
);
},
{
closed = 1;
nodes = (
(213,217,o),
(192,229,o),
(178,251,cs),
(164,273,o),
(160,301,o),
(160,353,cs),
(160,551,l),
(339,551,l),
(339,353,ls),
(339,295,o),
(335,271,o),
(321,249,cs),
(307,227,o),
(284,217,o),
(249,217,cs)
);
}
);
width = 723;
},
{
layerId = UUID0;
shapes = (
{
closed = 1;
nodes = (
(812,512,l),
(812,622,l),
(0,622,l),
(0,512,l),
(68,512,l),
(68,346,ls),
(68,257,o),
(83,214,o),
(109,180,cs),
(143,138,o),
(197,117,o),
(271,117,cs),
(345,117,o),
(398,137,o),
(431,173,cs),
(459,205,o),
(473,241,o),
(473,315,cs),
(473,512,l),
(584,512,l),
(584,0,l),
(718,0,l),
(718,512,l)
);
},
{
closed = 1;
nodes = (
(243,227,o),
(226,236,o),
(215,254,cs),
(206,271,o),
(202,286,o),
(202,333,cs),
(202,512,l),
(339,512,l),
(339,333,ls),
(339,284,o),
(336,269,o),
(325,251,cs),
(314,234,o),
(296,227,o),
(270,227,cs)
);
}
);
width = 798;
},
{
layerId = "C05809E0-FD9D-43C4-90EB-E9E886B1ADAB";
shapes = (
{
closed = 1;
nodes = (
(871,484,l),
(871,622,l),
(0,622,l),
(0,484,l),
(59,484,l),
(59,338,ls),
(59,244,o),
(75,203,o),
(105,169,cs),
(144,124,o),
(204,103,o),
(289,103,cs),
(379,103,o),
(436,122,o),
(470,162,cs),
(499,196,o),
(516,232,o),
(516,328,cs),
(516,484,l),
(609,484,l),
(609,0,l),
(786,0,l),
(786,484,l)
);
},
{
closed = 1;
nodes = (
(268,241,o),
(254,247,o),
(246,260,cs),
(238,273,o),
(236,289,o),
(236,323,cs),
(236,484,l),
(339,484,l),
(339,323,ls),
(339,289,o),
(336,270,o),
(325,256,cs),
(317,246,o),
(304,241,o),
(287,241,cs)
);
}
);
width = 856;
},
{
layerId = "5CC745D4-D12D-435B-A472-7D28876E43BC";
shapes = (
{
closed = 1;
nodes = (
(504,596,l),
(504,622,l),
(0,622,l),
(0,596,l),
(70,596,l),
(70,329,ls),
(70,278,o),
(79,242,o),
(98,219,cs),
(114,199,o),
(139,186,o),
(174,186,cs),
(202,186,o),
(224,195,o),
(240,208,cs),
(270,234,o),
(279,271,o),
(279,328,cs),
(279,596,l),
(389,596,l),
(389,0,l),
(415,0,l),
(415,596,l)
);
},
{
closed = 1;
nodes = (
(148,212,o),
(131,220,o),
(119,234,cs),
(104,252,o),
(96,281,o),
(96,332,cs),
(96,596,l),
(253,596,l),
(253,332,ls),
(253,280,o),
(248,248,o),
(224,228,cs),
(212,218,o),
(195,212,o),
(173,212,cs)
);
}
);
width = 492;
},
{
layerId = "AA2163BC-B14D-4D16-A884-99BB623F1DBF";
shapes = (
{
closed = 1;
nodes = (
(560,554,l),
(560,622,l),
(0,622,l),
(0,554,l),
(57,554,l),
(57,314,ls),
(57,259,o),
(67,226,o),
(85,202,cs),
(107,171,o),
(143,154,o),
(190,154,cs),
(237,154,o),
(270,167,o),
(291,193,cs),
(310,216,o),
(321,246,o),
(321,305,cs),
(321,554,l),
(409,554,l),
(409,0,l),
(484,0,l),
(484,554,l)
);
},
{
closed = 1;
nodes = (
(164,222,o),
(150,232,o),
(142,248,cs),
(135,262,o),
(132,281,o),
(132,312,cs),
(132,554,l),
(246,554,l),
(246,317,ls),
(246,270,o),
(241,254,o),
(234,243,cs),
(225,229,o),
(210,222,o),
(188,222,cs)
);
}
);
width = 548;
},
{
layerId = "9A082071-1CDF-4F9E-B116-82A287035C9D";
shapes = (
{
closed = 1;
nodes = (
(634,514,l),
(634,622,l),
(0,622,l),
(0,514,l),
(51,514,l),
(51,316,ls),
(51,249,o),
(63,210,o),
(90,178,cs),
(116,146,o),
(158,128,o),
(213,128,cs),
(274,128,o),
(314,144,o),
(340,175,cs),
(363,204,o),
(373,244,o),
(373,311,cs),
(373,514,l),
(443,514,l),
(443,0,l),
(565,0,l),
(565,514,l)
);
},
{
closed = 1;
nodes = (
(196,235,o),
(187,240,o),
(181,250,cs),
(174,262,o),
(172,278,o),
(172,307,cs),
(172,514,l),
(252,514,l),
(252,308,ls),
(252,276,o),
(249,260,o),
(242,249,cs),
(236,240,o),
(226,235,o),
(211,235,cs)
);
}
);
width = 622;
},
{
layerId = "6EDA54BC-5413-4E6E-9D6B-A24A39A704A7";
shapes = (
{
closed = 1;
nodes = (
(681,489,l),
(681,622,l),
(0,622,l),
(0,489,l),
(47,489,l),
(47,317,ls),
(47,243,o),
(61,200,o),
(93,163,cs),
(122,130,o),
(167,111,o),
(228,111,cs),
(298,111,o),
(342,130,o),
(370,164,cs),
(397,197,o),
(406,242,o),
(406,314,cs),
(406,489,l),
(465,489,l),
(465,0,l),
(615,0,l),
(615,489,l)
);
},
{
closed = 1;
nodes = (
(216,243,o),
(209,247,o),
(205,253,cs),
(197,264,o),
(197,282,o),
(197,304,cs),
(197,489,l),
(256,489,l),
(256,303,ls),
(256,280,o),
(254,263,o),
(247,253,cs),
(243,247,o),
(236,243,o),
(226,243,cs)
);
}
);
width = 669;
}
);
subCategory = Other;
unicode = 2339;
}
{
category = Letter;
glyphname = tadeva;
layers = (
{
layerId = "B871EA9A-50AC-43A6-961C-B7EB8764AD7C";
shapes = (
{
closed = 1;
nodes = (
(524,596,l),
(524,622,l),
(0,622,l),
(0,596,l),
(383,596,l),
(383,388,l),
(263,388,ls),
(170,388,o),
(133,376,o),
(103,355,cs),
(62,327,o),
(52,286,o),
(52,252,cs),
(52,150,o),
(133,77,o),
(227,-6,c),
(244,13,l),
(142,106,o),
(79,163,o),
(79,249,cs),
(79,289,o),
(95,312,o),
(108,325,cs),
(137,353,o),
(182,362,o),
(257,362,cs),
(383,362,l),
(383,0,l),
(409,0,l),
(409,596,l)
);
}
);
width = 509;
},
{
layerId = "6C7CC43D-04A1-4971-B3B5-A41D54964AD2";
shapes = (
{
closed = 1;
nodes = (
(584,551,l),
(584,622,l),
(0,622,l),
(0,551,l),
(400,551,l),
(400,399,l),
(272,399,ls),
(181,399,o),
(131,384,o),
(93,351,cs),
(65,327,o),
(45,288,o),
(45,242,cs),
(45,145,o),
(124,68,o),
(217,-12,c),
(271,40,l),
(176,116,o),
(126,171,o),
(126,237,cs),
(126,266,o),
(134,286,o),
(150,299,cs),
(175,321,o),
(209,328,o),
(291,328,cs),
(400,328,l),
(400,0,l),
(481,0,l),
(481,551,l)
);
}
);
width = 570;
},
{
layerId = UUID0;
shapes = (
{
closed = 1;
nodes = (
(638,512,l),
(638,622,l),
(0,622,l),
(0,512,l),
(410,512,l),
(410,409,l),
(280,409,ls),
(176,409,o),
(127,394,o),
(87,359,cs),
(58,333,o),
(38,294,o),
(38,246,cs),
(38,146,o),
(114,61,o),
(207,-17,c),
(294,72,l),
(214,132,o),
(172,179,o),
(172,224,cs),
(172,247,o),
(179,263,o),
(194,275,cs),
(216,293,o),
(246,299,o),
(319,299,cs),
(410,299,l),
(410,0,l),
(544,0,l),
(544,512,l)
);
}
);
width = 624;
},
{
layerId = "C05809E0-FD9D-43C4-90EB-E9E886B1ADAB";
shapes = (
{
closed = 1;
nodes = (
(667,484,l),
(667,622,l),
(0,622,l),
(0,484,l),
(405,484,l),
(405,405,l),
(293,405,ls),
(167,405,o),
(121,389,o),
(80,354,cs),
(49,327,o),
(29,289,o),
(29,234,cs),
(29,136,o),
(98,54,o),
(187,-18,c),
(296,90,l),
(239,132,o),
(207,175,o),
(207,208,cs),
(207,225,o),
(212,239,o),
(224,249,cs),
(239,263,o),
(262,267,o),
(315,267,cs),
(405,267,l),
(405,0,l),
(582,0,l),
(582,484,l)
);
}
);
width = 652;
},
{
layerId = "5CC745D4-D12D-435B-A472-7D28876E43BC";
shapes = (
{
closed = 1;
nodes = (
(400,596,l),
(400,622,l),
(0,622,l),
(0,596,l),
(284,596,l),
(284,388,l),
(215,388,ls),
(132,388,o),
(100,371,o),
(77,348,cs),
(50,321,o),
(42,286,o),
(42,252,cs),
(42,168,o),
(90,85,o),
(160,-6,c),
(182,8,l),
(105,105,o),
(69,179,o),
(69,249,cs),
(69,283,o),
(78,307,o),
(89,322,cs),
(110,349,o),
(139,362,o),
(214,362,cs),
(284,362,l),
(284,0,l),
(311,0,l),
(311,596,l)
);
}
);
width = 388;
},
{
layerId = "AA2163BC-B14D-4D16-A884-99BB623F1DBF";
shapes = (
{
closed = 1;
nodes = (
(443,554,l),
(443,622,l),
(0,622,l),
(0,554,l),
(292,554,l),
(292,398,l),
(217,398,ls),
(137,398,o),
(96,381,o),
(67,348,cs),
(44,322,o),
(33,288,o),
(33,242,cs),
(33,156,o),
(81,75,o),
(148,-12,c),
(205,29,l),
(129,123,o),
(108,185,o),
(108,239,cs),
(108,267,o),
(113,291,o),
(132,308,cs),
(150,324,o),
(169,330,o),
(221,330,cs),
(292,330,l),
(292,0,l),
(367,0,l),
(367,554,l)
);
}
);
width = 431;
},
{
layerId = "9A082071-1CDF-4F9E-B116-82A287035C9D";
shapes = (
{
closed = 1;
nodes = (
(488,514,l),
(488,622,l),
(0,622,l),
(0,514,l),
(298,514,l),
(298,403,l),
(241,403,ls),
(145,403,o),
(100,387,o),
(67,352,cs),
(41,326,o),
(27,289,o),
(27,238,cs),
(27,152,o),
(77,66,o),
(142,-18,c),
(236,47,l),
(176,119,o),
(148,174,o),
(148,226,cs),
(148,246,o),
(152,263,o),
(164,275,cs),
(178,290,o),
(194,295,o),
(237,295,cs),
(298,295,l),
(298,0,l),
(419,0,l),
(419,514,l)
);
}
);
width = 476;
},
{
layerId = "6EDA54BC-5413-4E6E-9D6B-A24A39A704A7";
shapes = (
{
closed = 1;
nodes = (
(517,489,l),
(517,622,l),
(0,622,l),
(0,489,l),
(301,489,l),
(301,406,l),
(256,406,ls),
(150,406,o),
(103,390,o),
(67,355,cs),
(39,328,o),
(23,290,o),
(23,236,cs),
(23,150,o),
(74,60,o),
(139,-22,c),
(255,58,l),
(205,117,o),
(173,167,o),
(173,218,cs),
(173,233,o),
(177,246,o),
(184,255,cs),
(195,268,o),
(209,273,o),
(247,273,cs),
(301,273,l),
(301,0,l),
(451,0,l),
(451,489,l)
);
}
);
width = 505;
}
);
subCategory = Other;
unicode = 2340;
}
{
category = Letter;
glyphname = dadeva;
layers = (
{
anchors = (
{
name = Anchor2;
pos = (298,622);
},
{
name = Anchor6;
pos = (394,0);
},
{
name = Anchor8;
pos = (261,0);
}
);
layerId = "B871EA9A-50AC-43A6-961C-B7EB8764AD7C";
shapes = (
{
closed = 1;
nodes = (
(430,-31,l),
(401,13,o),
(373,62,o),
(352,106,c),
(376,134,l),
(336,121,o),
(297,118,o),
(266,118,cs),
(147,118,o),
(81,183,o),
(81,281,cs),
(81,328,o),
(101,369,o),
(133,393,cs),
(168,420,o),
(223,432,o),
(298,432,cs),
(324,432,l),
(324,596,l),
(484,596,l),
(484,622,l),
(0,622,l),
(0,596,l),
(298,596,l),
(298,444,l),
(307,458,l),
(295,458,ls),
(212,458,o),
(148,441,o),
(107,405,cs),
(75,378,o),
(54,337,o),
(54,281,cs),
(54,142,o),
(166,92,o),
(265,92,cs),
(298,92,o),
(317,94,o),
(338,98,c),
(351,101,l),
(384,108,o),
(403,125,o),
(403,151,cs),
(403,180,o),
(379,202,o),
(349,202,cs),
(321,202,o),
(304,183,o),
(304,160,cs),
(304,141,o),
(312,124,o),
(322,108,c),
(325,102,l),
(342,65,o),
(380,-3,o),
(408,-44,c)
);
}
);
width = 469;
},
{
anchors = (
{
name = Anchor2;
pos = (295,622);
},
{
name = Anchor6;
pos = (396,0);
},
{
name = Anchor8;
pos = (279,0);
}
);
layerId = "6C7CC43D-04A1-4971-B3B5-A41D54964AD2";
shapes = (
{
closed = 1;
nodes = (
(480,-24,l),
(440,31,o),
(420,65,o),
(401,104,c),
(353,148,l),
(315,140,o),
(303,140,o),
(287,140,cs),
(178,140,o),
(126,191,o),
(126,262,cs),
(126,305,o),
(143,335,o),
(173,355,cs),
(206,376,o),
(249,385,o),
(327,385,cs),
(376,385,l),
(376,551,l),
(534,551,l),
(534,622,l),
(0,622,l),
(0,551,l),
(295,551,l),
(295,420,l),
(331,456,l),
(290,456,ls),
(211,456,o),
(146,439,o),
(102,401,cs),
(68,372,o),
(46,330,o),
(46,272,cs),
(46,119,o),
(176,68,o),
(287,68,cs),
(316,68,o),
(343,72,o),
(361,77,c),
(386,79,l),
(428,89,o),
(461,108,o),
(461,162,cs),
(461,201,o),
(430,240,o),
(373,240,cs),
(339,240,o),
(306,222,o),
(306,176,cs),
(306,161,o),
(313,132,o),
(321,121,c),
(335,89,l),
(350,53,o),
(380,-6,o),
(413,-58,c)
);
}
);
width = 520;
},
{
anchors = (
{
name = Anchor2;
pos = (273,622);
},
{
name = Anchor6;
pos = (404,0);
},
{
name = Anchor8;
pos = (282,0);
}
);
layerId = UUID0;
shapes = (
{
closed = 1;
nodes = (
(536,-20,l),
(498,31,o),
(467,79,o),
(449,114,c),
(334,175,l),
(322,173,o),
(314,173,o),
(308,173,cs),
(207,173,o),
(170,209,o),
(170,260,cs),
(170,289,o),
(185,311,o),
(212,324,cs),
(242,339,o),
(279,345,o),
(356,345,cs),
(407,345,l),
(407,512,l),
(572,512,l),
(572,622,l),
(0,622,l),
(0,512,l),
(273,512,l),
(273,438,l),
(312,456,l),
(307,456,ls),
(219,456,o),
(147,439,o),
(98,400,cs),
(60,371,o),
(37,328,o),
(37,269,cs),
(37,113,o),
(172,63,o),
(297,63,cs),
(337,63,o),
(371,66,o),
(391,71,c),
(428,72,l),
(476,90,o),
(518,106,o),
(518,169,cs),
(518,220,o),
(480,264,o),
(409,264,cs),
(367,264,o),
(324,244,o),
(324,195,cs),
(324,186,o),
(326,168,o),
(331,156,c),
(345,90,l),
(359,59,o),
(393,-12,o),
(427,-68,c)
);
}
);
width = 558;
},
{
anchors = (
{
name = Anchor2;
pos = (253,622);
},
{
name = Anchor6;
pos = (389,0);
},
{
name = Anchor8;
pos = (286,0);
}
);
layerId = "C05809E0-FD9D-43C4-90EB-E9E886B1ADAB";
shapes = (
{
closed = 1;
nodes = (
(567,-12,l),
(533,35,o),
(506,86,o),
(486,121,c),
(390,202,l),
(369,199,o),
(342,197,o),
(323,197,cs),
(230,197,o),
(205,222,o),
(205,259,cs),
(205,278,o),
(216,294,o),
(236,302,cs),
(258,312,o),
(288,316,o),
(347,316,cs),
(428,316,l),
(428,484,l),
(597,484,l),
(597,622,l),
(0,622,l),
(0,484,l),
(253,484,l),
(253,417,l),
(348,449,l),
(319,449,ls),
(223,449,o),
(147,432,o),
(93,394,cs),
(52,364,o),
(28,323,o),
(28,264,cs),
(28,108,o),
(167,59,o),
(316,59,cs),
(352,59,o),
(389,63,o),
(419,66,c),
(455,69,l),
(501,83,o),
(557,108,o),
(557,174,cs),
(557,236,o),
(514,280,o),
(435,280,cs),
(384,280,o),
(332,253,o),
(332,198,cs),
(332,177,o),
(337,153,o),
(344,140,c),
(354,92,l),
(367,49,o),
(392,-13,o),
(424,-70,c)
);
}
);
width = 582;
},
{
anchors = (
{
name = Anchor2;
pos = (221,622);
},
{
name = Anchor6;
pos = (291,0);
},
{
name = Anchor8;
pos = (197,0);
}
);
layerId = "5CC745D4-D12D-435B-A472-7D28876E43BC";
shapes = (
{
closed = 1;
nodes = (
(327,-33,l),
(304,10,o),
(280,65,o),
(264,109,c),
(275,134,l),
(246,121,o),
(225,118,o),
(201,118,cs),
(116,118,o),
(71,183,o),
(71,281,cs),
(71,333,o),
(85,371,o),
(112,396,cs),
(139,421,o),
(174,432,o),
(233,432,cs),
(247,432,l),
(247,596,l),
(370,596,l),
(370,622,l),
(0,622,l),
(0,596,l),
(221,596,l),
(221,444,l),
(236,458,l),
(227,458,ls),
(167,458,o),
(124,443,o),
(93,414,cs),
(62,384,o),
(44,340,o),
(44,281,cs),
(44,142,o),
(127,92,o),
(201,92,cs),
(227,92,o),
(239,94,o),
(254,98,c),
(264,101,l),
(290,108,o),
(306,125,o),
(306,151,cs),
(306,180,o),
(287,202,o),
(262,202,cs),
(239,202,o),
(226,184,o),
(226,163,cs),
(226,141,o),
(232,124,o),
(239,108,c),
(241,102,l),
(252,67,o),
(283,-5,o),
(303,-44,c)
);
}
);
width = 358;
},
{
anchors = (
{
name = Anchor2;
pos = (208,622);
},
{
name = Anchor6;
pos = (290,0);
},
{
name = Anchor8;
pos = (204,0);
}
);
layerId = "AA2163BC-B14D-4D16-A884-99BB623F1DBF";
shapes = (
{
closed = 1;
nodes = (
(368,-29,l),
(344,15,o),
(320,66,o),
(307,105,c),
(256,144,l),
(242,138,o),
(230,138,o),
(222,138,cs),
(154,138,o),
(108,177,o),
(108,264,cs),
(108,306,o),
(122,335,o),
(145,355,cs),
(172,377,o),
(208,388,o),
(266,388,cs),
(283,388,l),
(283,554,l),
(403,554,l),
(403,622,l),
(0,622,l),
(0,554,l),
(208,554,l),
(208,419,l),
(261,455,l),
(234,455,ls),
(180,455,o),
(122,438,o),
(86,402,cs),
(55,371,o),
(33,330,o),
(33,264,cs),
(33,137,o),
(118,70,o),
(223,70,cs),
(240,70,o),
(258,73,o),
(272,78,c),
(293,81,l),
(325,90,o),
(353,108,o),
(353,161,cs),
(353,200,o),
(328,238,o),
(283,238,cs),
(255,238,o),
(227,220,o),
(227,175,cs),
(227,159,o),
(231,129,o),
(236,118,c),
(245,89,ls),
(256,53,o),
(279,-6,o),
(302,-58,c)
);
}
);
width = 391;
},
{
anchors = (
{
name = Anchor2;
pos = (193,622);
},
{
name = Anchor6;
pos = (287,0);
},
{
name = Anchor8;
pos = (213,0);
}
);
layerId = "9A082071-1CDF-4F9E-B116-82A287035C9D";
shapes = (
{
closed = 1;
nodes = (
(412,-26,l),
(388,19,o),
(364,72,o),
(351,114,c),
(295,176,l),
(278,172,o),
(255,171,o),
(243,171,cs),
(181,171,o),
(149,203,o),
(149,260,cs),
(149,287,o),
(158,306,o),
(172,320,cs),
(193,340,o),
(222,347,o),
(275,347,cs),
(313,347,l),
(313,514,l),
(440,514,l),
(440,622,l),
(0,622,l),
(0,514,l),
(193,514,l),
(193,420,l),
(279,453,l),
(249,453,ls),
(179,453,o),
(120,436,o),
(80,398,cs),
(48,367,o),
(27,326,o),
(27,263,cs),
(27,123,o),
(128,64,o),
(238,64,cs),
(260,64,o),
(284,67,o),
(306,71,c),
(330,74,l),
(366,86,o),
(402,108,o),
(402,168,cs),
(402,220,o),
(369,262,o),
(315,262,cs),
(275,262,o),
(242,238,o),
(242,188,cs),
(242,171,o),
(248,146,o),
(254,133,c),
(257,91,ls),
(266,47,o),
(286,-8,o),
(309,-65,c)
);
}
);
width = 428;
},
{
anchors = (
{
name = Anchor2;
pos = (183,622);
},
{
name = Anchor6;
pos = (285,0);
},
{
name = Anchor8;
pos = (219,0);
}
);
layerId = "6EDA54BC-5413-4E6E-9D6B-A24A39A704A7";
shapes = (
{
closed = 1;
nodes = (
(439,-24,l),
(415,22,o),
(391,75,o),
(378,120,c),
(319,196,l),
(300,193,o),
(271,192,o),
(256,192,cs),
(198,192,o),
(174,220,o),
(174,257,cs),
(174,275,o),
(180,288,o),
(189,298,cs),
(206,316,o),
(231,321,o),
(281,321,cs),
(331,321,l),
(331,489,l),
(464,489,l),
(464,622,l),
(0,622,l),
(0,489,l),
(183,489,l),
(183,421,l),
(291,451,l),
(258,451,ls),
(178,451,o),
(119,434,o),
(76,395,cs),
(43,365,o),
(23,324,o),
(23,263,cs),
(23,115,o),
(135,60,o),
(248,60,cs),
(273,60,o),
(301,63,o),
(327,67,c),
(354,69,l),
(392,83,o),
(433,108,o),
(433,173,cs),
(433,233,o),
(394,277,o),
(335,277,cs),
(288,277,o),
(252,250,o),
(252,196,cs),
(252,178,o),
(259,156,o),
(265,143,c),
(264,92,l),
(273,43,o),
(291,-10,o),
(314,-70,c)
);
}
);
width = 452;
}
);
subCategory = Other;
unicode = 2342;
}
{
category = Letter;
glyphname = nadeva;
layers = (
{
layerId = "B871EA9A-50AC-43A6-961C-B7EB8764AD7C";
shapes = (
{
closed = 1;
nodes = (
(0,596,l),
(361,596,l),
(361,365,l),
(89,365,ls),
(58,365,o),
(47,353,o),
(47,334,cs),
(47,304,o),
(84,258,o),
(116,258,cs),
(133,258,o),
(145,269,o),
(145,297,cs),
(145,339,l),
(361,339,l),
(361,0,l),
(387,0,l),
(387,596,l),
(502,596,l),
(502,622,l),
(0,622,l)
);
}
);
width = 487;
},
{
layerId = "6C7CC43D-04A1-4971-B3B5-A41D54964AD2";
shapes = (
{
closed = 1;
nodes = (
(0,551,l),
(385,551,l),
(385,369,l),
(98,369,ls),
(53,369,o),
(37,348,o),
(37,318,cs),
(37,262,o),
(104,188,o),
(153,188,cs),
(184,188,o),
(204,207,o),
(204,244,cs),
(204,298,l),
(385,298,l),
(385,0,l),
(466,0,l),
(466,551,l),
(569,551,l),
(569,622,l),
(0,622,l)
);
}
);
width = 555;
},
{
layerId = UUID0;
shapes = (
{
closed = 1;
nodes = (
(0,512,l),
(404,512,l),
(404,375,l),
(102,375,ls),
(43,375,o),
(31,343,o),
(31,309,cs),
(31,247,o),
(118,164,o),
(180,164,cs),
(222,164,o),
(246,186,o),
(246,239,cs),
(246,265,l),
(404,265,l),
(404,0,l),
(538,0,l),
(538,512,l),
(632,512,l),
(632,622,l),
(0,622,l)
);
}
);
width = 618;
},
{
layerId = "C05809E0-FD9D-43C4-90EB-E9E886B1ADAB";
shapes = (
{
closed = 1;
nodes = (
(0,484,l),
(407,484,l),
(407,376,l),
(116,376,ls),
(45,376,o),
(27,346,o),
(27,302,cs),
(27,230,o),
(120,130,o),
(197,130,cs),
(252,130,o),
(280,162,o),
(280,236,cs),
(280,238,l),
(407,238,l),
(407,0,l),
(584,0,l),
(584,484,l),
(669,484,l),
(669,622,l),
(0,622,l)
);
}
);
width = 654;
},
{
layerId = "5CC745D4-D12D-435B-A472-7D28876E43BC";
shapes = (
{
closed = 1;
nodes = (
(0,596,l),
(270,596,l),
(270,365,l),
(74,365,ls),
(48,365,o),
(39,353,o),
(39,334,cs),
(39,297,o),
(68,258,o),
(96,258,cs),
(109,258,o),
(118,266,o),
(118,289,cs),
(118,339,l),
(270,339,l),
(270,0,l),
(296,0,l),
(296,596,l),
(385,596,l),
(385,622,l),
(0,622,l)
);
}
);
width = 373;
},
{
layerId = "AA2163BC-B14D-4D16-A884-99BB623F1DBF";
shapes = (
{
closed = 1;
nodes = (
(0,554,l),
(285,554,l),
(285,369,l),
(82,369,ls),
(38,369,o),
(27,349,o),
(27,316,cs),
(27,261,o),
(82,190,o),
(121,190,cs),
(151,190,o),
(163,207,o),
(163,240,cs),
(163,301,l),
(285,301,l),
(285,0,l),
(360,0,l),
(360,554,l),
(436,554,l),
(436,622,l),
(0,622,l)
);
}
);
width = 424;
},
{
layerId = "9A082071-1CDF-4F9E-B116-82A287035C9D";
shapes = (
{
closed = 1;
nodes = (
(0,514,l),
(298,514,l),
(298,373,l),
(92,373,ls),
(38,373,o),
(24,347,o),
(24,308,cs),
(24,244,o),
(86,157,o),
(147,157,cs),
(186,157,o),
(203,181,o),
(203,227,cs),
(203,265,l),
(298,265,l),
(298,0,l),
(419,0,l),
(419,514,l),
(489,514,l),
(489,622,l),
(0,622,l)
);
}
);
width = 477;
},
{
layerId = "6EDA54BC-5413-4E6E-9D6B-A24A39A704A7";
shapes = (
{
closed = 1;
nodes = (
(0,489,l),
(306,489,l),
(306,376,l),
(99,376,ls),
(38,376,o),
(22,345,o),
(22,303,cs),
(22,233,o),
(88,136,o),
(163,136,cs),
(208,136,o),
(228,164,o),
(228,219,cs),
(228,243,l),
(306,243,l),
(306,0,l),
(456,0,l),
(456,489,l),
(522,489,l),
(522,622,l),
(0,622,l)
);
}
);
width = 510;
}
);
subCategory = Other;
unicode = 2344;
}
{
category = Letter;
glyphname = badeva;
layers = (
{
layerId = "B871EA9A-50AC-43A6-961C-B7EB8764AD7C";
shapes = (
{
closed = 1;
nodes = (
(519,622,l),
(0,622,l),
(0,596,l),
(378,596,l),
(378,250,l),
(388,273,l),
(343,217,o),
(283,185,o),
(216,185,cs),
(136,185,o),
(81,223,o),
(81,313,cs),
(81,403,o),
(136,449,o),
(236,449,cs),
(285,449,o),
(313,446,o),
(335,439,c),
(340,465,l),
(317,471,o),
(286,475,o),
(239,475,cs),
(124,475,o),
(54,417,o),
(54,313,cs),
(54,210,o),
(121,159,o),
(214,159,cs),
(303,159,o),
(358,203,o),
(391,239,c),
(378,241,l),
(378,0,l),
(404,0,l),
(404,596,l),
(519,596,l)
);
},
{
closed = 1;
nodes = (
(116,435,l),
(322,193,l),
(336,215,l),
(140,446,l)
);
}
);
width = 504;
},
{
layerId = "6C7CC43D-04A1-4971-B3B5-A41D54964AD2";
shapes = (
{
closed = 1;
nodes = (
(585,622,l),
(0,622,l),
(0,551,l),
(401,551,l),
(401,220,l),
(414,271,l),
(380,230,o),
(323,184,o),
(242,184,cs),
(178,184,o),
(127,217,o),
(127,287,cs),
(127,357,o),
(180,395,o),
(268,395,cs),
(301,395,o),
(336,390,o),
(363,385,c),
(369,454,l),
(347,459,o),
(292,464,o),
(265,464,cs),
(134,464,o),
(46,400,o),
(46,286,cs),
(46,184,o),
(128,118,o),
(241,118,cs),
(326,118,o),
(379,148,o),
(416,175,c),
(401,201,l),
(401,0,l),
(482,0,l),
(482,551,l),
(585,551,l)
);
},
{
closed = 1;
nodes = (
(143,401,l),
(331,167,l),
(377,209,l),
(205,424,l)
);
}
);
width = 571;
},
{
layerId = UUID0;
shapes = (
{
closed = 1;
nodes = (
(634,622,l),
(0,622,l),
(0,512,l),
(406,512,l),
(406,203,l),
(434,294,l),
(386,239,o),
(337,194,o),
(259,194,cs),
(206,194,o),
(167,212,o),
(167,269,cs),
(167,316,o),
(200,344,o),
(283,344,cs),
(313,344,o),
(342,341,o),
(365,336,c),
(375,443,l),
(353,448,o),
(307,451,o),
(252,451,cs),
(125,451,o),
(37,380,o),
(37,269,cs),
(37,149,o),
(130,88,o),
(242,88,cs),
(332,88,o),
(378,106,o),
(440,145,c),
(406,185,l),
(406,0,l),
(540,0,l),
(540,512,l),
(634,512,l)
);
},
{
closed = 1;
nodes = (
(149,382,l),
(337,147,l),
(393,190,l),
(221,405,l)
);
}
);
width = 620;
},
{
layerId = "C05809E0-FD9D-43C4-90EB-E9E886B1ADAB";
shapes = (
{
closed = 1;
nodes = (
(664,622,l),
(0,622,l),
(0,484,l),
(402,484,l),
(402,191,l),
(427,300,l),
(401,258,o),
(346,202,o),
(257,202,cs),
(218,202,o),
(191,212,o),
(191,257,cs),
(191,293,o),
(221,312,o),
(282,312,cs),
(316,312,o),
(341,307,o),
(360,304,c),
(375,431,l),
(341,436,o),
(309,440,o),
(265,440,cs),
(112,440,o),
(28,369,o),
(28,261,cs),
(28,134,o),
(117,73,o),
(239,73,cs),
(332,73,o),
(388,94,o),
(453,140,c),
(402,174,l),
(402,0,l),
(579,0,l),
(579,484,l),
(664,484,l)
);
},
{
closed = 1;
nodes = (
(146,368,l),
(334,133,l),
(405,180,l),
(233,395,l)
);
}
);
width = 649;
},
{
layerId = "5CC745D4-D12D-435B-A472-7D28876E43BC";
shapes = (
{
closed = 1;
nodes = (
(398,622,l),
(0,622,l),
(0,596,l),
(283,596,l),
(283,250,l),
(289,268,l),
(255,208,o),
(218,185,o),
(169,185,cs),
(109,185,o),
(71,219,o),
(71,313,cs),
(71,408,o),
(111,449,o),
(180,449,cs),
(209,449,o),
(229,446,o),
(246,441,c),
(250,467,l),
(230,472,o),
(213,475,o),
(182,475,cs),
(98,475,o),
(44,421,o),
(44,313,cs),
(44,209,o),
(93,159,o),
(168,159,cs),
(233,159,o),
(268,194,o),
(293,232,c),
(283,241,l),
(283,0,l),
(309,0,l),
(309,596,l),
(398,596,l)
);
},
{
closed = 1;
nodes = (
(93,435,l),
(240,193,l),
(255,215,l),
(116,446,l)
);
}
);
width = 386;
},
{
layerId = "AA2163BC-B14D-4D16-A884-99BB623F1DBF";
shapes = (
{
closed = 1;
nodes = (
(443,622,l),
(0,622,l),
(0,554,l),
(292,554,l),
(292,222,l),
(312,272,l),
(281,224,o),
(246,185,o),
(185,185,cs),
(138,185,o),
(107,212,o),
(107,289,cs),
(107,363,o),
(137,399,o),
(198,399,cs),
(220,399,o),
(243,396,o),
(261,391,c),
(266,457,l),
(250,461,o),
(218,465,o),
(189,465,cs),
(93,465,o),
(33,401,o),
(33,288,cs),
(33,187,o),
(87,120,o),
(179,120,cs),
(249,120,o),
(287,151,o),
(320,182,c),
(292,204,l),
(292,0,l),
(367,0,l),
(367,554,l),
(443,554,l)
);
},
{
closed = 1;
nodes = (
(106,403,l),
(241,169,l),
(279,209,l),
(156,426,l)
);
}
);
width = 431;
},
{
layerId = "9A082071-1CDF-4F9E-B116-82A287035C9D";
shapes = (
{
closed = 1;
nodes = (
(487,622,l),
(0,622,l),
(0,514,l),
(296,514,l),
(296,204,l),
(321,281,l),
(295,230,o),
(259,192,o),
(204,192,cs),
(164,192,o),
(137,212,o),
(137,271,cs),
(137,324,o),
(167,350,o),
(212,350,cs),
(232,350,o),
(250,348,o),
(264,344,c),
(273,443,l),
(251,448,o),
(225,451,o),
(198,451,cs),
(86,451,o),
(27,383,o),
(27,273,cs),
(27,158,o),
(89,93,o),
(196,93,cs),
(256,93,o),
(301,114,o),
(341,155,c),
(296,187,l),
(296,0,l),
(417,0,l),
(417,514,l),
(487,514,l)
);
},
{
closed = 1;
nodes = (
(111,383,l),
(248,150,l),
(299,192,l),
(174,408,l)
);
}
);
width = 475;
},
{
layerId = "6EDA54BC-5413-4E6E-9D6B-A24A39A704A7";
shapes = (
{
closed = 1;
nodes = (
(515,622,l),
(0,622,l),
(0,489,l),
(299,489,l),
(299,193,l),
(327,287,l),
(303,233,o),
(267,197,o),
(216,197,cs),
(181,197,o),
(156,212,o),
(156,259,cs),
(156,300,o),
(186,320,o),
(220,320,cs),
(240,320,o),
(254,318,o),
(266,315,c),
(277,434,l),
(252,440,o),
(230,442,o),
(203,442,cs),
(82,442,o),
(23,371,o),
(23,263,cs),
(23,139,o),
(91,76,o),
(207,76,cs),
(260,76,o),
(309,91,o),
(354,138,c),
(299,176,l),
(299,0,l),
(449,0,l),
(449,489,l),
(515,489,l)
);
},
{
closed = 1;
nodes = (
(114,371,l),
(253,138,l),
(311,182,l),
(185,397,l)
);
}
);
width = 503;
}
);
subCategory = Other;
unicode = 2348;
}
{
category = Letter;
glyphname = yadeva;
layers = (
{
layerId = "B871EA9A-50AC-43A6-961C-B7EB8764AD7C";
shapes = (
{
closed = 1;
nodes = (
(0,622,l),
(0,596,l),
(125,596,l),
(107,603,l),
(143,567,o),
(165,528,o),
(165,477,cs),
(165,408,o),
(132,369,o),
(46,349,c),
(87,221,o),
(140,163,o),
(248,163,cs),
(325,163,o),
(384,207,o),
(416,243,c),
(399,232,l),
(399,0,l),
(425,0,l),
(425,596,l),
(540,596,l),
(540,622,l)
);
},
{
closed = 1;
nodes = (
(399,596,l),
(399,242,l),
(412,276,l),
(368,220,o),
(312,189,o),
(248,189,cs),
(154,189,o),
(111,242,o),
(81,330,c),
(149,354,o),
(192,396,o),
(192,476,cs),
(192,528,o),
(170,570,o),
(141,603,c),
(138,596,l)
);
}
);
width = 525;
},
{
layerId = "6C7CC43D-04A1-4971-B3B5-A41D54964AD2";
shapes = (
{
closed = 1;
nodes = (
(0,622,l),
(0,551,l),
(159,551,l),
(110,566,l),
(132,542,o),
(160,503,o),
(160,457,cs),
(160,398,o),
(121,370,o),
(38,353,c),
(57,220,o),
(133,132,o),
(253,132,cs),
(331,132,o),
(389,162,o),
(426,191,c),
(410,216,l),
(410,0,l),
(491,0,l),
(491,551,l),
(595,551,l),
(595,622,l)
);
},
{
closed = 1;
nodes = (
(410,551,l),
(410,239,l),
(425,292,l),
(389,246,o),
(335,203,o),
(259,203,cs),
(193,203,o),
(155,236,o),
(129,301,c),
(203,325,o),
(240,375,o),
(240,445,cs),
(240,488,o),
(224,535,o),
(198,572,c),
(175,551,l)
);
}
);
width = 580;
},
{
layerId = UUID0;
shapes = (
{
closed = 1;
nodes = (
(0,622,l),
(0,512,l),
(181,512,l),
(99,540,l),
(120,518,o),
(142,484,o),
(142,445,cs),
(142,390,o),
(105,361,o),
(29,346,c),
(53,208,o),
(131,106,o),
(267,106,cs),
(342,106,o),
(401,126,o),
(453,171,c),
(421,207,l),
(421,0,l),
(555,0,l),
(555,512,l),
(649,512,l),
(649,622,l)
);
},
{
closed = 1;
nodes = (
(421,512,l),
(421,228,l),
(446,326,l),
(408,255,o),
(347,216,o),
(279,216,cs),
(227,216,o),
(194,243,o),
(173,288,c),
(240,314,o),
(276,357,o),
(276,419,cs),
(276,471,o),
(256,506,o),
(227,547,c),
(190,512,l)
);
}
);
width = 635;
},
{
layerId = "C05809E0-FD9D-43C4-90EB-E9E886B1ADAB";
shapes = (
{
closed = 1;
nodes = (
(0,622,l),
(0,484,l),
(199,484,l),
(90,523,l),
(112,503,o),
(129,478,o),
(129,444,cs),
(129,396,o),
(100,372,o),
(23,355,c),
(57,201,o),
(129,95,o),
(282,95,cs),
(351,95,o),
(398,108,o),
(468,152,c),
(423,209,l),
(423,0,l),
(600,0,l),
(600,484,l),
(685,484,l),
(685,622,l)
);
},
{
closed = 1;
nodes = (
(423,484,l),
(423,228,l),
(464,359,l),
(424,270,o),
(368,233,o),
(298,233,cs),
(254,233,o),
(222,257,o),
(206,288,c),
(267,312,o),
(305,353,o),
(305,417,cs),
(305,468,o),
(282,506,o),
(257,539,c),
(202,484,l)
);
}
);
width = 670;
},
{
layerId = "5CC745D4-D12D-435B-A472-7D28876E43BC";
shapes = (
{
closed = 1;
nodes = (
(0,622,l),
(0,596,l),
(101,596,l),
(84,603,l),
(108,567,o),
(126,528,o),
(126,477,cs),
(126,408,o),
(100,369,o),
(39,349,c),
(61,215,o),
(107,163,o),
(186,163,cs),
(251,163,o),
(286,200,o),
(309,236,c),
(296,232,l),
(296,0,l),
(322,0,l),
(322,596,l),
(411,596,l),
(411,622,l)
);
},
{
closed = 1;
nodes = (
(296,596,l),
(296,242,l),
(306,273,l),
(275,217,o),
(239,189,o),
(185,189,cs),
(120,189,o),
(87,243,o),
(71,331,c),
(120,354,o),
(153,396,o),
(153,476,cs),
(153,528,o),
(134,572,o),
(115,603,c),
(110,596,l)
);
}
);
width = 399;
},
{
layerId = "AA2163BC-B14D-4D16-A884-99BB623F1DBF";
shapes = (
{
closed = 1;
nodes = (
(0,622,l),
(0,554,l),
(124,554,l),
(78,568,l),
(94,544,o),
(114,504,o),
(114,458,cs),
(114,399,o),
(84,371,o),
(27,354,c),
(45,216,o),
(101,134,o),
(196,134,cs),
(261,134,o),
(299,165,o),
(332,196,c),
(300,217,l),
(300,0,l),
(375,0,l),
(375,554,l),
(451,554,l),
(451,622,l)
);
},
{
closed = 1;
nodes = (
(300,554,l),
(300,240,l),
(323,288,l),
(293,241,o),
(256,202,o),
(200,202,cs),
(156,202,o),
(124,238,o),
(108,306,c),
(158,332,o),
(189,376,o),
(189,447,cs),
(189,489,o),
(174,537,o),
(154,574,c),
(133,554,l)
);
}
);
width = 439;
},
{
layerId = "9A082071-1CDF-4F9E-B116-82A287035C9D";
shapes = (
{
closed = 1;
nodes = (
(0,622,l),
(0,514,l),
(147,514,l),
(72,542,l),
(86,522,o),
(102,483,o),
(102,449,cs),
(102,397,o),
(78,368,o),
(21,351,c),
(43,200,o),
(101,111,o),
(211,111,cs),
(275,111,o),
(310,129,o),
(354,171,c),
(311,212,l),
(311,0,l),
(432,0,l),
(432,514,l),
(502,514,l),
(502,622,l)
);
},
{
closed = 1;
nodes = (
(311,514,l),
(311,233,l),
(332,298,l),
(306,250,o),
(275,219,o),
(223,219,cs),
(186,219,o),
(162,247,o),
(149,297,c),
(193,322,o),
(223,362,o),
(223,430,cs),
(223,477,o),
(206,518,o),
(188,553,c),
(150,514,l)
);
}
);
width = 490;
},
{
layerId = "6EDA54BC-5413-4E6E-9D6B-A24A39A704A7";
shapes = (
{
closed = 1;
nodes = (
(0,622,l),
(0,489,l),
(161,489,l),
(68,526,l),
(81,509,o),
(94,470,o),
(94,444,cs),
(94,395,o),
(74,366,o),
(17,349,c),
(41,190,o),
(101,97,o),
(220,97,cs),
(283,97,o),
(317,107,o),
(368,156,c),
(318,209,l),
(318,0,l),
(468,0,l),
(468,489,l),
(534,489,l),
(534,622,l)
);
},
{
closed = 1;
nodes = (
(318,489,l),
(318,228,l),
(338,304,l),
(315,256,o),
(287,230,o),
(238,230,cs),
(205,230,o),
(186,253,o),
(175,291,c),
(216,315,o),
(244,354,o),
(244,420,cs),
(244,469,o),
(226,506,o),
(209,540,c),
(161,489,l)
);
}
);
width = 522;
}
);
subCategory = Other;
unicode = 2351;
}
{
category = Letter;
glyphname = radeva;
layers = (
{
anchors = (
{
name = Anchor6;
pos = (228,0);
},
{
name = Anchor8;
pos = (183,0);
}
);
layerId = "B871EA9A-50AC-43A6-961C-B7EB8764AD7C";
shapes = (
{
closed = 1;
nodes = (
(382,596,l),
(382,622,l),
(0,622,l),
(0,596,l),
(237,596,l),
(216,607,l),
(231,588,o),
(255,551,o),
(255,484,cs),
(255,397,o),
(199,342,o),
(131,318,c),
(164,312,l),
(139,358,o),
(120,377,o),
(89,377,cs),
(70,377,o),
(53,365,o),
(53,341,cs),
(53,323,o),
(59,302,o),
(76,273,cs),
(116,205,o),
(211,96,o),
(325,-12,c),
(342,7,l),
(253,86,o),
(151,202,o),
(88,295,c),
(100,272,l),
(190,311,o),
(281,364,o),
(281,482,cs),
(281,527,o),
(265,583,o),
(246,608,c),
(248,596,l)
);
}
);
width = 367;
},
{
anchors = (
{
name = Anchor6;
pos = (216,0);
},
{
name = Anchor8;
pos = (205,0);
}
);
layerId = "6C7CC43D-04A1-4971-B3B5-A41D54964AD2";
shapes = (
{
closed = 1;
nodes = (
(424,551,l),
(424,622,l),
(0,622,l),
(0,551,l),
(275,551,l),
(230,565,l),
(244,550,o),
(256,507,o),
(256,468,cs),
(256,405,o),
(223,360,o),
(147,335,c),
(209,300,l),
(183,357,o),
(154,393,o),
(104,393,cs),
(58,393,o),
(40,365,o),
(40,340,cs),
(40,317,o),
(45,297,o),
(75,256,cs),
(121,193,o),
(222,86,o),
(341,-12,c),
(395,42,l),
(308,109,o),
(223,188,o),
(163,259,c),
(159,251,l),
(260,291,o),
(336,346,o),
(336,458,cs),
(336,508,o),
(327,544,o),
(312,566,c),
(284,551,l)
);
}
);
width = 409;
},
{
anchors = (
{
name = Anchor6;
pos = (233,0);
},
{
name = Anchor8;
pos = (219,0);
}
);
layerId = UUID0;
shapes = (
{
closed = 1;
nodes = (
(453,512,l),
(453,622,l),
(0,622,l),
(0,512,l),
(258,512,l),
(223,553,l),
(238,531,o),
(248,501,o),
(248,459,cs),
(248,408,o),
(219,373,o),
(162,348,c),
(234,311,l),
(200,373,o),
(164,402,o),
(110,402,cs),
(51,402,o),
(31,361,o),
(31,327,cs),
(31,304,o),
(37,278,o),
(67,238,cs),
(114,176,o),
(213,83,o),
(330,-17,c),
(417,72,l),
(338,131,o),
(260,204,o),
(208,257,c),
(207,239,l),
(318,277,o),
(382,341,o),
(382,437,cs),
(382,495,o),
(370,525,o),
(356,551,c),
(344,512,l)
);
}
);
width = 438;
},
{
anchors = (
{
name = Anchor6;
pos = (207,0);
},
{
name = Anchor8;
pos = (230,0);
}
);
layerId = "C05809E0-FD9D-43C4-90EB-E9E886B1ADAB";
shapes = (
{
closed = 1;
nodes = (
(477,484,l),
(477,622,l),
(0,622,l),
(0,484,l),
(265,484,l),
(210,526,l),
(228,499,o),
(238,469,o),
(238,432,cs),
(238,387,o),
(218,361,o),
(172,336,c),
(268,285,l),
(226,356,o),
(187,398,o),
(120,398,cs),
(54,398,o),
(27,356,o),
(27,311,cs),
(27,277,o),
(40,245,o),
(71,206,cs),
(125,140,o),
(226,59,o),
(339,-18,c),
(440,98,l),
(362,148,o),
(305,190,o),
(239,243,c),
(240,206,l),
(348,240,o),
(415,307,o),
(415,406,cs),
(415,459,o),
(402,493,o),
(389,522,c),
(382,484,l)
);
}
);
width = 462;
},
{
anchors = (
{
name = Anchor6;
pos = (170,0);
},
{
name = Anchor8;
pos = (141,0);
}
);
layerId = "5CC745D4-D12D-435B-A472-7D28876E43BC";
shapes = (
{
closed = 1;
nodes = (
(296,596,l),
(296,622,l),
(0,622,l),
(0,596,l),
(183,596,l),
(165,607,l),
(175,588,o),
(191,551,o),
(191,484,cs),
(191,397,o),
(153,342,o),
(103,317,c),
(143,314,l),
(120,360,o),
(101,377,o),
(78,377,cs),
(58,377,o),
(42,363,o),
(42,339,cs),
(42,319,o),
(46,304,o),
(64,268,cs),
(91,214,o),
(160,96,o),
(242,-12,c),
(263,2,l),
(198,84,o),
(124,203,o),
(78,296,c),
(86,272,l),
(153,311,o),
(217,364,o),
(217,482,cs),
(217,527,o),
(206,583,o),
(193,608,c),
(191,596,l)
);
}
);
width = 284;
},
{
anchors = (
{
name = Anchor6;
pos = (164,0);
},
{
name = Anchor8;
pos = (155,0);
}
);
layerId = "AA2163BC-B14D-4D16-A884-99BB623F1DBF";
shapes = (
{
closed = 1;
nodes = (
(320,554,l),
(320,622,l),
(0,622,l),
(0,554,l),
(194,554,l),
(165,566,l),
(175,551,o),
(183,507,o),
(183,469,cs),
(183,402,o),
(163,359,o),
(115,334,c),
(167,299,l),
(146,356,o),
(119,392,o),
(82,392,cs),
(45,392,o),
(29,365,o),
(29,338,cs),
(29,317,o),
(34,294,o),
(53,256,cs),
(79,205,o),
(153,88,o),
(237,-12,c),
(295,32,l),
(235,99,o),
(169,188,o),
(129,260,c),
(131,252,l),
(207,292,o),
(258,346,o),
(258,460,cs),
(258,509,o),
(250,545,o),
(240,567,c),
(225,554,l)
);
}
);
width = 308;
},
{
anchors = (
{
name = Anchor6;
pos = (154,0);
},
{
name = Anchor8;
pos = (171,0);
}
);
layerId = "9A082071-1CDF-4F9E-B116-82A287035C9D";
shapes = (
{
closed = 1;
nodes = (
(354,514,l),
(354,622,l),
(0,622,l),
(0,514,l),
(201,514,l),
(159,544,l),
(172,523,o),
(179,487,o),
(179,449,cs),
(179,395,o),
(163,359,o),
(130,336,c),
(199,299,l),
(169,363,o),
(135,396,o),
(92,396,cs),
(43,396,o),
(23,363,o),
(23,326,cs),
(23,296,o),
(35,265,o),
(59,224,cs),
(94,164,o),
(150,82,o),
(231,-16,c),
(327,54,l),
(266,120,o),
(205,198,o),
(170,252,c),
(173,227,l),
(250,264,o),
(300,326,o),
(300,431,cs),
(300,483,o),
(291,517,o),
(282,542,c),
(275,514,l)
);
}
);
width = 342;
},
{
anchors = (
{
name = Anchor6;
pos = (147,0);
},
{
name = Anchor8;
pos = (181,0);
}
);
layerId = "6EDA54BC-5413-4E6E-9D6B-A24A39A704A7";
shapes = (
{
closed = 1;
nodes = (
(376,489,l),
(376,622,l),
(0,622,l),
(0,489,l),
(205,489,l),
(156,531,l),
(170,505,o),
(177,475,o),
(177,437,cs),
(177,391,o),
(163,359,o),
(139,338,c),
(219,299,l),
(183,367,o),
(145,399,o),
(99,399,cs),
(42,399,o),
(20,361,o),
(20,319,cs),
(20,283,o),
(35,246,o),
(62,204,cs),
(104,139,o),
(148,78,o),
(227,-19,c),
(347,68,l),
(286,133,o),
(227,204,o),
(195,247,c),
(199,212,l),
(277,247,o),
(327,313,o),
(327,412,cs),
(327,466,o),
(317,499,o),
(308,527,c),
(306,489,l)
);
}
);
width = 364;
}
);
subCategory = Other;
unicode = 2352;
}
{
category = Letter;
glyphname = ladeva;
layers = (
{
layerId = "B871EA9A-50AC-43A6-961C-B7EB8764AD7C";
shapes = (
{
closed = 1;
nodes = (
(480,596,l),
(480,416,l),
(497,412,l),
(499,422,l),
(491,425,o),
(475,429,o),
(454,429,cs),
(369,429,o),
(303,373,o),
(261,237,c),
(287,229,l),
(328,365,o),
(386,403,o),
(453,403,cs),
(475,403,o),
(485,400,o),
(495,396,c),
(480,410,l),
(480,0,l),
(506,0,l),
(506,596,l),
(621,596,l),
(621,622,l),
(0,622,l),
(0,596,l)
);
},
{
closed = 1;
nodes = (
(344,362,l),
(299,401,o),
(257,428,o),
(196,428,cs),
(131,428,o),
(53,388,o),
(53,283,cs),
(53,184,o),
(133,100,o),
(266,-10,c),
(283,9,l),
(136,135,o),
(80,195,o),
(80,284,cs),
(80,353,o),
(124,402,o),
(199,402,cs),
(251,402,o),
(284,381,o),
(330,340,c)
);
}
);
width = 606;
},
{
layerId = "6C7CC43D-04A1-4971-B3B5-A41D54964AD2";
shapes = (
{
closed = 1;
nodes = (
(508,551,l),
(508,413,l),
(565,394,l),
(562,416,l),
(546,421,o),
(522,426,o),
(499,426,cs),
(392,426,o),
(312,359,o),
(279,232,c),
(356,208,l),
(391,329,o),
(446,356,o),
(494,356,cs),
(510,356,o),
(529,354,o),
(552,341,c),
(508,377,l),
(508,0,l),
(589,0,l),
(589,551,l),
(693,551,l),
(693,622,l),
(0,622,l),
(0,551,l)
);
},
{
closed = 1;
nodes = (
(369,357,l),
(320,401,o),
(269,426,o),
(204,426,cs),
(131,426,o),
(45,381,o),
(45,275,cs),
(45,169,o),
(138,87,o),
(255,-12,c),
(309,40,l),
(192,137,o),
(126,195,o),
(126,271,cs),
(126,319,o),
(155,353,o),
(209,353,cs),
(260,353,o),
(296,327,o),
(337,292,c)
);
}
);
width = 678;
},
{
layerId = UUID0;
shapes = (
{
closed = 1;
nodes = (
(524,512,l),
(524,412,l),
(593,392,l),
(589,415,l),
(573,420,o),
(548,425,o),
(522,425,cs),
(404,425,o),
(319,358,o),
(284,225,c),
(409,187,l),
(438,292,o),
(488,317,o),
(529,317,cs),
(544,317,o),
(560,315,o),
(580,304,c),
(524,338,l),
(524,0,l),
(658,0,l),
(658,512,l),
(752,512,l),
(752,622,l),
(0,622,l),
(0,512,l)
);
},
{
closed = 1;
nodes = (
(392,360,l),
(333,406,o),
(284,426,o),
(208,426,cs),
(130,426,o),
(37,385,o),
(37,265,cs),
(37,171,o),
(99,95,o),
(239,-17,c),
(326,72,l),
(211,161,o),
(171,202,o),
(171,255,cs),
(171,289,o),
(195,313,o),
(236,313,cs),
(288,313,o),
(319,274,o),
(357,236,c)
);
}
);
width = 738;
},
{
layerId = "C05809E0-FD9D-43C4-90EB-E9E886B1ADAB";
shapes = (
{
closed = 1;
nodes = (
(529,484,l),
(529,408,l),
(623,388,l),
(621,411,l),
(605,416,o),
(570,421,o),
(547,421,cs),
(410,421,o),
(317,355,o),
(282,209,c),
(448,159,l),
(472,257,o),
(510,289,o),
(543,289,cs),
(575,289,o),
(588,287,o),
(606,277,c),
(529,347,l),
(529,0,l),
(706,0,l),
(706,484,l),
(791,484,l),
(791,622,l),
(0,622,l),
(0,484,l)
);
},
{
closed = 1;
nodes = (
(411,355,l),
(344,403,o),
(306,423,o),
(219,423,cs),
(139,423,o),
(29,383,o),
(29,252,cs),
(29,156,o),
(107,69,o),
(217,-19,c),
(326,89,l),
(230,159,o),
(206,201,o),
(206,238,cs),
(206,267,o),
(224,284,o),
(253,284,cs),
(294,284,o),
(318,261,o),
(351,225,c)
);
}
);
width = 776;
},
{
layerId = "5CC745D4-D12D-435B-A472-7D28876E43BC";
shapes = (
{
closed = 1;
nodes = (
(357,596,l),
(357,416,l),
(375,412,l),
(375,422,l),
(369,425,o),
(356,429,o),
(340,429,cs),
(270,429,o),
(222,373,o),
(197,235,c),
(223,229,l),
(250,369,o),
(289,403,o),
(339,403,cs),
(354,403,o),
(363,400,o),
(372,396,c),
(357,410,l),
(357,0,l),
(383,0,l),
(383,596,l),
(472,596,l),
(472,622,l),
(0,622,l),
(0,596,l)
);
},
{
closed = 1;
nodes = (
(262,365,l),
(231,401,o),
(196,428,o),
(148,428,cs),
(101,428,o),
(44,396,o),
(44,303,cs),
(44,207,o),
(99,119,o),
(200,-6,c),
(221,8,l),
(128,123,o),
(71,211,o),
(71,300,cs),
(71,357,o),
(94,402,o),
(147,402,cs),
(185,402,o),
(216,381,o),
(250,341,c)
);
}
);
width = 460;
},
{
layerId = "AA2163BC-B14D-4D16-A884-99BB623F1DBF";
shapes = (
{
closed = 1;
nodes = (
(372,554,l),
(372,413,l),
(416,394,l),
(413,416,l),
(401,421,o),
(384,426,o),
(366,426,cs),
(286,426,o),
(226,368,o),
(202,230,c),
(274,212,l),
(294,337,o),
(335,359,o),
(367,359,cs),
(378,359,o),
(391,357,o),
(406,344,c),
(372,380,l),
(372,0,l),
(447,0,l),
(447,554,l),
(523,554,l),
(523,622,l),
(0,622,l),
(0,554,l)
);
},
{
closed = 1;
nodes = (
(285,358,l),
(242,403,o),
(210,426,o),
(159,426,cs),
(92,426,o),
(32,379,o),
(32,283,cs),
(32,188,o),
(92,88,o),
(171,-12,c),
(227,30,l),
(149,132,o),
(107,198,o),
(107,280,cs),
(107,324,o),
(127,356,o),
(168,356,cs),
(203,356,o),
(228,329,o),
(248,296,c)
);
}
);
width = 511;
},
{
layerId = "9A082071-1CDF-4F9E-B116-82A287035C9D";
shapes = (
{
closed = 1;
nodes = (
(387,514,l),
(387,411,l),
(454,391,l),
(452,414,l),
(441,419,o),
(420,424,o),
(399,424,cs),
(304,424,o),
(236,361,o),
(211,218,c),
(319,189,l),
(337,300,o),
(370,322,o),
(403,322,cs),
(422,322,o),
(433,318,o),
(447,309,c),
(387,358,l),
(387,0,l),
(508,0,l),
(508,514,l),
(578,514,l),
(578,622,l),
(0,622,l),
(0,514,l)
);
},
{
closed = 1;
nodes = (
(313,356,l),
(264,402,o),
(229,425,o),
(169,425,cs),
(103,425,o),
(26,381,o),
(26,266,cs),
(26,179,o),
(81,81,o),
(161,-16,c),
(254,49,l),
(190,130,o),
(147,192,o),
(147,260,cs),
(147,290,o),
(159,315,o),
(188,315,cs),
(213,315,o),
(232,294,o),
(254,259,c)
);
}
);
width = 566;
},
{
layerId = "6EDA54BC-5413-4E6E-9D6B-A24A39A704A7";
shapes = (
{
closed = 1;
nodes = (
(397,489,l),
(397,409,l),
(478,389,l),
(477,412,l),
(466,417,o),
(442,422,o),
(420,422,cs),
(315,422,o),
(243,357,o),
(216,211,c),
(348,175,l),
(364,277,o),
(392,299,o),
(426,299,cs),
(449,299,o),
(459,293,o),
(473,287,c),
(397,345,l),
(397,0,l),
(547,0,l),
(547,489,l),
(613,489,l),
(613,622,l),
(0,622,l),
(0,489,l)
);
},
{
closed = 1;
nodes = (
(331,354,l),
(278,402,o),
(242,424,o),
(176,424,cs),
(111,424,o),
(23,383,o),
(23,255,cs),
(23,174,o),
(75,77,o),
(156,-19,c),
(272,61,l),
(216,129,o),
(173,189,o),
(173,248,cs),
(173,269,o),
(180,290,o),
(202,290,cs),
(220,290,o),
(236,272,o),
(258,236,c)
);
}
);
width = 601;
}
);
subCategory = Other;
unicode = 2354;
}
{
category = Letter;
glyphname = ssadeva;
layers = (
{
layerId = "B871EA9A-50AC-43A6-961C-B7EB8764AD7C";
shapes = (
{
closed = 1;
nodes = (
(0,622,l),
(0,596,l),
(92,596,l),
(92,384,ls),
(92,301,o),
(106,258,o),
(135,226,cs),
(163,196,o),
(199,186,o),
(251,186,cs),
(328,186,o),
(385,230,o),
(426,267,c),
(405,253,l),
(405,0,l),
(431,0,l),
(431,596,l),
(546,596,l),
(546,622,l)
);
},
{
closed = 1;
nodes = (
(405,263,l),
(391,270,l),
(353,237,o),
(307,212,o),
(246,212,cs),
(209,212,o),
(174,221,o),
(152,246,cs),
(130,271,o),
(118,307,o),
(118,401,cs),
(118,596,l),
(405,596,l)
);
},
{
closed = 1;
nodes = (
(398,245,l),
(416,262,l),
(128,609,l),
(111,592,l)
);
}
);
width = 531;
},
{
layerId = "6C7CC43D-04A1-4971-B3B5-A41D54964AD2";
shapes = (
{
closed = 1;
nodes = (
(0,622,l),
(0,551,l),
(79,551,l),
(79,358,ls),
(79,272,o),
(94,230,o),
(128,194,cs),
(156,166,o),
(201,146,o),
(254,146,cs),
(331,146,o),
(382,175,o),
(427,203,c),
(408,228,l),
(408,0,l),
(489,0,l),
(489,551,l),
(593,551,l),
(593,622,l)
);
},
{
closed = 1;
nodes = (
(408,270,l),
(373,253,l),
(342,233,o),
(302,217,o),
(262,217,cs),
(229,217,o),
(205,224,o),
(189,240,cs),
(167,262,o),
(159,287,o),
(159,369,cs),
(159,551,l),
(408,551,l)
);
},
{
closed = 1;
nodes = (
(370,232,l),
(419,273,l),
(184,578,l),
(138,534,l)
);
}
);
width = 578;
},
{
layerId = UUID0;
shapes = (
{
closed = 1;
nodes = (
(0,622,l),
(0,512,l),
(68,512,l),
(68,345,ls),
(68,256,o),
(83,214,o),
(119,177,cs),
(148,147,o),
(194,127,o),
(259,127,cs),
(337,127,o),
(381,144,o),
(452,185,c),
(411,223,l),
(411,0,l),
(545,0,l),
(545,512,l),
(640,512,l),
(640,622,l)
);
},
{
closed = 1;
nodes = (
(411,292,l),
(385,271,l),
(358,253,o),
(321,237,o),
(282,237,cs),
(256,237,o),
(236,242,o),
(223,254,c),
(205,272,o),
(198,291,o),
(198,353,cs),
(198,512,l),
(411,512,l)
);
},
{
closed = 1;
nodes = (
(370,238,l),
(429,278,l),
(225,543,l),
(169,500,l)
);
}
);
width = 625;
},
{
layerId = "C05809E0-FD9D-43C4-90EB-E9E886B1ADAB";
shapes = (
{
closed = 1;
nodes = (
(0,622,l),
(0,484,l),
(57,484,l),
(57,349,ls),
(57,247,o),
(79,205,o),
(110,170,cs),
(135,141,o),
(186,113,o),
(262,113,cs),
(348,113,o),
(402,128,o),
(470,172,c),
(415,215,l),
(415,0,l),
(592,0,l),
(592,484,l),
(677,484,l),
(677,622,l)
);
},
{
closed = 1;
nodes = (
(415,303,l),
(390,284,l),
(362,261,o),
(329,251,o),
(295,251,cs),
(271,251,o),
(256,257,o),
(247,266,cs),
(232,281,o),
(229,300,o),
(229,349,cs),
(229,484,l),
(415,484,l)
);
},
{
closed = 1;
nodes = (
(368,245,l),
(438,295,l),
(259,526,l),
(189,476,l)
);
}
);
width = 662;
},
{
layerId = "5CC745D4-D12D-435B-A472-7D28876E43BC";
shapes = (
{
closed = 1;
nodes = (
(0,622,l),
(0,596,l),
(71,596,l),
(71,363,ls),
(71,289,o),
(79,256,o),
(100,228,cs),
(120,202,o),
(151,186,o),
(188,186,cs),
(244,186,o),
(282,215,o),
(304,249,c),
(300,253,l),
(300,0,l),
(326,0,l),
(326,596,l),
(415,596,l),
(415,622,l)
);
},
{
closed = 1;
nodes = (
(299,263,l),
(291,268,l),
(264,235,o),
(239,212,o),
(189,212,cs),
(160,212,o),
(138,223,o),
(123,241,cs),
(105,263,o),
(97,293,o),
(97,359,cs),
(97,596,l),
(299,596,l)
);
},
{
closed = 1;
nodes = (
(294,245,l),
(310,265,l),
(105,609,l),
(86,592,l)
);
}
);
width = 403;
},
{
layerId = "AA2163BC-B14D-4D16-A884-99BB623F1DBF";
shapes = (
{
closed = 1;
nodes = (
(0,622,l),
(0,554,l),
(56,554,l),
(56,337,ls),
(56,261,o),
(67,224,o),
(91,193,cs),
(111,168,o),
(141,147,o),
(191,147,cs),
(254,147,o),
(293,179,o),
(321,203,c),
(296,230,l),
(296,0,l),
(371,0,l),
(371,554,l),
(447,554,l),
(447,622,l)
);
},
{
closed = 1;
nodes = (
(296,269,l),
(280,252,l),
(259,231,o),
(233,215,o),
(196,215,cs),
(175,215,o),
(160,222,o),
(150,235,cs),
(137,252,o),
(130,275,o),
(130,347,cs),
(130,554,l),
(296,554,l)
);
},
{
closed = 1;
nodes = (
(266,232,l),
(306,272,l),
(151,580,l),
(111,536,l)
);
}
);
width = 435;
},
{
layerId = "9A082071-1CDF-4F9E-B116-82A287035C9D";
shapes = (
{
closed = 1;
nodes = (
(0,622,l),
(0,514,l),
(49,514,l),
(49,330,ls),
(49,247,o),
(61,209,o),
(85,179,cs),
(109,150,o),
(145,128,o),
(207,128,cs),
(272,128,o),
(307,150,o),
(349,188,c),
(306,221,l),
(306,0,l),
(427,0,l),
(427,514,l),
(497,514,l),
(497,622,l)
);
},
{
closed = 1;
nodes = (
(306,278,l),
(293,266,l),
(271,245,o),
(249,235,o),
(221,235,cs),
(199,235,o),
(188,242,o),
(180,253,cs),
(171,267,o),
(167,285,o),
(167,332,cs),
(167,514,l),
(306,514,l)
);
},
{
closed = 1;
nodes = (
(272,239,l),
(322,284,l),
(188,549,l),
(138,501,l)
);
}
);
width = 485;
},
{
layerId = "6EDA54BC-5413-4E6E-9D6B-A24A39A704A7";
shapes = (
{
closed = 1;
nodes = (
(0,622,l),
(0,489,l),
(44,489,l),
(44,325,ls),
(44,238,o),
(57,200,o),
(81,171,cs),
(107,139,o),
(147,116,o),
(217,116,cs),
(284,116,o),
(315,132,o),
(366,179,c),
(313,216,l),
(313,0,l),
(462,0,l),
(462,489,l),
(528,489,l),
(528,622,l)
);
},
{
closed = 1;
nodes = (
(312,284,l),
(301,275,l),
(278,253,o),
(259,248,o),
(236,248,cs),
(214,248,o),
(205,254,o),
(199,264,cs),
(192,277,o),
(190,291,o),
(190,323,cs),
(190,489,l),
(312,489,l)
);
},
{
closed = 1;
nodes = (
(276,244,l),
(332,292,l),
(212,529,l),
(155,479,l)
);
}
);
width = 516;
}
);
subCategory = Other;
unicode = 2359;
}
{
category = Letter;
glyphname = hadeva;
layers = (
{
anchors = (
{
name = Anchor8;
pos = (246,0);
}
);
layerId = "B871EA9A-50AC-43A6-961C-B7EB8764AD7C";
shapes = (
{
closed = 1;
nodes = (
(177,256,l),
(145,276,o),
(107,311,o),
(107,356,cs),
(107,378,o),
(111,394,o),
(121,406,cs),
(139,429,o),
(169,438,o),
(221,438,cs),
(390,438,l),
(390,596,l),
(505,596,l),
(505,622,l),
(0,622,l),
(0,596,l),
(364,596,l),
(364,464,l),
(227,464,ls),
(150,464,o),
(119,447,o),
(98,419,cs),
(86,403,o),
(80,385,o),
(80,359,cs),
(80,305,o),
(115,270,o),
(152,242,c)
);
},
{
closed = 1;
nodes = (
(317,14,l),
(391,40,o),
(432,77,o),
(432,153,cs),
(432,224,o),
(387,293,o),
(264,293,cs),
(153,293,o),
(69,233,o),
(69,127,cs),
(69,46,o),
(126,-28,o),
(255,-133,c),
(272,-114,l),
(122,12,o),
(96,61,o),
(96,129,cs),
(96,211,o),
(154,267,o),
(263,267,cs),
(367,267,o),
(405,218,o),
(405,151,cs),
(405,85,o),
(363,55,o),
(308,39,c)
);
}
);
width = 490;
},
{
anchors = (
{
name = Anchor8;
pos = (266,0);
}
);
layerId = "6C7CC43D-04A1-4971-B3B5-A41D54964AD2";
shapes = (
{
closed = 1;
nodes = (
(197,274,l),
(171,291,o),
(149,315,o),
(149,347,cs),
(149,361,o),
(154,373,o),
(164,381,cs),
(176,390,o),
(189,394,o),
(230,394,cs),
(442,394,l),
(442,551,l),
(546,551,l),
(546,622,l),
(0,622,l),
(0,551,l),
(361,551,l),
(361,465,l),
(229,465,ls),
(174,465,o),
(136,456,o),
(106,433,cs),
(83,416,o),
(69,389,o),
(69,352,cs),
(69,293,o),
(104,253,o),
(137,229,c)
);
},
{
closed = 1;
nodes = (
(348,2,l),
(434,25,o),
(481,75,o),
(481,153,cs),
(481,228,o),
(421,300,o),
(284,300,cs),
(168,300,o),
(58,242,o),
(58,130,cs),
(58,27,o),
(126,-47,o),
(248,-142,c),
(302,-89,l),
(161,16,o),
(138,62,o),
(138,124,cs),
(138,188,o),
(188,229,o),
(280,229,cs),
(367,229,o),
(403,198,o),
(403,148,cs),
(403,105,o),
(369,83,o),
(321,69,c)
);
}
);
width = 531;
},
{
anchors = (
{
name = Anchor8;
pos = (285,0);
}
);
layerId = UUID0;
shapes = (
{
closed = 1;
nodes = (
(235,242,l),
(203,264,o),
(188,284,o),
(188,305,cs),
(188,318,o),
(191,327,o),
(201,335,cs),
(211,343,o),
(221,346,o),
(258,346,cs),
(490,346,l),
(490,512,l),
(584,512,l),
(584,622,l),
(0,622,l),
(0,512,l),
(356,512,l),
(356,456,l),
(254,456,ls),
(173,456,o),
(132,446,o),
(99,419,c),
(74,400,o),
(57,370,o),
(57,328,cs),
(57,267,o),
(87,227,o),
(122,194,c)
);
},
{
closed = 1;
nodes = (
(372,-34,l),
(478,-9,o),
(530,42,o),
(530,126,cs),
(530,207,o),
(465,283,o),
(303,283,cs),
(170,283,o),
(45,224,o),
(45,100,cs),
(45,-1,o),
(118,-76,o),
(232,-169,c),
(319,-80,l),
(206,3,o),
(179,42,o),
(179,92,cs),
(179,141,o),
(220,172,o),
(299,172,cs),
(369,172,o),
(398,154,o),
(398,122,cs),
(398,95,o),
(372,81,o),
(336,72,c)
);
}
);
width = 570;
},
{
anchors = (
{
name = Anchor8;
pos = (292,0);
}
);
layerId = "C05809E0-FD9D-43C4-90EB-E9E886B1ADAB";
shapes = (
{
closed = 1;
nodes = (
(277,216,l),
(246,233,o),
(218,259,o),
(218,284,cs),
(218,293,o),
(221,300,o),
(226,304,cs),
(234,311,o),
(246,313,o),
(269,313,cs),
(519,313,l),
(519,484,l),
(604,484,l),
(604,622,l),
(0,622,l),
(0,484,l),
(345,484,l),
(345,444,l),
(272,444,ls),
(165,444,o),
(127,432,o),
(91,404,cs),
(65,383,o),
(45,352,o),
(45,308,cs),
(45,241,o),
(84,197,o),
(119,164,c)
);
},
{
closed = 1;
nodes = (
(377,-47,l),
(493,-20,o),
(559,21,o),
(559,109,cs),
(559,193,o),
(490,268,o),
(320,268,cs),
(159,268,o),
(32,211,o),
(32,89,cs),
(32,-6,o),
(105,-87,o),
(205,-173,c),
(314,-65,l),
(237,-6,o),
(209,32,o),
(209,70,cs),
(209,114,o),
(243,137,o),
(309,137,cs),
(366,137,o),
(384,127,o),
(384,108,cs),
(384,93,o),
(371,83,o),
(335,77,c)
);
}
);
width = 589;
},
{
anchors = (
{
name = Anchor8;
pos = (187,0);
}
);
layerId = "5CC745D4-D12D-435B-A472-7D28876E43BC";
shapes = (
{
closed = 1;
nodes = (
(143,263,l),
(121,283,o),
(89,320,o),
(89,367,cs),
(89,390,o),
(94,406,o),
(105,418,cs),
(119,432,o),
(137,438,o),
(177,438,cs),
(295,438,l),
(295,596,l),
(384,596,l),
(384,622,l),
(0,622,l),
(0,596,l),
(269,596,l),
(269,464,l),
(183,464,ls),
(127,464,o),
(103,454,o),
(85,435,cs),
(69,418,o),
(62,395,o),
(62,369,cs),
(62,317,o),
(95,275,o),
(121,248,c)
);
},
{
closed = 1;
nodes = (
(241,15,l),
(292,48,o),
(326,86,o),
(326,158,cs),
(326,224,o),
(291,293,o),
(200,293,cs),
(120,293,o),
(55,233,o),
(55,137,cs),
(55,57,o),
(98,-18,o),
(185,-123,c),
(206,-108,l),
(105,17,o),
(82,69,o),
(82,137,cs),
(82,211,o),
(127,267,o),
(199,267,cs),
(271,267,o),
(299,218,o),
(299,156,cs),
(299,96,o),
(270,62,o),
(225,36,c)
);
}
);
width = 372;
},
{
anchors = (
{
name = Anchor8;
pos = (200,0);
}
);
layerId = "AA2163BC-B14D-4D16-A884-99BB623F1DBF";
shapes = (
{
closed = 1;
nodes = (
(164,269,l),
(139,294,o),
(123,323,o),
(123,354,cs),
(123,365,o),
(126,377,o),
(132,383,cs),
(141,393,o),
(154,397,o),
(181,397,cs),
(335,397,l),
(335,554,l),
(411,554,l),
(411,622,l),
(0,622,l),
(0,554,l),
(260,554,l),
(260,465,l),
(196,465,ls),
(131,465,o),
(102,452,o),
(80,431,cs),
(61,413,o),
(50,388,o),
(50,356,cs),
(50,299,o),
(84,254,o),
(106,232,c)
);
},
{
closed = 1;
nodes = (
(266,5,l),
(324,36,o),
(363,78,o),
(363,155,cs),
(363,230,o),
(318,299,o),
(211,299,cs),
(122,299,o),
(41,236,o),
(41,132,cs),
(41,43,o),
(91,-29,o),
(168,-120,c),
(222,-76,l),
(141,9,o),
(115,65,o),
(115,131,cs),
(115,193,o),
(151,231,o),
(210,231,cs),
(266,231,o),
(290,201,o),
(290,150,cs),
(290,106,o),
(261,79,o),
(233,65,c)
);
}
);
width = 399;
},
{
anchors = (
{
name = Anchor8;
pos = (215,0);
}
);
layerId = "9A082071-1CDF-4F9E-B116-82A287035C9D";
shapes = (
{
closed = 1;
nodes = (
(205,241,l),
(178,264,o),
(159,289,o),
(159,317,cs),
(159,326,o),
(161,333,o),
(166,338,cs),
(173,346,o),
(183,349,o),
(206,349,cs),
(375,349,l),
(375,514,l),
(445,514,l),
(445,622,l),
(0,622,l),
(0,514,l),
(255,514,l),
(255,453,l),
(216,453,ls),
(135,453,o),
(103,441,o),
(76,416,cs),
(54,396,o),
(40,368,o),
(40,331,cs),
(40,266,o),
(74,223,o),
(99,194,c)
);
},
{
closed = 1;
nodes = (
(290,-25,l),
(363,8,o),
(405,49,o),
(405,129,cs),
(405,209,o),
(356,282,o),
(228,282,cs),
(129,282,o),
(32,222,o),
(32,104,cs),
(32,14,o),
(72,-47,o),
(154,-145,c),
(247,-80,l),
(179,-5,o),
(153,37,o),
(153,98,cs),
(153,148,o),
(185,178,o),
(230,178,cs),
(268,178,o),
(286,159,o),
(286,128,cs),
(286,99,o),
(266,83,o),
(240,72,c)
);
}
);
width = 433;
},
{
anchors = (
{
name = Anchor8;
pos = (225,0);
}
);
layerId = "6EDA54BC-5413-4E6E-9D6B-A24A39A704A7";
shapes = (
{
closed = 1;
nodes = (
(231,223,l),
(202,245,o),
(181,267,o),
(181,293,cs),
(181,301,o),
(183,306,o),
(187,310,cs),
(193,316,o),
(201,319,o),
(222,319,cs),
(400,319,l),
(400,489,l),
(466,489,l),
(466,622,l),
(0,622,l),
(0,489,l),
(252,489,l),
(252,446,l),
(228,446,ls),
(137,446,o),
(103,434,o),
(73,407,cs),
(50,386,o),
(34,355,o),
(34,316,cs),
(34,246,o),
(68,203,o),
(94,170,c)
);
},
{
closed = 1;
nodes = (
(304,-43,l),
(387,-9,o),
(431,31,o),
(431,112,cs),
(431,196,o),
(379,271,o),
(239,271,cs),
(129,271,o),
(26,211,o),
(26,87,cs),
(26,-6,o),
(66,-71,o),
(145,-163,c),
(261,-83,l),
(200,-18,o),
(176,27,o),
(176,77,cs),
(176,119,o),
(202,144,o),
(242,144,cs),
(269,144,o),
(283,132,o),
(283,114,cs),
(283,95,o),
(269,85,o),
(244,77,c)
);
}
);
width = 454;
}
);
subCategory = Other;
unicode = 2361;
}
{
category = Letter;
glyphname = aavowelsigndeva;
layers = (
{
layerId = "B871EA9A-50AC-43A6-961C-B7EB8764AD7C";
shapes = (
{
closed = 1;
nodes = (
(240,596,l),
(240,622,l),
(0,622,l),
(0,596,l),
(99,596,l),
(99,0,l),
(125,0,l),
(125,596,l)
);
}
);
width = 225;
},
{
layerId = "6C7CC43D-04A1-4971-B3B5-A41D54964AD2";
shapes = (
{
closed = 1;
nodes = (
(273,551,l),
(273,622,l),
(0,622,l),
(0,551,l),
(89,551,l),
(89,0,l),
(170,0,l),
(170,551,l)
);
}
);
width = 259;
},
{
layerId = UUID0;
shapes = (
{
closed = 1;
nodes = (
(309,512,l),
(309,622,l),
(0,622,l),
(0,512,l),
(80,512,l),
(80,0,l),
(214,0,l),
(214,512,l)
);
}
);
width = 294;
},
{
layerId = "C05809E0-FD9D-43C4-90EB-E9E886B1ADAB";
shapes = (
{
closed = 1;
nodes = (
(332,484,l),
(332,622,l),
(0,622,l),
(0,484,l),
(70,484,l),
(70,0,l),
(247,0,l),
(247,484,l)
);
}
);
width = 317;
},
{
layerId = "5CC745D4-D12D-435B-A472-7D28876E43BC";
shapes = (
{
closed = 1;
nodes = (
(191,596,l),
(191,622,l),
(0,622,l),
(0,596,l),
(76,596,l),
(76,0,l),
(102,0,l),
(102,596,l)
);
}
);
width = 179;
},
{
layerId = "AA2163BC-B14D-4D16-A884-99BB623F1DBF";
shapes = (
{
closed = 1;
nodes = (
(215,554,l),
(215,622,l),
(0,622,l),
(0,554,l),
(64,554,l),
(64,0,l),
(139,0,l),
(139,554,l)
);
}
);
width = 203;
},
{
layerId = "9A082071-1CDF-4F9E-B116-82A287035C9D";
shapes = (
{
closed = 1;
nodes = (
(249,514,l),
(249,622,l),
(0,622,l),
(0,514,l),
(58,514,l),
(58,0,l),
(179,0,l),
(179,514,l)
);
}
);
width = 237;
},
{
layerId = "6EDA54BC-5413-4E6E-9D6B-A24A39A704A7";
shapes = (
{
closed = 1;
nodes = (
(270,489,l),
(270,622,l),
(0,622,l),
(0,489,l),
(54,489,l),
(54,0,l),
(204,0,l),
(204,489,l)
);
}
);
width = 258;
}
);
subCategory = Other;
unicode = 2366;
}
{
category = Letter;
glyphname = iivowelsigndeva;
layers = (
{
layerId = "B871EA9A-50AC-43A6-961C-B7EB8764AD7C";
shapes = (
{
closed = 1;
nodes = (
(-106,615,l),
(-131,663,o),
(-149,705,o),
(-149,765,cs),
(-149,827,o),
(-124,870,o),
(-61,870,cs),
(5,870,o),
(48,819,o),
(95,622,c),
(0,622,l),
(0,596,l),
(99,596,l),
(99,0,l),
(125,0,l),
(125,596,l),
(240,596,l),
(240,622,l),
(121,622,l),
(78,800,o),
(39,896,o),
(-64,896,cs),
(-138,896,o),
(-176,839,o),
(-176,766,cs),
(-176,710,o),
(-157,660,o),
(-134,615,c)
);
}
);
width = 225;
},
{
layerId = "6C7CC43D-04A1-4971-B3B5-A41D54964AD2";
shapes = (
{
closed = 1;
nodes = (
(-105,615,l),
(-124,653,o),
(-139,688,o),
(-139,733,cs),
(-139,790,o),
(-110,825,o),
(-57,825,cs),
(16,825,o),
(50,761,o),
(87,622,c),
(0,622,l),
(0,551,l),
(89,551,l),
(89,0,l),
(170,0,l),
(170,551,l),
(273,551,l),
(273,622,l),
(163,622,l),
(111,814,o),
(58,896,o),
(-61,896,cs),
(-161,896,o),
(-220,834,o),
(-220,748,cs),
(-220,703,o),
(-208,661,o),
(-185,615,c)
);
}
);
width = 259;
},
{
layerId = UUID0;
shapes = (
{
closed = 1;
nodes = (
(-100,614,l),
(-115,643,o),
(-127,675,o),
(-127,715,cs),
(-127,757,o),
(-104,786,o),
(-56,786,cs),
(8,786,o),
(51,729,o),
(85,622,c),
(0,622,l),
(0,512,l),
(80,512,l),
(80,0,l),
(214,0,l),
(214,512,l),
(309,512,l),
(309,622,l),
(204,622,l),
(164,774,o),
(91,896,o),
(-70,896,cs),
(-189,896,o),
(-261,832,o),
(-261,734,cs),
(-261,698,o),
(-253,661,o),
(-229,615,c)
);
}
);
width = 294;
},
{
layerId = "C05809E0-FD9D-43C4-90EB-E9E886B1ADAB";
shapes = (
{
closed = 1;
nodes = (
(-82,615,l),
(-94,638,o),
(-104,666,o),
(-104,695,cs),
(-104,733,o),
(-84,758,o),
(-48,758,cs),
(9,758,o),
(44,707,o),
(73,622,c),
(0,622,l),
(0,484,l),
(70,484,l),
(70,0,l),
(247,0,l),
(247,484,l),
(332,484,l),
(332,622,l),
(228,622,l),
(198,747,o),
(120,896,o),
(-69,896,cs),
(-199,896,o),
(-281,829,o),
(-281,722,cs),
(-281,688,o),
(-272,649,o),
(-255,615,c)
);
}
);
width = 317;
},
{
layerId = "5CC745D4-D12D-435B-A472-7D28876E43BC";
shapes = (
{
closed = 1;
nodes = (
(-81,615,l),
(-100,666,o),
(-112,708,o),
(-112,769,cs),
(-112,827,o),
(-93,870,o),
(-45,870,cs),
(7,870,o),
(42,819,o),
(75,622,c),
(0,622,l),
(0,596,l),
(76,596,l),
(76,0,l),
(102,0,l),
(102,596,l),
(191,596,l),
(191,622,l),
(101,622,l),
(68,811,o),
(36,896,o),
(-47,896,cs),
(-109,896,o),
(-139,839,o),
(-139,771,cs),
(-139,708,o),
(-124,659,o),
(-107,615,c)
);
}
);
width = 179;
},
{
layerId = "AA2163BC-B14D-4D16-A884-99BB623F1DBF";
shapes = (
{
closed = 1;
nodes = (
(-71,615,l),
(-86,653,o),
(-98,689,o),
(-98,739,cs),
(-98,793,o),
(-77,828,o),
(-37,828,cs),
(10,828,o),
(37,760,o),
(65,622,c),
(0,622,l),
(0,554,l),
(64,554,l),
(64,0,l),
(139,0,l),
(139,554,l),
(215,554,l),
(215,622,l),
(134,622,l),
(100,812,o),
(55,896,o),
(-43,896,cs),
(-125,896,o),
(-173,834,o),
(-173,749,cs),
(-173,704,o),
(-162,659,o),
(-144,615,c)
);
}
);
width = 203;
},
{
layerId = "9A082071-1CDF-4F9E-B116-82A287035C9D";
shapes = (
{
closed = 1;
nodes = (
(-64,615,l),
(-74,644,o),
(-83,676,o),
(-83,716,cs),
(-83,763,o),
(-65,788,o),
(-33,788,cs),
(11,788,o),
(36,725,o),
(60,622,c),
(0,622,l),
(0,514,l),
(58,514,l),
(58,0,l),
(179,0,l),
(179,514,l),
(249,514,l),
(249,622,l),
(168,622,l),
(137,791,o),
(84,896,o),
(-45,896,cs),
(-142,896,o),
(-203,833,o),
(-203,739,cs),
(-203,697,o),
(-193,653,o),
(-179,615,c)
);
}
);
width = 237;
},
{
layerId = "6EDA54BC-5413-4E6E-9D6B-A24A39A704A7";
shapes = (
{
closed = 1;
nodes = (
(-60,615,l),
(-67,638,o),
(-74,668,o),
(-74,701,cs),
(-74,744,o),
(-58,763,o),
(-31,763,cs),
(12,763,o),
(36,703,o),
(57,622,c),
(0,622,l),
(0,489,l),
(54,489,l),
(54,0,l),
(204,0,l),
(204,489,l),
(270,489,l),
(270,622,l),
(189,622,l),
(160,778,o),
(103,896,o),
(-46,896,cs),
(-152,896,o),
(-222,832,o),
(-222,733,cs),
(-222,693,o),
(-213,650,o),
(-201,615,c)
);
}
);
width = 258;
}
);
subCategory = Other;
unicode = 2368;
}
{
category = Mark;
glyphname = uvowelsigndeva;
layers = (
{
anchors = (
{
name = _Anchor6;
pos = (-126,0);
}
);
layerId = "B871EA9A-50AC-43A6-961C-B7EB8764AD7C";
shapes = (
{
closed = 1;
nodes = (
(-211,-46,l),
(-180,-30,o),
(-152,-23,o),
(-118,-23,cs),
(-65,-23,o),
(-11,-50,o),
(-11,-126,cs),
(-11,-189,o),
(-54,-229,o),
(-141,-229,cs),
(-247,-229,o),
(-323,-177,o),
(-388,-85,c),
(-409,-100,l),
(-346,-190,o),
(-265,-255,o),
(-140,-255,cs),
(-38,-255,o),
(16,-201,o),
(16,-127,cs),
(16,-44,o),
(-41,3,o),
(-118,3,cs),
(-158,3,o),
(-189,-6,o),
(-220,-21,c)
);
}
);
width = 0;
},
{
anchors = (
{
name = _Anchor6;
pos = (-170,0);
}
);
layerId = "6C7CC43D-04A1-4971-B3B5-A41D54964AD2";
shapes = (
{
closed = 1;
nodes = (
(-222,-79,l),
(-194,-65,o),
(-167,-57,o),
(-131,-57,cs),
(-90,-57,o),
(-51,-78,o),
(-51,-122,cs),
(-51,-170,o),
(-86,-196,o),
(-157,-196,cs),
(-256,-196,o),
(-317,-154,o),
(-394,-57,c),
(-455,-100,l),
(-375,-202,o),
(-286,-268,o),
(-157,-268,cs),
(-42,-268,o),
(22,-210,o),
(22,-129,cs),
(22,-45,o),
(-36,11,o),
(-136,11,cs),
(-173,11,o),
(-213,3,o),
(-248,-12,c)
);
}
);
width = 0;
},
{
anchors = (
{
name = _Anchor6;
pos = (-214,0);
}
);
layerId = UUID0;
shapes = (
{
closed = 1;
nodes = (
(-229,-87,l),
(-206,-78,o),
(-181,-71,o),
(-154,-71,cs),
(-122,-71,o),
(-95,-83,o),
(-95,-117,cs),
(-95,-150,o),
(-122,-167,o),
(-167,-167,cs),
(-245,-167,o),
(-309,-129,o),
(-392,-36,c),
(-483,-102,l),
(-395,-202,o),
(-302,-268,o),
(-158,-268,cs),
(-42,-268,o),
(23,-206,o),
(23,-121,cs),
(23,-33,o),
(-41,30,o),
(-148,30,cs),
(-186,30,o),
(-225,22,o),
(-264,7,c)
);
}
);
width = 0;
},
{
anchors = (
{
name = _Anchor6;
pos = (-247,0);
}
);
layerId = "C05809E0-FD9D-43C4-90EB-E9E886B1ADAB";
shapes = (
{
closed = 1;
nodes = (
(-253,-94,l),
(-233,-87,o),
(-208,-82,o),
(-190,-82,cs),
(-161,-82,o),
(-147,-92,o),
(-147,-113,cs),
(-147,-134,o),
(-164,-144,o),
(-196,-144,cs),
(-263,-144,o),
(-326,-117,o),
(-412,-22,c),
(-525,-100,l),
(-438,-200,o),
(-331,-268,o),
(-188,-268,cs),
(-57,-268,o),
(7,-203,o),
(7,-118,cs),
(7,-24,o),
(-60,41,o),
(-170,41,cs),
(-217,41,o),
(-252,33,o),
(-295,18,c)
);
}
);
width = 0;
},
{
anchors = (
{
name = _Anchor6;
pos = (-103,0);
}
);
layerId = "5CC745D4-D12D-435B-A472-7D28876E43BC";
shapes = (
{
closed = 1;
nodes = (
(-166,-38,l),
(-146,-28,o),
(-124,-23,o),
(-100,-23,cs),
(-58,-23,o),
(-15,-50,o),
(-15,-124,cs),
(-15,-190,o),
(-47,-229,o),
(-115,-229,cs),
(-188,-229,o),
(-241,-174,o),
(-289,-88,c),
(-312,-101,l),
(-258,-196,o),
(-200,-255,o),
(-112,-255,cs),
(-30,-255,o),
(11,-199,o),
(11,-127,cs),
(11,-44,o),
(-35,3,o),
(-101,3,cs),
(-132,3,o),
(-154,-5,o),
(-176,-14,c)
);
}
);
width = 0;
},
{
anchors = (
{
name = _Anchor6;
pos = (-139,0);
}
);
layerId = "AA2163BC-B14D-4D16-A884-99BB623F1DBF";
shapes = (
{
closed = 1;
nodes = (
(-175,-72,l),
(-156,-63,o),
(-139,-57,o),
(-117,-57,cs),
(-85,-57,o),
(-55,-74,o),
(-55,-128,cs),
(-55,-176,o),
(-84,-199,o),
(-132,-199,cs),
(-194,-199,o),
(-236,-160,o),
(-286,-70,c),
(-350,-102,l),
(-296,-197,o),
(-233,-268,o),
(-127,-268,cs),
(-36,-268,o),
(15,-215,o),
(15,-130,cs),
(15,-46,o),
(-31,10,o),
(-116,10,cs),
(-143,10,o),
(-175,3,o),
(-203,-11,c)
);
}
);
width = 0;
},
{
anchors = (
{
name = _Anchor6;
pos = (-179,0);
}
);
layerId = "9A082071-1CDF-4F9E-B116-82A287035C9D";
shapes = (
{
closed = 1;
nodes = (
(-192,-82,l),
(-177,-75,o),
(-161,-71,o),
(-146,-71,cs),
(-119,-71,o),
(-101,-86,o),
(-101,-120,cs),
(-101,-150,o),
(-120,-168,o),
(-155,-168,cs),
(-207,-168,o),
(-243,-141,o),
(-297,-52,c),
(-388,-100,l),
(-326,-201,o),
(-257,-268,o),
(-148,-268,cs),
(-48,-268,o),
(5,-208,o),
(5,-122,cs),
(5,-34,o),
(-46,28,o),
(-133,28,cs),
(-166,28,o),
(-197,21,o),
(-227,7,c)
);
}
);
width = 0;
},
{
anchors = (
{
name = _Anchor6;
pos = (-204,0);
}
);
layerId = "6EDA54BC-5413-4E6E-9D6B-A24A39A704A7";
shapes = (
{
closed = 1;
nodes = (
(-202,-88,l),
(-190,-83,o),
(-175,-80,o),
(-164,-80,cs),
(-140,-80,o),
(-130,-93,o),
(-130,-115,cs),
(-130,-134,o),
(-142,-148,o),
(-170,-148,cs),
(-215,-148,o),
(-248,-129,o),
(-304,-40,c),
(-412,-98,l),
(-345,-203,o),
(-272,-268,o),
(-161,-268,cs),
(-55,-268,o),
(-1,-204,o),
(-1,-117,cs),
(-1,-26,o),
(-55,39,o),
(-143,39,cs),
(-180,39,o),
(-210,32,o),
(-242,19,c)
);
}
);
width = 0;
}
);
subCategory = Nonspacing;
unicode = 2369;
}
{
category = Mark;
glyphname = rvocalicvowelsigndeva;
layers = (
{
anchors = (
{
name = _Anchor6;
pos = (-126,0);
}
);
layerId = "B871EA9A-50AC-43A6-961C-B7EB8764AD7C";
shapes = (
{
closed = 1;
nodes = (
(-3,-198,l),
(-48,-222,o),
(-76,-229,o),
(-116,-229,cs),
(-173,-229,o),
(-225,-203,o),
(-225,-127,cs),
(-225,-68,o),
(-181,-21,o),
(-98,-12,c),
(-100,13,l),
(-199,3,o),
(-252,-58,o),
(-252,-127,cs),
(-252,-208,o),
(-194,-255,o),
(-115,-255,cs),
(-75,-255,o),
(-38,-246,o),
(6,-223,c)
);
}
);
width = 0;
},
{
anchors = (
{
name = _Anchor6;
pos = (-170,0);
}
);
layerId = "6C7CC43D-04A1-4971-B3B5-A41D54964AD2";
shapes = (
{
closed = 1;
nodes = (
(2,-164,l),
(-44,-188,o),
(-69,-197,o),
(-111,-197,cs),
(-152,-197,o),
(-192,-178,o),
(-192,-132,cs),
(-192,-88,o),
(-160,-57,o),
(-82,-48,c),
(-89,18,l),
(-206,11,o),
(-266,-52,o),
(-266,-126,cs),
(-266,-210,o),
(-206,-268,o),
(-106,-268,cs),
(-52,-268,o),
(-7,-251,o),
(27,-233,c)
);
}
);
width = 0;
},
{
anchors = (
{
name = _Anchor6;
pos = (-214,0);
}
);
layerId = UUID0;
shapes = (
{
closed = 1;
nodes = (
(6,-136,l),
(-40,-159,o),
(-68,-167,o),
(-99,-167,cs),
(-139,-167,o),
(-160,-151,o),
(-160,-121,cs),
(-160,-92,o),
(-139,-67,o),
(-71,-63,c),
(-83,40,l),
(-208,32,o),
(-278,-27,o),
(-278,-123,cs),
(-278,-209,o),
(-205,-268,o),
(-105,-268,cs),
(-37,-268,o),
(10,-250,o),
(45,-233,c)
);
}
);
width = 0;
},
{
anchors = (
{
name = _Anchor6;
pos = (-247,0);
}
);
layerId = "C05809E0-FD9D-43C4-90EB-E9E886B1ADAB";
shapes = (
{
closed = 1;
nodes = (
(7,-116,l),
(-36,-137,o),
(-62,-145,o),
(-93,-145,cs),
(-123,-145,o),
(-139,-131,o),
(-139,-108,cs),
(-139,-85,o),
(-124,-63,o),
(-60,-60,c),
(-76,52,l),
(-214,42,o),
(-297,-9,o),
(-297,-110,cs),
(-297,-207,o),
(-217,-268,o),
(-110,-268,cs),
(-37,-268,o),
(16,-247,o),
(54,-231,c)
);
}
);
width = 0;
},
{
anchors = (
{
name = _Anchor6;
pos = (-103,0);
}
);
layerId = "5CC745D4-D12D-435B-A472-7D28876E43BC";
shapes = (
{
closed = 1;
nodes = (
(0,-204,l),
(-32,-223,o),
(-55,-229,o),
(-85,-229,cs),
(-131,-229,o),
(-175,-205,o),
(-175,-130,cs),
(-175,-69,o),
(-136,-31,o),
(-74,-15,c),
(-78,10,l),
(-154,-8,o),
(-201,-58,o),
(-201,-129,cs),
(-201,-211,o),
(-152,-255,o),
(-83,-255,cs),
(-52,-255,o),
(-20,-247,o),
(11,-228,c)
);
}
);
width = 0;
},
{
anchors = (
{
name = _Anchor6;
pos = (-139,0);
}
);
layerId = "AA2163BC-B14D-4D16-A884-99BB623F1DBF";
shapes = (
{
closed = 1;
nodes = (
(-1,-176,l),
(-27,-190,o),
(-47,-199,o),
(-80,-199,cs),
(-110,-199,o),
(-142,-180,o),
(-142,-131,cs),
(-142,-84,o),
(-106,-55,o),
(-57,-43,c),
(-67,24,l),
(-159,7,o),
(-213,-47,o),
(-213,-129,cs),
(-213,-210,o),
(-164,-268,o),
(-79,-268,cs),
(-33,-268,o),
(-5,-256,o),
(28,-240,c)
);
}
);
width = 0;
},
{
anchors = (
{
name = _Anchor6;
pos = (-179,0);
}
);
layerId = "9A082071-1CDF-4F9E-B116-82A287035C9D";
shapes = (
{
closed = 1;
nodes = (
(-4,-147,l),
(-32,-162,o),
(-53,-168,o),
(-78,-168,cs),
(-100,-168,o),
(-127,-157,o),
(-127,-121,cs),
(-127,-87,o),
(-99,-64,o),
(-50,-53,c),
(-64,46,l),
(-173,29,o),
(-237,-25,o),
(-237,-119,cs),
(-237,-208,o),
(-180,-268,o),
(-91,-268,cs),
(-38,-268,o),
(0,-255,o),
(35,-238,c)
);
}
);
width = 0;
},
{
anchors = (
{
name = _Anchor6;
pos = (-204,0);
}
);
layerId = "6EDA54BC-5413-4E6E-9D6B-A24A39A704A7";
shapes = (
{
closed = 1;
nodes = (
(-7,-129,l),
(-35,-144,o),
(-57,-149,o),
(-78,-149,cs),
(-95,-149,o),
(-118,-143,o),
(-118,-115,cs),
(-118,-89,o),
(-96,-70,o),
(-46,-59,c),
(-63,59,l),
(-183,43,o),
(-253,-12,o),
(-253,-112,cs),
(-253,-207,o),
(-190,-268,o),
(-99,-268,cs),
(-41,-268,o),
(2,-254,o),
(39,-237,c)
);
}
);
width = 0;
}
);
subCategory = Nonspacing;
unicode = 2371;
}
{
category = Mark;
glyphname = rrvocalicvowelsigndeva;
layers = (
{
anchors = (
{
name = _Anchor6;
pos = (-126,0);
}
);
layerId = "B871EA9A-50AC-43A6-961C-B7EB8764AD7C";
shapes = (
{
closed = 1;
nodes = (
(-3,-159,l),
(-48,-183,o),
(-76,-190,o),
(-116,-190,cs),
(-176,-190,o),
(-225,-169,o),
(-225,-107,cs),
(-225,-55,o),
(-185,-19,o),
(-98,-12,c),
(-100,13,l),
(-207,5,o),
(-252,-47,o),
(-252,-107,cs),
(-252,-175,o),
(-203,-216,o),
(-115,-216,cs),
(-75,-216,o),
(-38,-207,o),
(6,-184,c)
);
},
{
closed = 1;
nodes = (
(33,-312,l),
(-12,-336,o),
(-40,-343,o),
(-80,-343,cs),
(-140,-343,o),
(-189,-322,o),
(-189,-260,cs),
(-189,-231,o),
(-177,-211,o),
(-160,-197,c),
(-182,-183,l),
(-203,-205,o),
(-216,-227,o),
(-216,-260,cs),
(-216,-328,o),
(-167,-369,o),
(-79,-369,cs),
(-39,-369,o),
(-2,-360,o),
(42,-337,c)
);
}
);
width = 0;
},
{
anchors = (
{
name = _Anchor6;
pos = (-170,0);
}
);
layerId = "6C7CC43D-04A1-4971-B3B5-A41D54964AD2";
shapes = (
{
closed = 1;
nodes = (
(2,-141,l),
(-43,-161,o),
(-69,-169,o),
(-111,-169,cs),
(-159,-169,o),
(-192,-152,o),
(-192,-115,cs),
(-192,-82,o),
(-160,-55,o),
(-82,-48,c),
(-89,18,l),
(-206,12,o),
(-266,-44,o),
(-266,-107,cs),
(-266,-193,o),
(-188,-238,o),
(-106,-238,cs),
(-52,-238,o),
(-7,-222,o),
(27,-204,c)
);
},
{
closed = 1;
nodes = (
(42,-296,l),
(-4,-316,o),
(-30,-324,o),
(-72,-324,cs),
(-122,-324,o),
(-153,-308,o),
(-153,-271,cs),
(-153,-253,o),
(-145,-238,o),
(-126,-222,c),
(-201,-195,l),
(-217,-216,o),
(-227,-239,o),
(-227,-262,cs),
(-227,-338,o),
(-173,-394,o),
(-67,-394,cs),
(-13,-394,o),
(32,-377,o),
(66,-359,c)
);
}
);
width = 0;
},
{
anchors = (
{
name = _Anchor6;
pos = (-214,0);
}
);
layerId = UUID0;
shapes = (
{
closed = 1;
nodes = (
(9,-114,l),
(-37,-137,o),
(-65,-145,o),
(-99,-145,cs),
(-143,-145,o),
(-160,-131,o),
(-160,-105,cs),
(-160,-80,o),
(-139,-59,o),
(-72,-56,c),
(-83,40,l),
(-208,33,o),
(-278,-21,o),
(-278,-107,cs),
(-278,-185,o),
(-205,-238,o),
(-105,-238,cs),
(-37,-238,o),
(10,-221,o),
(45,-204,c)
);
},
{
closed = 1;
nodes = (
(52,-269,l),
(6,-292,o),
(-22,-300,o),
(-56,-300,cs),
(-100,-300,o),
(-117,-286,o),
(-117,-261,cs),
(-117,-249,o),
(-112,-237,o),
(-99,-229,c),
(-199,-172,l),
(-223,-195,o),
(-235,-226,o),
(-235,-262,cs),
(-235,-340,o),
(-162,-394,o),
(-62,-394,cs),
(6,-394,o),
(53,-376,o),
(88,-359,c)
);
}
);
width = 0;
},
{
anchors = (
{
name = _Anchor6;
pos = (-247,0);
}
);
layerId = "C05809E0-FD9D-43C4-90EB-E9E886B1ADAB";
shapes = (
{
closed = 1;
nodes = (
(9,-97,l),
(-34,-118,o),
(-62,-125,o),
(-93,-125,cs),
(-123,-125,o),
(-139,-115,o),
(-139,-97,cs),
(-139,-77,o),
(-123,-61,o),
(-60,-60,c),
(-76,52,l),
(-214,43,o),
(-297,-3,o),
(-297,-95,cs),
(-297,-183,o),
(-217,-238,o),
(-110,-238,cs),
(-37,-238,o),
(16,-219,o),
(54,-205,c)
);
},
{
closed = 1;
nodes = (
(51,-253,l),
(8,-274,o),
(-20,-281,o),
(-51,-281,cs),
(-81,-281,o),
(-97,-271,o),
(-97,-253,cs),
(-97,-241,o),
(-91,-230,o),
(-73,-224,c),
(-196,-146,l),
(-234,-170,o),
(-255,-205,o),
(-255,-251,cs),
(-255,-339,o),
(-175,-394,o),
(-68,-394,cs),
(5,-394,o),
(58,-376,o),
(96,-362,c)
);
}
);
width = 0;
},
{
anchors = (
{
name = _Anchor6;
pos = (-103,0);
}
);
layerId = "5CC745D4-D12D-435B-A472-7D28876E43BC";
shapes = (
{
closed = 1;
nodes = (
(0,-165,l),
(-32,-184,o),
(-55,-190,o),
(-86,-190,cs),
(-133,-190,o),
(-175,-175,o),
(-175,-115,cs),
(-175,-61,o),
(-133,-28,o),
(-74,-15,c),
(-78,10,l),
(-158,-6,o),
(-201,-54,o),
(-201,-114,cs),
(-201,-180,o),
(-158,-216,o),
(-85,-216,cs),
(-52,-216,o),
(-20,-208,o),
(11,-189,c)
);
},
{
closed = 1;
nodes = (
(31,-318,l),
(-1,-337,o),
(-24,-343,o),
(-55,-343,cs),
(-102,-343,o),
(-144,-328,o),
(-144,-268,cs),
(-144,-239,o),
(-133,-217,o),
(-114,-199,c),
(-136,-186,l),
(-156,-208,o),
(-170,-233,o),
(-170,-267,cs),
(-170,-333,o),
(-127,-369,o),
(-53,-369,cs),
(-21,-369,o),
(11,-361,o),
(42,-342,c)
);
}
);
width = 0;
},
{
anchors = (
{
name = _Anchor6;
pos = (-139,0);
}
);
layerId = "AA2163BC-B14D-4D16-A884-99BB623F1DBF";
shapes = (
{
closed = 1;
nodes = (
(0,-147,l),
(-32,-165,o),
(-53,-171,o),
(-80,-171,cs),
(-114,-171,o),
(-141,-156,o),
(-141,-117,cs),
(-141,-83,o),
(-117,-57,o),
(-57,-43,c),
(-67,24,l),
(-171,6,o),
(-213,-51,o),
(-213,-114,cs),
(-213,-198,o),
(-154,-238,o),
(-79,-238,cs),
(-38,-238,o),
(-4,-227,o),
(28,-210,c)
);
},
{
closed = 1;
nodes = (
(37,-303,l),
(5,-321,o),
(-16,-327,o),
(-43,-327,cs),
(-77,-327,o),
(-104,-312,o),
(-104,-273,cs),
(-104,-254,o),
(-97,-239,o),
(-85,-223,c),
(-152,-196,l),
(-168,-220,o),
(-176,-243,o),
(-176,-270,cs),
(-176,-354,o),
(-117,-394,o),
(-42,-394,cs),
(-1,-394,o),
(33,-383,o),
(65,-366,c)
);
}
);
width = 0;
},
{
anchors = (
{
name = _Anchor6;
pos = (-179,0);
}
);
layerId = "9A082071-1CDF-4F9E-B116-82A287035C9D";
shapes = (
{
closed = 1;
nodes = (
(-3,-120,l),
(-31,-136,o),
(-53,-143,o),
(-80,-143,cs),
(-107,-143,o),
(-126,-133,o),
(-126,-105,cs),
(-126,-78,o),
(-106,-59,o),
(-50,-47,c),
(-64,46,l),
(-176,30,o),
(-237,-23,o),
(-237,-104,cs),
(-237,-188,o),
(-182,-238,o),
(-90,-238,cs),
(-42,-238,o),
(1,-224,o),
(35,-207,c)
);
},
{
closed = 1;
nodes = (
(36,-276,l),
(8,-292,o),
(-14,-299,o),
(-42,-299,cs),
(-68,-299,o),
(-88,-289,o),
(-88,-262,cs),
(-88,-247,o),
(-82,-233,o),
(-70,-221,c),
(-156,-168,l),
(-180,-192,o),
(-198,-220,o),
(-198,-260,cs),
(-198,-344,o),
(-143,-394,o),
(-51,-394,cs),
(-2,-394,o),
(40,-380,o),
(74,-363,c)
);
}
);
width = 0;
},
{
anchors = (
{
name = _Anchor6;
pos = (-204,0);
}
);
layerId = "6EDA54BC-5413-4E6E-9D6B-A24A39A704A7";
shapes = (
{
closed = 1;
nodes = (
(-5,-103,l),
(-31,-117,o),
(-54,-125,o),
(-81,-125,cs),
(-103,-125,o),
(-118,-118,o),
(-118,-97,cs),
(-118,-75,o),
(-99,-61,o),
(-47,-50,c),
(-63,59,l),
(-179,45,o),
(-253,-6,o),
(-253,-98,cs),
(-253,-182,o),
(-200,-238,o),
(-98,-238,cs),
(-45,-238,o),
(3,-222,o),
(39,-205,c)
);
},
{
closed = 1;
nodes = (
(36,-259,l),
(10,-273,o),
(-13,-281,o),
(-41,-281,cs),
(-62,-281,o),
(-77,-275,o),
(-77,-255,cs),
(-77,-243,o),
(-72,-229,o),
(-60,-220,c),
(-158,-150,l),
(-187,-175,o),
(-212,-206,o),
(-212,-254,cs),
(-212,-338,o),
(-159,-394,o),
(-57,-394,cs),
(-3,-394,o),
(44,-378,o),
(80,-361,c)
);
}
);
width = 0;
}
);
subCategory = Nonspacing;
unicode = 2372;
}
{
category = Mark;
glyphname = eshortvowelsigndeva;
layers = (
{
anchors = (
{
name = _Anchor2;
pos = (-126,622);
}
);
layerId = "B871EA9A-50AC-43A6-961C-B7EB8764AD7C";
shapes = (
{
closed = 1;
nodes = (
(-102,615,l),
(-132,774,o),
(-173,794,o),
(-227,794,cs),
(-249,794,o),
(-271,790,o),
(-288,790,cs),
(-347,790,o),
(-360,812,o),
(-388,896,c),
(-412,888,l),
(-377,783,o),
(-347,764,o),
(-287,764,cs),
(-266,764,o),
(-248,768,o),
(-226,768,cs),
(-168,768,o),
(-154,721,o),
(-128,615,c)
);
}
);
width = 0;
},
{
anchors = (
{
name = _Anchor2;
pos = (-170,622);
}
);
layerId = "6C7CC43D-04A1-4971-B3B5-A41D54964AD2";
shapes = (
{
closed = 1;
nodes = (
(-94,615,l),
(-130,769,o),
(-174,812,o),
(-248,812,cs),
(-272,812,o),
(-294,808,o),
(-312,808,cs),
(-369,808,o),
(-387,837,o),
(-409,896,c),
(-475,873,l),
(-436,763,o),
(-386,737,o),
(-316,737,cs),
(-299,737,o),
(-282,739,o),
(-264,739,cs),
(-214,739,o),
(-192,711,o),
(-170,615,c)
);
}
);
width = 0;
},
{
anchors = (
{
name = _Anchor2;
pos = (-214,622);
}
);
layerId = UUID0;
shapes = (
{
closed = 1;
nodes = (
(-88,615,l),
(-135,792,o),
(-179,826,o),
(-254,826,cs),
(-277,826,o),
(-293,823,o),
(-320,823,cs),
(-366,823,o),
(-381,846,o),
(-402,896,c),
(-506,858,l),
(-465,748,o),
(-415,717,o),
(-353,717,cs),
(-333,717,o),
(-320,720,o),
(-302,720,cs),
(-261,720,o),
(-231,702,o),
(-207,615,c)
);
}
);
width = 0;
},
{
anchors = (
{
name = _Anchor2;
pos = (-247,622);
}
);
layerId = "C05809E0-FD9D-43C4-90EB-E9E886B1ADAB";
shapes = (
{
closed = 1;
nodes = (
(-88,615,l),
(-136,803,o),
(-189,833,o),
(-263,833,cs),
(-292,833,o),
(-313,830,o),
(-339,830,cs),
(-376,830,o),
(-389,847,o),
(-411,896,c),
(-534,851,l),
(-492,741,o),
(-449,706,o),
(-384,706,cs),
(-371,706,o),
(-352,709,o),
(-328,709,cs),
(-298,709,o),
(-265,697,o),
(-241,615,c)
);
}
);
width = 0;
},
{
anchors = (
{
name = _Anchor2;
pos = (-103,622);
}
);
layerId = "5CC745D4-D12D-435B-A472-7D28876E43BC";
shapes = (
{
closed = 1;
nodes = (
(-78,614,l),
(-102,769,o),
(-126,793,o),
(-172,793,cs),
(-185,793,o),
(-202,789,o),
(-217,789,cs),
(-260,789,o),
(-272,817,o),
(-289,896,c),
(-314,891,l),
(-292,781,o),
(-262,763,o),
(-217,763,cs),
(-202,763,o),
(-188,767,o),
(-170,767,cs),
(-135,767,o),
(-124,731,o),
(-104,614,c)
);
}
);
width = 0;
},
{
anchors = (
{
name = _Anchor2;
pos = (-139,622);
}
);
layerId = "AA2163BC-B14D-4D16-A884-99BB623F1DBF";
shapes = (
{
closed = 1;
nodes = (
(-69,615,l),
(-95,774,o),
(-125,811,o),
(-179,811,cs),
(-199,811,o),
(-213,807,o),
(-231,807,cs),
(-265,807,o),
(-277,826,o),
(-299,896,c),
(-360,879,l),
(-331,762,o),
(-288,739,o),
(-244,739,cs),
(-229,739,o),
(-214,741,o),
(-201,741,cs),
(-167,741,o),
(-154,711,o),
(-137,615,c)
);
}
);
width = 0;
},
{
anchors = (
{
name = _Anchor2;
pos = (-179,622);
}
);
layerId = "9A082071-1CDF-4F9E-B116-82A287035C9D";
shapes = (
{
closed = 1;
nodes = (
(-69,615,l),
(-100,788,o),
(-137,824,o),
(-193,824,cs),
(-216,824,o),
(-232,821,o),
(-247,821,cs),
(-278,821,o),
(-291,837,o),
(-309,896,c),
(-400,870,l),
(-370,753,o),
(-329,721,o),
(-279,721,cs),
(-267,721,o),
(-250,723,o),
(-238,723,cs),
(-206,723,o),
(-193,700,o),
(-175,615,c)
);
}
);
width = 0;
},
{
anchors = (
{
name = _Anchor2;
pos = (-204,622);
}
);
layerId = "6EDA54BC-5413-4E6E-9D6B-A24A39A704A7";
shapes = (
{
closed = 1;
nodes = (
(-69,615,l),
(-102,797,o),
(-144,832,o),
(-202,832,cs),
(-226,832,o),
(-243,829,o),
(-256,829,cs),
(-285,829,o),
(-300,844,o),
(-315,896,c),
(-424,865,l),
(-394,748,o),
(-354,709,o),
(-301,709,cs),
(-291,709,o),
(-272,711,o),
(-261,711,cs),
(-230,711,o),
(-217,693,o),
(-199,615,c)
);
}
);
width = 0;
}
);
subCategory = Nonspacing;
unicode = 2374;
}
{
category = Mark;
glyphname = evowelsigndeva;
layers = (
{
anchors = (
{
name = _Anchor2;
pos = (-126,622);
}
);
layerId = "B871EA9A-50AC-43A6-961C-B7EB8764AD7C";
shapes = (
{
closed = 1;
nodes = (
(-102,615,l),
(-147,800,o),
(-185,896,o),
(-290,896,cs),
(-330,896,o),
(-356,889,o),
(-380,880,c),
(-370,854,l),
(-350,863,o),
(-319,870,o),
(-289,870,cs),
(-221,870,o),
(-177,818,o),
(-128,615,c)
);
}
);
width = 0;
},
{
anchors = (
{
name = _Anchor2;
pos = (-170,622);
}
);
layerId = "6C7CC43D-04A1-4971-B3B5-A41D54964AD2";
shapes = (
{
closed = 1;
nodes = (
(-94,615,l),
(-151,829,o),
(-210,896,o),
(-318,896,cs),
(-355,896,o),
(-381,892,o),
(-409,882,c),
(-385,809,l),
(-366,816,o),
(-345,823,o),
(-315,823,cs),
(-247,823,o),
(-211,773,o),
(-169,615,c)
);
}
);
width = 0;
},
{
anchors = (
{
name = _Anchor2;
pos = (-214,622);
}
);
layerId = UUID0;
shapes = (
{
closed = 1;
nodes = (
(-88,615,l),
(-154,857,o),
(-226,896,o),
(-333,896,cs),
(-373,896,o),
(-406,889,o),
(-438,876,c),
(-402,771,l),
(-384,778,o),
(-360,784,o),
(-334,784,cs),
(-267,784,o),
(-242,733,o),
(-207,615,c)
);
}
);
width = 0;
},
{
anchors = (
{
name = _Anchor2;
pos = (-247,622);
}
);
layerId = "C05809E0-FD9D-43C4-90EB-E9E886B1ADAB";
shapes = (
{
closed = 1;
nodes = (
(-88,615,l),
(-154,868,o),
(-243,896,o),
(-344,896,cs),
(-390,896,o),
(-429,888,o),
(-464,873,c),
(-419,743,l),
(-402,751,o),
(-376,756,o),
(-352,756,cs),
(-296,756,o),
(-275,715,o),
(-241,615,c)
);
}
);
width = 0;
},
{
anchors = (
{
name = _Anchor2;
pos = (-103,622);
}
);
layerId = "5CC745D4-D12D-435B-A472-7D28876E43BC";
shapes = (
{
closed = 1;
nodes = (
(-79,615,l),
(-118,836,o),
(-153,896,o),
(-231,896,cs),
(-255,896,o),
(-275,891,o),
(-288,886,c),
(-280,860,l),
(-265,866,o),
(-248,870,o),
(-228,870,cs),
(-168,870,o),
(-139,803,o),
(-105,615,c)
);
}
);
width = 0;
},
{
anchors = (
{
name = _Anchor2;
pos = (-139,622);
}
);
layerId = "AA2163BC-B14D-4D16-A884-99BB623F1DBF";
shapes = (
{
closed = 1;
nodes = (
(-69,615,l),
(-104,825,o),
(-155,896,o),
(-245,896,cs),
(-268,896,o),
(-288,892,o),
(-311,885,c),
(-291,815,l),
(-275,822,o),
(-260,825,o),
(-242,825,cs),
(-195,825,o),
(-166,775,o),
(-137,615,c)
);
}
);
width = 0;
},
{
anchors = (
{
name = _Anchor2;
pos = (-179,622);
}
);
layerId = "9A082071-1CDF-4F9E-B116-82A287035C9D";
shapes = (
{
closed = 1;
nodes = (
(-69,615,l),
(-109,842,o),
(-175,896,o),
(-263,896,cs),
(-290,896,o),
(-319,890,o),
(-344,879,c),
(-313,776,l),
(-299,782,o),
(-284,785,o),
(-267,785,cs),
(-222,785,o),
(-201,738,o),
(-175,615,c)
);
}
);
width = 0;
},
{
anchors = (
{
name = _Anchor2;
pos = (-204,622);
}
);
layerId = "6EDA54BC-5413-4E6E-9D6B-A24A39A704A7";
shapes = (
{
closed = 1;
nodes = (
(-69,615,l),
(-112,852,o),
(-188,896,o),
(-274,896,cs),
(-304,896,o),
(-338,888,o),
(-365,876,c),
(-327,751,l),
(-313,757,o),
(-298,760,o),
(-283,760,cs),
(-239,760,o),
(-223,715,o),
(-199,615,c)
);
}
);
width = 0;
}
);
subCategory = Nonspacing;
unicode = 2375;
}
{
category = Mark;
glyphname = uni0954;
layers = (
{
anchors = (
{
name = _Anchor2;
pos = (-126,622);
}
);
layerId = "B871EA9A-50AC-43A6-961C-B7EB8764AD7C";
shapes = (
{
closed = 1;
nodes = (
(-56,871,l),
(-148,683,l),
(-121,683,l),
(-22,871,l)
);
}
);
width = 0;
},
{
anchors = (
{
name = _Anchor2;
pos = (-170,622);
}
);
layerId = "6C7CC43D-04A1-4971-B3B5-A41D54964AD2";
shapes = (
{
closed = 1;
nodes = (
(-107,873,l),
(-178,683,l),
(-113,683,l),
(0,873,l)
);
}
);
width = 0;
},
{
anchors = (
{
name = _Anchor2;
pos = (-214,622);
}
);
layerId = UUID0;
shapes = (
{
closed = 1;
nodes = (
(-139,883,l),
(-212,683,l),
(-103,683,l),
(13,883,l)
);
}
);
width = 0;
},
{
anchors = (
{
name = _Anchor2;
pos = (-247,622);
}
);
layerId = "C05809E0-FD9D-43C4-90EB-E9E886B1ADAB";
shapes = (
{
closed = 1;
nodes = (
(-161,890,l),
(-235,683,l),
(-98,683,l),
(20,890,l)
);
}
);
width = 0;
},
{
anchors = (
{
name = _Anchor2;
pos = (-103,622);
}
);
layerId = "5CC745D4-D12D-435B-A472-7D28876E43BC";
shapes = (
{
closed = 1;
nodes = (
(-52,871,l),
(-119,683,l),
(-93,683,l),
(-19,871,l)
);
}
);
width = 0;
},
{
anchors = (
{
name = _Anchor2;
pos = (-139,622);
}
);
layerId = "AA2163BC-B14D-4D16-A884-99BB623F1DBF";
shapes = (
{
closed = 1;
nodes = (
(-90,873,l),
(-142,683,l),
(-81,683,l),
(1,873,l)
);
}
);
width = 0;
},
{
anchors = (
{
name = _Anchor2;
pos = (-179,622);
}
);
layerId = "9A082071-1CDF-4F9E-B116-82A287035C9D";
shapes = (
{
closed = 1;
nodes = (
(-118,883,l),
(-172,683,l),
(-79,683,l),
(6,883,l)
);
}
);
width = 0;
},
{
anchors = (
{
name = _Anchor2;
pos = (-204,622);
}
);
layerId = "6EDA54BC-5413-4E6E-9D6B-A24A39A704A7";
shapes = (
{
closed = 1;
nodes = (
(-136,889,l),
(-191,683,l),
(-77,683,l),
(10,889,l)
);
}
);
width = 0;
}
);
subCategory = Nonspacing;
unicode = 2388;
}
{
category = Mark;
glyphname = uuevowelsigndeva;
layers = (
{
anchors = (
{
name = _Anchor8;
pos = (-277,0);
}
);
layerId = "B871EA9A-50AC-43A6-961C-B7EB8764AD7C";
shapes = (
{
closed = 1;
nodes = (
(-193,-131,o),
(-135,-100,o),
(-103,-69,c),
(-111,-45,l),
(-155,-83,o),
(-200,-105,o),
(-276,-105,cs),
(-352,-105,o),
(-397,-83,o),
(-441,-45,c),
(-449,-69,l),
(-417,-100,o),
(-359,-131,o),
(-276,-131,cs)
);
},
{
closed = 1;
nodes = (
(-193,-250,o),
(-135,-219,o),
(-103,-188,c),
(-111,-164,l),
(-155,-202,o),
(-200,-224,o),
(-276,-224,cs),
(-352,-224,o),
(-397,-202,o),
(-441,-164,c),
(-449,-188,l),
(-417,-219,o),
(-359,-250,o),
(-276,-250,cs)
);
}
);
width = 0;
},
{
anchors = (
{
name = _Anchor8;
pos = (-305,0);
}
);
layerId = "6C7CC43D-04A1-4971-B3B5-A41D54964AD2";
shapes = (
{
closed = 1;
nodes = (
(-222,-150,o),
(-150,-120,o),
(-109,-86,c),
(-133,-20,l),
(-179,-55,o),
(-224,-79,o),
(-305,-79,cs),
(-387,-79,o),
(-432,-55,o),
(-478,-20,c),
(-501,-86,l),
(-458,-121,o),
(-391,-150,o),
(-305,-150,cs)
);
},
{
closed = 1;
nodes = (
(-218,-268,o),
(-156,-243,o),
(-109,-216,c),
(-133,-150,l),
(-190,-185,o),
(-238,-196,o),
(-305,-196,cs),
(-372,-196,o),
(-420,-185,o),
(-478,-150,c),
(-501,-216,l),
(-454,-243,o),
(-392,-268,o),
(-305,-268,cs)
);
}
);
width = 0;
},
{
anchors = (
{
name = _Anchor8;
pos = (-305,0);
}
);
layerId = UUID0;
shapes = (
{
closed = 1;
nodes = (
(-223,-146,o),
(-158,-124,o),
(-96,-91,c),
(-126,-9,l),
(-175,-37,o),
(-228,-58,o),
(-305,-58,cs),
(-378,-58,o),
(-436,-37,o),
(-483,-9,c),
(-514,-91,l),
(-455,-123,o),
(-387,-146,o),
(-305,-146,cs)
);
},
{
closed = 1;
nodes = (
(-215,-268,o),
(-145,-239,o),
(-96,-212,c),
(-125,-138,l),
(-182,-165,o),
(-236,-179,o),
(-305,-179,cs),
(-376,-179,o),
(-431,-164,o),
(-485,-138,c),
(-514,-212,l),
(-461,-240,o),
(-392,-268,o),
(-305,-268,cs)
);
}
);
width = 0;
},
{
anchors = (
{
name = _Anchor8;
pos = (-313,0);
}
);
layerId = "C05809E0-FD9D-43C4-90EB-E9E886B1ADAB";
shapes = (
{
closed = 1;
nodes = (
(-229,-146,o),
(-160,-127,o),
(-85,-91,c),
(-120,-5,l),
(-175,-29,o),
(-223,-47,o),
(-305,-47,cs),
(-386,-47,o),
(-434,-29,o),
(-489,-5,c),
(-524,-91,l),
(-449,-127,o),
(-379,-146,o),
(-305,-146,cs)
);
},
{
closed = 1;
nodes = (
(-212,-268,o),
(-137,-242,o),
(-85,-213,c),
(-116,-129,l),
(-177,-155,o),
(-231,-169,o),
(-305,-169,cs),
(-378,-169,o),
(-432,-155,o),
(-493,-129,c),
(-524,-213,l),
(-472,-242,o),
(-397,-268,o),
(-305,-268,cs)
);
}
);
width = 0;
},
{
anchors = (
{
name = _Anchor8;
pos = (-215,0);
}
);
layerId = "5CC745D4-D12D-435B-A472-7D28876E43BC";
shapes = (
{
closed = 1;
nodes = (
(-155,-131,o),
(-111,-112,o),
(-82,-86,c),
(-90,-61,l),
(-122,-90,o),
(-157,-105,o),
(-215,-105,cs),
(-273,-105,o),
(-308,-90,o),
(-340,-61,c),
(-348,-86,l),
(-319,-112,o),
(-275,-131,o),
(-215,-131,cs)
);
},
{
closed = 1;
nodes = (
(-155,-250,o),
(-111,-231,o),
(-82,-205,c),
(-90,-180,l),
(-122,-209,o),
(-157,-224,o),
(-215,-224,cs),
(-273,-224,o),
(-308,-209,o),
(-340,-180,c),
(-348,-205,l),
(-319,-231,o),
(-275,-250,o),
(-215,-250,cs)
);
}
);
width = 0;
},
{
anchors = (
{
name = _Anchor8;
pos = (-226,0);
}
);
layerId = "AA2163BC-B14D-4D16-A884-99BB623F1DBF";
shapes = (
{
closed = 1;
nodes = (
(-168,-149,o),
(-116,-130,o),
(-77,-101,c),
(-96,-36,l),
(-139,-71,o),
(-178,-81,o),
(-226,-81,cs),
(-280,-81,o),
(-319,-65,o),
(-356,-36,c),
(-375,-101,l),
(-335,-130,o),
(-282,-149,o),
(-226,-149,cs)
);
},
{
closed = 1;
nodes = (
(-165,-267,o),
(-123,-254,o),
(-77,-228,c),
(-95,-165,l),
(-139,-190,o),
(-177,-198,o),
(-226,-198,cs),
(-281,-198,o),
(-320,-186,o),
(-357,-165,c),
(-375,-228,l),
(-336,-251,o),
(-290,-267,o),
(-226,-267,cs)
);
}
);
width = 0;
},
{
anchors = (
{
name = _Anchor8;
pos = (-232,0);
}
);
layerId = "9A082071-1CDF-4F9E-B116-82A287035C9D";
shapes = (
{
closed = 1;
nodes = (
(-173,-147,o),
(-121,-131,o),
(-69,-98,c),
(-93,-20,l),
(-138,-49,o),
(-176,-61,o),
(-233,-61,cs),
(-290,-61,o),
(-328,-47,o),
(-370,-20,c),
(-394,-98,l),
(-342,-131,o),
(-290,-147,o),
(-233,-147,cs)
);
},
{
closed = 1;
nodes = (
(-165,-268,o),
(-118,-253,o),
(-69,-224,c),
(-91,-147,l),
(-138,-172,o),
(-180,-181,o),
(-233,-181,cs),
(-286,-181,o),
(-328,-171,o),
(-373,-147,c),
(-394,-224,l),
(-351,-250,o),
(-299,-268,o),
(-233,-268,cs)
);
}
);
width = 0;
},
{
anchors = (
{
name = _Anchor8;
pos = (-235,0);
}
);
layerId = "6EDA54BC-5413-4E6E-9D6B-A24A39A704A7";
shapes = (
{
closed = 1;
nodes = (
(-175,-146,o),
(-124,-132,o),
(-64,-96,c),
(-91,-10,l),
(-136,-35,o),
(-174,-49,o),
(-236,-49,cs),
(-295,-49,o),
(-333,-35,o),
(-378,-10,c),
(-405,-96,l),
(-345,-132,o),
(-295,-146,o),
(-236,-146,cs)
);
},
{
closed = 1;
nodes = (
(-164,-268,o),
(-114,-252,o),
(-64,-221,c),
(-87,-136,l),
(-137,-161,o),
(-181,-171,o),
(-236,-171,cs),
(-288,-171,o),
(-332,-161,o),
(-382,-136,c),
(-405,-221,l),
(-360,-250,o),
(-304,-268,o),
(-236,-268,cs)
);
}
);
width = 0;
}
);
subCategory = Nonspacing;
unicode = 2391;
}
{
category = Letter;
glyphname = llvocalicdeva;
layers = (
{
anchors = (
{
name = Anchor2;
pos = (448,622);
}
);
layerId = "B871EA9A-50AC-43A6-961C-B7EB8764AD7C";
shapes = (
{
closed = 1;
nodes = (
(666,-95,l),
(621,-119,o),
(593,-126,o),
(553,-126,cs),
(493,-126,o),
(444,-105,o),
(444,-43,cs),
(444,-14,o),
(456,6,o),
(473,20,c),
(451,34,l),
(430,12,o),
(417,-10,o),
(417,-43,cs),
(417,-111,o),
(466,-152,o),
(554,-152,cs),
(594,-152,o),
(631,-143,o),
(675,-120,c)
);
},
{
closed = 1;
nodes = (
(630,58,l),
(585,34,o),
(557,27,o),
(517,27,cs),
(457,27,o),
(408,48,o),
(408,110,cs),
(408,165,o),
(452,204,o),
(561,207,c),
(556,231,l),
(429,229,o),
(381,172,o),
(381,110,cs),
(381,42,o),
(430,1,o),
(518,1,cs),
(558,1,o),
(595,10,o),
(639,33,c)
);
},
{
closed = 1;
nodes = (
(575,392,o),
(520,429,o),
(454,429,cs),
(369,429,o),
(303,373,o),
(261,237,c),
(287,229,l),
(328,365,o),
(386,403,o),
(453,403,cs),
(512,403,o),
(548,372,o),
(548,297,cs),
(548,265,o),
(543,238,o),
(535,214,c),
(561,207,l),
(569,233,o),
(575,263,o),
(575,299,cs)
);
},
{
closed = 1;
nodes = (
(131,428,o),
(53,388,o),
(53,283,cs),
(53,184,o),
(133,100,o),
(266,-10,c),
(283,9,l),
(136,135,o),
(80,195,o),
(80,284,cs),
(80,353,o),
(124,402,o),
(199,402,cs),
(251,402,o),
(284,381,o),
(330,340,c),
(344,362,l),
(299,401,o),
(257,428,o),
(196,428,cs)
);
},
{
closed = 1;
nodes = (
(448,420,l),
(474,408,l),
(474,596,l),
(645,596,l),
(645,622,l),
(0,622,l),
(0,596,l),
(448,596,l)
);
}
);
width = 630;
},
{
anchors = (
{
name = Anchor2;
pos = (470,622);
}
);
layerId = "6C7CC43D-04A1-4971-B3B5-A41D54964AD2";
shapes = (
{
closed = 1;
nodes = (
(732,-101,l),
(686,-120,o),
(661,-128,o),
(619,-128,cs),
(569,-128,o),
(538,-112,o),
(538,-75,cs),
(538,-53,o),
(547,-38,o),
(580,-16,c),
(507,16,l),
(479,-6,o),
(464,-36,o),
(464,-66,cs),
(464,-142,o),
(518,-198,o),
(624,-198,cs),
(678,-198,o),
(722,-181,o),
(757,-164,c)
);
},
{
closed = 1;
nodes = (
(693,54,l),
(647,35,o),
(622,26,o),
(580,26,cs),
(531,26,o),
(499,43,o),
(499,80,cs),
(499,113,o),
(525,144,o),
(634,152,c),
(602,215,l),
(481,205,o),
(425,151,o),
(425,88,cs),
(425,15,o),
(484,-43,o),
(584,-43,cs),
(639,-43,o),
(683,-26,o),
(718,-9,c)
);
},
{
closed = 1;
nodes = (
(656,382,o),
(571,426,o),
(506,426,cs),
(393,426,o),
(312,359,o),
(279,232,c),
(356,208,l),
(391,329,o),
(446,356,o),
(496,356,cs),
(543,356,o),
(575,328,o),
(575,268,cs),
(575,235,o),
(567,208,o),
(557,183,c),
(634,152,l),
(645,181,o),
(656,217,o),
(656,264,cs)
);
},
{
closed = 1;
nodes = (
(131,426,o),
(45,381,o),
(45,275,cs),
(45,169,o),
(138,87,o),
(255,-12,c),
(309,40,l),
(192,137,o),
(126,195,o),
(126,271,cs),
(126,319,o),
(155,353,o),
(209,353,cs),
(260,353,o),
(296,327,o),
(337,292,c),
(369,357,l),
(320,401,o),
(269,426,o),
(204,426,cs)
);
},
{
closed = 1;
nodes = (
(470,413,l),
(550,378,l),
(550,551,l),
(714,551,l),
(714,622,l),
(0,622,l),
(0,551,l),
(470,551,l)
);
}
);
width = 699;
},
{
anchors = (
{
name = Anchor2;
pos = (476,622);
}
);
layerId = UUID0;
shapes = (
{
closed = 1;
nodes = (
(792,-102,l),
(745,-125,o),
(717,-133,o),
(683,-133,cs),
(639,-133,o),
(622,-119,o),
(622,-94,cs),
(622,-82,o),
(627,-70,o),
(640,-62,c),
(541,-5,l),
(517,-28,o),
(504,-59,o),
(504,-95,cs),
(504,-173,o),
(577,-227,o),
(677,-227,cs),
(745,-227,o),
(792,-209,o),
(827,-192,c)
);
},
{
closed = 1;
nodes = (
(749,53,l),
(702,30,o),
(674,22,o),
(640,22,cs),
(597,22,o),
(579,36,o),
(579,62,cs),
(579,87,o),
(598,109,o),
(681,112,c),
(656,207,l),
(532,200,o),
(461,146,o),
(461,60,cs),
(461,-18,o),
(534,-71,o),
(634,-71,cs),
(702,-71,o),
(749,-54,o),
(784,-37,c)
);
},
{
closed = 1;
nodes = (
(716,362,o),
(638,426,o),
(531,426,cs),
(400,426,o),
(319,358,o),
(284,225,c),
(409,187,l),
(437,292,o),
(490,314,o),
(522,314,cs),
(558,314,o),
(582,292,o),
(582,242,cs),
(582,216,o),
(574,189,o),
(559,161,c),
(681,112,l),
(705,160,o),
(716,191,o),
(716,250,cs)
);
},
{
closed = 1;
nodes = (
(130,426,o),
(37,385,o),
(37,265,cs),
(37,171,o),
(99,95,o),
(239,-17,c),
(326,72,l),
(211,161,o),
(171,202,o),
(171,255,cs),
(171,289,o),
(195,313,o),
(236,313,cs),
(288,313,o),
(319,274,o),
(357,236,c),
(392,360,l),
(333,406,o),
(284,426,o),
(208,426,cs)
);
},
{
closed = 1;
nodes = (
(476,407,l),
(609,394,l),
(609,512,l),
(771,512,l),
(771,622,l),
(0,622,l),
(0,512,l),
(476,512,l)
);
}
);
width = 757;
},
{
anchors = (
{
name = Anchor2;
pos = (477,622);
}
);
layerId = "C05809E0-FD9D-43C4-90EB-E9E886B1ADAB";
shapes = (
{
closed = 1;
nodes = (
(824,-92,l),
(781,-113,o),
(753,-120,o),
(722,-120,cs),
(692,-120,o),
(676,-110,o),
(676,-92,cs),
(676,-80,o),
(682,-69,o),
(700,-63,c),
(577,15,l),
(539,-9,o),
(518,-44,o),
(518,-90,cs),
(518,-178,o),
(598,-233,o),
(705,-233,cs),
(778,-233,o),
(831,-215,o),
(869,-201,c)
);
},
{
closed = 1;
nodes = (
(782,64,l),
(739,43,o),
(711,36,o),
(680,36,cs),
(650,36,o),
(634,46,o),
(634,64,cs),
(634,84,o),
(650,101,o),
(717,101,c),
(697,213,l),
(559,204,o),
(476,158,o),
(476,66,cs),
(476,-22,o),
(556,-77,o),
(663,-77,cs),
(736,-77,o),
(789,-58,o),
(827,-44,c)
);
},
{
closed = 1;
nodes = (
(759,348,o),
(679,421,o),
(552,421,cs),
(407,421,o),
(317,355,o),
(282,209,c),
(448,159,l),
(472,257,o),
(510,289,o),
(543,289,cs),
(567,289,o),
(582,273,o),
(582,242,cs),
(582,205,o),
(574,174,o),
(546,133,c),
(717,101,l),
(742,145,o),
(759,193,o),
(759,237,cs)
);
},
{
closed = 1;
nodes = (
(139,423,o),
(29,383,o),
(29,252,cs),
(29,156,o),
(109,70,o),
(219,-18,c),
(328,90,l),
(232,159,o),
(206,201,o),
(206,238,cs),
(206,267,o),
(224,284,o),
(253,284,cs),
(294,284,o),
(318,261,o),
(351,225,c),
(411,355,l),
(344,403,o),
(306,423,o),
(219,423,cs)
);
},
{
closed = 1;
nodes = (
(477,403,l),
(651,359,l),
(651,484,l),
(813,484,l),
(813,622,l),
(0,622,l),
(0,484,l),
(477,484,l)
);
}
);
width = 798;
},
{
anchors = (
{
name = Anchor2;
pos = (333,622);
}
);
layerId = "5CC745D4-D12D-435B-A472-7D28876E43BC";
shapes = (
{
closed = 1;
nodes = (
(507,-101,l),
(475,-120,o),
(452,-126,o),
(421,-126,cs),
(374,-126,o),
(332,-111,o),
(332,-51,cs),
(332,-22,o),
(343,0,o),
(362,18,c),
(340,31,l),
(320,9,o),
(306,-16,o),
(306,-50,cs),
(306,-116,o),
(349,-152,o),
(423,-152,cs),
(455,-152,o),
(487,-144,o),
(518,-125,c)
);
},
{
closed = 1;
nodes = (
(476,52,l),
(444,33,o),
(421,27,o),
(390,27,cs),
(343,27,o),
(301,42,o),
(301,102,cs),
(301,160,o),
(348,194,o),
(420,206,c),
(411,229,l),
(325,217,o),
(275,168,o),
(275,103,cs),
(275,37,o),
(318,1,o),
(391,1,cs),
(424,1,o),
(456,9,o),
(487,28,c)
);
},
{
closed = 1;
nodes = (
(432,391,o),
(390,429,o),
(341,429,cs),
(270,429,o),
(222,373,o),
(197,235,c),
(223,229,l),
(250,369,o),
(289,403,o),
(340,403,cs),
(380,403,o),
(406,372,o),
(406,303,cs),
(406,271,o),
(401,240,o),
(395,213,c),
(420,206,l),
(427,234,o),
(432,270,o),
(432,305,cs)
);
},
{
closed = 1;
nodes = (
(101,428,o),
(44,396,o),
(44,303,cs),
(44,207,o),
(99,119,o),
(200,-6,c),
(221,8,l),
(128,123,o),
(71,211,o),
(71,300,cs),
(71,357,o),
(94,402,o),
(147,402,cs),
(185,402,o),
(216,381,o),
(250,341,c),
(262,365,l),
(231,401,o),
(196,428,o),
(148,428,cs)
);
},
{
closed = 1;
nodes = (
(333,420,l),
(359,408,l),
(359,596,l),
(490,596,l),
(490,622,l),
(0,622,l),
(0,596,l),
(333,596,l)
);
}
);
width = 478;
},
{
anchors = (
{
name = Anchor2;
pos = (342,622);
}
);
layerId = "AA2163BC-B14D-4D16-A884-99BB623F1DBF";
shapes = (
{
closed = 1;
nodes = (
(550,-107,l),
(518,-125,o),
(497,-131,o),
(470,-131,cs),
(436,-131,o),
(409,-116,o),
(409,-77,cs),
(409,-58,o),
(416,-43,o),
(428,-27,c),
(361,0,l),
(345,-24,o),
(337,-47,o),
(337,-74,cs),
(337,-158,o),
(396,-198,o),
(471,-198,cs),
(512,-198,o),
(546,-187,o),
(578,-170,c)
);
},
{
closed = 1;
nodes = (
(513,49,l),
(481,31,o),
(460,25,o),
(433,25,cs),
(399,25,o),
(372,40,o),
(372,79,cs),
(372,121,o),
(408,145,o),
(474,157,c),
(446,220,l),
(342,202,o),
(300,145,o),
(300,82,cs),
(300,-2,o),
(359,-42,o),
(434,-42,cs),
(475,-42,o),
(509,-31,o),
(541,-14,c)
);
},
{
closed = 1;
nodes = (
(492,386,o),
(439,426,o),
(373,426,cs),
(284,426,o),
(226,368,o),
(202,230,c),
(274,212,l),
(294,337,o),
(333,359,o),
(367,359,cs),
(397,359,o),
(417,340,o),
(417,276,cs),
(417,240,o),
(411,207,o),
(400,174,c),
(474,157,l),
(486,191,o),
(492,233,o),
(492,273,cs)
);
},
{
closed = 1;
nodes = (
(92,426,o),
(32,379,o),
(32,283,cs),
(32,188,o),
(92,88,o),
(171,-12,c),
(227,30,l),
(149,132,o),
(107,198,o),
(107,280,cs),
(107,324,o),
(127,356,o),
(168,356,cs),
(203,356,o),
(228,329,o),
(248,296,c),
(285,358,l),
(242,403,o),
(210,426,o),
(159,426,cs)
);
},
{
closed = 1;
nodes = (
(342,414,l),
(416,380,l),
(416,554,l),
(537,554,l),
(537,622,l),
(0,622,l),
(0,554,l),
(342,554,l)
);
}
);
width = 525;
},
{
anchors = (
{
name = Anchor2;
pos = (351,622);
}
);
layerId = "9A082071-1CDF-4F9E-B116-82A287035C9D";
shapes = (
{
closed = 1;
nodes = (
(605,-101,l),
(576,-117,o),
(554,-124,o),
(526,-124,cs),
(500,-124,o),
(481,-115,o),
(481,-87,cs),
(481,-73,o),
(486,-58,o),
(498,-47,c),
(412,7,l),
(388,-18,o),
(370,-46,o),
(370,-86,cs),
(370,-170,o),
(425,-220,o),
(517,-220,cs),
(566,-220,o),
(608,-205,o),
(642,-188,c)
);
},
{
closed = 1;
nodes = (
(565,55,l),
(536,39,o),
(514,32,o),
(487,32,cs),
(460,32,o),
(441,42,o),
(441,70,cs),
(441,99,o),
(466,118,o),
(527,129,c),
(503,220,l),
(392,204,o),
(330,151,o),
(330,70,cs),
(330,-14,o),
(385,-64,o),
(477,-64,cs),
(525,-64,o),
(568,-49,o),
(602,-32,c)
);
},
{
closed = 1;
nodes = (
(551,364,o),
(502,424,o),
(404,424,cs),
(303,424,o),
(237,361,o),
(211,218,c),
(320,189,l),
(338,300,o),
(370,318,o),
(394,318,cs),
(415,318,o),
(432,304,o),
(432,260,cs),
(432,220,o),
(422,185,o),
(409,149,c),
(528,129,l),
(541,169,o),
(551,210,o),
(551,263,cs)
);
},
{
closed = 1;
nodes = (
(103,425,o),
(26,381,o),
(26,266,cs),
(26,179,o),
(81,81,o),
(161,-16,c),
(254,49,l),
(190,130,o),
(147,192,o),
(147,260,cs),
(147,290,o),
(159,315,o),
(188,315,cs),
(213,315,o),
(232,294,o),
(254,259,c),
(313,356,l),
(264,402,o),
(229,425,o),
(169,425,cs)
);
},
{
closed = 1;
nodes = (
(351,408,l),
(470,371,l),
(470,514,l),
(594,514,l),
(594,622,l),
(0,622,l),
(0,514,l),
(351,514,l)
);
}
);
width = 582;
},
{
anchors = (
{
name = Anchor2;
pos = (357,622);
}
);
layerId = "6EDA54BC-5413-4E6E-9D6B-A24A39A704A7";
shapes = (
{
closed = 1;
nodes = (
(638,-98,l),
(612,-112,o),
(589,-120,o),
(561,-120,cs),
(540,-120,o),
(525,-114,o),
(525,-94,cs),
(525,-82,o),
(530,-68,o),
(542,-59,c),
(444,11,l),
(415,-14,o),
(390,-45,o),
(390,-93,cs),
(390,-177,o),
(443,-233,o),
(545,-233,cs),
(599,-233,o),
(646,-217,o),
(682,-200,c)
);
},
{
closed = 1;
nodes = (
(597,58,l),
(571,44,o),
(548,36,o),
(521,36,cs),
(499,36,o),
(484,43,o),
(484,64,cs),
(484,86,o),
(503,101,o),
(561,112,c),
(539,220,l),
(423,206,o),
(349,155,o),
(349,63,cs),
(349,-21,o),
(402,-77,o),
(504,-77,cs),
(557,-77,o),
(605,-61,o),
(641,-44,c)
);
},
{
closed = 1;
nodes = (
(588,351,o),
(541,422,o),
(422,422,cs),
(315,422,o),
(243,357,o),
(216,211,c),
(348,175,l),
(365,276,o),
(392,292,o),
(411,292,cs),
(425,292,o),
(441,282,o),
(441,250,cs),
(441,208,o),
(428,171,o),
(414,133,c),
(561,112,l),
(575,156,o),
(588,196,o),
(588,257,cs)
);
},
{
closed = 1;
nodes = (
(111,424,o),
(23,383,o),
(23,255,cs),
(23,174,o),
(75,77,o),
(156,-19,c),
(272,61,l),
(216,129,o),
(173,189,o),
(173,248,cs),
(173,269,o),
(180,290,o),
(202,290,cs),
(220,290,o),
(236,272,o),
(258,236,c),
(331,354,l),
(278,402,o),
(242,424,o),
(176,424,cs)
);
},
{
closed = 1;
nodes = (
(357,404,l),
(504,366,l),
(504,489,l),
(630,489,l),
(630,622,l),
(0,622,l),
(0,489,l),
(357,489,l)
);
}
);
width = 618;
}
);
subCategory = Other;
unicode = 2401;
}
{
category = Mark;
glyphname = lvocalicvowelsigndeva;
layers = (
{
anchors = (
{
name = _Anchor6;
pos = (-126,0);
}
);
layerId = "B871EA9A-50AC-43A6-961C-B7EB8764AD7C";
shapes = (
{
closed = 1;
nodes = (
(-197,-59,l),
(-241,-22,o),
(-275,0,o),
(-320,0,cs),
(-378,0,o),
(-423,-39,o),
(-423,-103,cs),
(-423,-178,o),
(-360,-238,o),
(-275,-314,c),
(-258,-295,l),
(-349,-218,o),
(-396,-169,o),
(-396,-106,cs),
(-396,-62,o),
(-372,-26,o),
(-320,-26,cs),
(-277,-26,o),
(-253,-44,o),
(-214,-79,c)
);
},
{
closed = 1;
nodes = (
(-187,0,o),
(-231,-62,o),
(-258,-149,c),
(-232,-157,l),
(-206,-63,o),
(-163,-26,o),
(-113,-26,cs),
(-67,-26,o),
(-43,-57,o),
(-43,-103,cs),
(-43,-134,o),
(-48,-158,o),
(-64,-186,c),
(-36,-170,l),
(-121,-180,o),
(-178,-215,o),
(-178,-293,cs),
(-178,-357,o),
(-133,-394,o),
(-73,-394,cs),
(-42,-394,o),
(-15,-388,o),
(17,-371,c),
(8,-347,l),
(-20,-362,o),
(-43,-368,o),
(-73,-368,cs),
(-120,-368,o),
(-151,-344,o),
(-151,-293,cs),
(-151,-232,o),
(-106,-203,o),
(-38,-195,c),
(-22,-167,o),
(-16,-132,o),
(-16,-103,cs),
(-16,-31,o),
(-62,0,o),
(-108,0,cs)
);
}
);
width = 0;
},
{
anchors = (
{
name = _Anchor6;
pos = (-170,0);
}
);
layerId = "6C7CC43D-04A1-4971-B3B5-A41D54964AD2";
shapes = (
{
closed = 1;
nodes = (
(-208,-54,l),
(-248,-19,o),
(-290,0,o),
(-341,0,cs),
(-398,0,o),
(-466,-35,o),
(-466,-118,cs),
(-466,-201,o),
(-395,-265,o),
(-304,-343,c),
(-258,-293,l),
(-345,-223,o),
(-394,-180,o),
(-394,-125,cs),
(-394,-90,o),
(-373,-65,o),
(-332,-65,cs),
(-299,-65,o),
(-272,-81,o),
(-246,-102,c)
);
},
{
closed = 1;
nodes = (
(-205,0,o),
(-260,-68,o),
(-286,-157,c),
(-216,-175,l),
(-190,-83,o),
(-151,-63,o),
(-115,-63,cs),
(-80,-63,o),
(-57,-80,o),
(-57,-118,cs),
(-57,-145,o),
(-66,-165,o),
(-80,-188,c),
(-32,-160,l),
(-141,-173,o),
(-186,-220,o),
(-186,-281,cs),
(-186,-348,o),
(-139,-394,o),
(-60,-394,cs),
(-17,-394,o),
(18,-381,o),
(45,-367,c),
(26,-305,l),
(-9,-323,o),
(-27,-330,o),
(-59,-330,cs),
(-90,-330,o),
(-119,-316,o),
(-119,-284,cs),
(-119,-250,o),
(-90,-229,o),
(-15,-221,c),
(4,-190,o),
(16,-154,o),
(16,-115,cs),
(16,-31,o),
(-52,0,o),
(-104,0,cs)
);
}
);
width = 0;
},
{
anchors = (
{
name = _Anchor6;
pos = (-214,0);
}
);
layerId = UUID0;
shapes = (
{
closed = 1;
nodes = (
(-218,-41,l),
(-268,-5,o),
(-309,9,o),
(-371,9,cs),
(-434,9,o),
(-507,-22,o),
(-507,-117,cs),
(-507,-196,o),
(-452,-259,o),
(-343,-347,c),
(-271,-271,l),
(-364,-201,o),
(-393,-171,o),
(-393,-129,cs),
(-393,-104,o),
(-374,-84,o),
(-342,-84,cs),
(-316,-84,o),
(-297,-96,o),
(-278,-113,c)
);
},
{
closed = 1;
nodes = (
(-208,9,o),
(-275,-45,o),
(-304,-153,c),
(-198,-182,l),
(-175,-102,o),
(-133,-84,o),
(-107,-84,cs),
(-79,-84,o),
(-60,-101,o),
(-60,-140,cs),
(-60,-161,o),
(-71,-188,o),
(-80,-207,c),
(-12,-159,l),
(-109,-169,o),
(-162,-214,o),
(-162,-282,cs),
(-162,-348,o),
(-103,-394,o),
(-21,-394,cs),
(35,-394,o),
(73,-380,o),
(102,-367,c),
(71,-288,l),
(34,-306,o),
(12,-312,o),
(-13,-312,cs),
(-45,-312,o),
(-62,-300,o),
(-62,-276,cs),
(-62,-254,o),
(-34,-233,o),
(30,-229,c),
(43,-199,o),
(53,-170,o),
(53,-130,cs),
(53,-42,o),
(-11,9,o),
(-100,9,cs)
);
}
);
width = 0;
},
{
anchors = (
{
name = _Anchor6;
pos = (-247,0);
}
);
layerId = "C05809E0-FD9D-43C4-90EB-E9E886B1ADAB";
shapes = (
{
closed = 1;
nodes = (
(-224,-36,l),
(-275,0,o),
(-315,15,o),
(-377,15,cs),
(-461,15,o),
(-537,-24,o),
(-537,-118,cs),
(-537,-192,o),
(-490,-257,o),
(-373,-350,c),
(-283,-256,l),
(-373,-190,o),
(-390,-164,o),
(-390,-132,cs),
(-390,-116,o),
(-377,-98,o),
(-350,-98,cs),
(-325,-98,o),
(-307,-107,o),
(-290,-123,c)
);
},
{
closed = 1;
nodes = (
(-228,15,o),
(-289,-45,o),
(-322,-151,c),
(-200,-187,l),
(-174,-115,o),
(-147,-99,o),
(-120,-99,cs),
(-95,-99,o),
(-85,-116,o),
(-85,-136,cs),
(-85,-163,o),
(-98,-192,o),
(-119,-219,c),
(-36,-143,l),
(-116,-151,o),
(-186,-188,o),
(-186,-270,cs),
(-186,-352,o),
(-117,-394,o),
(-31,-394,cs),
(28,-394,o),
(66,-381,o),
(100,-365,c),
(62,-271,l),
(28,-289,o),
(10,-295,o),
(-22,-295,cs),
(-42,-295,o),
(-58,-285,o),
(-58,-266,cs),
(-58,-244,o),
(-35,-229,o),
(41,-228,c),
(52,-202,o),
(60,-171,o),
(60,-128,cs),
(60,-50,o),
(3,15,o),
(-107,15,cs)
);
}
);
width = 0;
},
{
anchors = (
{
name = _Anchor6;
pos = (-103,0);
}
);
layerId = "5CC745D4-D12D-435B-A472-7D28876E43BC";
shapes = (
{
closed = 1;
nodes = (
(-140,-51,l),
(-174,-16,o),
(-200,0,o),
(-234,0,cs),
(-285,0,o),
(-321,-41,o),
(-321,-100,cs),
(-321,-175,o),
(-280,-229,o),
(-209,-315,c),
(-188,-299,l),
(-260,-215,o),
(-295,-167,o),
(-295,-101,cs),
(-295,-62,o),
(-276,-26,o),
(-232,-26,cs),
(-201,-26,o),
(-179,-47,o),
(-156,-72,c)
);
},
{
closed = 1;
nodes = (
(-138,0,o),
(-179,-49,o),
(-200,-152,c),
(-174,-158,l),
(-153,-60,o),
(-124,-26,o),
(-82,-26,cs),
(-55,-26,o),
(-34,-48,o),
(-34,-99,cs),
(-34,-129,o),
(-40,-159,o),
(-51,-186,c),
(-27,-172,l),
(-89,-186,o),
(-136,-234,o),
(-136,-290,cs),
(-136,-360,o),
(-91,-394,o),
(-39,-394,cs),
(-17,-394,o),
(6,-390,o),
(27,-378,c),
(18,-353,l),
(-2,-364,o),
(-19,-368,o),
(-39,-368,cs),
(-78,-368,o),
(-110,-344,o),
(-110,-292,cs),
(-110,-241,o),
(-70,-211,o),
(-26,-195,c),
(-16,-170,o),
(-8,-135,o),
(-8,-100,cs),
(-8,-31,o),
(-42,0,o),
(-81,0,cs)
);
}
);
width = 0;
},
{
anchors = (
{
name = _Anchor6;
pos = (-139,0);
}
);
layerId = "AA2163BC-B14D-4D16-A884-99BB623F1DBF";
shapes = (
{
closed = 1;
nodes = (
(-150,-49,l),
(-185,-14,o),
(-212,0,o),
(-250,0,cs),
(-299,0,o),
(-349,-35,o),
(-349,-112,cs),
(-349,-189,o),
(-294,-265,o),
(-236,-337,c),
(-186,-298,l),
(-244,-230,o),
(-284,-174,o),
(-284,-116,cs),
(-284,-88,o),
(-269,-62,o),
(-239,-62,cs),
(-218,-62,o),
(-201,-75,o),
(-182,-99,c)
);
},
{
closed = 1;
nodes = (
(-151,0,o),
(-199,-56,o),
(-214,-160,c),
(-152,-174,l),
(-137,-81,o),
(-105,-60,o),
(-82,-60,cs),
(-60,-60,o),
(-45,-78,o),
(-45,-117,cs),
(-45,-144,o),
(-52,-164,o),
(-60,-188,c),
(-18,-163,l),
(-90,-181,o),
(-129,-224,o),
(-129,-282,cs),
(-129,-347,o),
(-92,-394,o),
(-28,-394,cs),
(5,-394,o),
(26,-387,o),
(51,-374,c),
(33,-319,l),
(13,-330,o),
(-2,-335,o),
(-22,-335,cs),
(-51,-335,o),
(-69,-318,o),
(-69,-289,cs),
(-69,-253,o),
(-44,-231,o),
(1,-218,c),
(12,-187,o),
(20,-152,o),
(20,-114,cs),
(20,-31,o),
(-27,0,o),
(-76,0,cs)
);
}
);
width = 0;
},
{
anchors = (
{
name = _Anchor6;
pos = (-179,0);
}
);
layerId = "9A082071-1CDF-4F9E-B116-82A287035C9D";
shapes = (
{
closed = 1;
nodes = (
(-163,-36,l),
(-201,-3,o),
(-232,9,o),
(-272,9,cs),
(-335,9,o),
(-389,-32,o),
(-389,-114,cs),
(-389,-189,o),
(-348,-258,o),
(-278,-344,c),
(-201,-286,l),
(-255,-223,o),
(-289,-173,o),
(-289,-125,cs),
(-289,-104,o),
(-278,-82,o),
(-254,-82,cs),
(-237,-82,o),
(-221,-92,o),
(-205,-110,c)
);
},
{
closed = 1;
nodes = (
(-171,9,o),
(-214,-49,o),
(-236,-153,c),
(-153,-178,l),
(-136,-103,o),
(-116,-82,o),
(-94,-82,cs),
(-75,-82,o),
(-68,-100,o),
(-68,-124,cs),
(-68,-154,o),
(-82,-186,o),
(-93,-209,c),
(-35,-153,l),
(-92,-165,o),
(-143,-205,o),
(-143,-276,cs),
(-143,-349,o),
(-95,-394,o),
(-28,-394,cs),
(10,-394,o),
(35,-386,o),
(62,-372,c),
(37,-298,l),
(16,-308,o),
(3,-312,o),
(-15,-312,cs),
(-40,-312,o),
(-54,-300,o),
(-54,-276,cs),
(-54,-247,o),
(-33,-228,o),
(19,-218,c),
(27,-189,o),
(32,-164,o),
(32,-123,cs),
(32,-42,o),
(-10,9,o),
(-84,9,cs)
);
}
);
width = 0;
},
{
anchors = (
{
name = _Anchor6;
pos = (-204,0);
}
);
layerId = "6EDA54BC-5413-4E6E-9D6B-A24A39A704A7";
shapes = (
{
closed = 1;
nodes = (
(-171,-28,l),
(-211,4,o),
(-245,14,o),
(-286,14,cs),
(-357,14,o),
(-414,-30,o),
(-414,-115,cs),
(-414,-189,o),
(-382,-253,o),
(-304,-349,c),
(-210,-279,l),
(-262,-218,o),
(-292,-173,o),
(-292,-131,cs),
(-292,-114,o),
(-284,-95,o),
(-263,-95,cs),
(-249,-95,o),
(-234,-103,o),
(-219,-117,c)
);
},
{
closed = 1;
nodes = (
(-184,14,o),
(-224,-44,o),
(-250,-149,c),
(-154,-180,l),
(-135,-116,o),
(-122,-96,o),
(-102,-96,cs),
(-85,-96,o),
(-82,-113,o),
(-82,-129,cs),
(-82,-161,o),
(-100,-199,o),
(-113,-222,c),
(-45,-146,l),
(-93,-155,o),
(-151,-193,o),
(-151,-272,cs),
(-151,-351,o),
(-96,-394,o),
(-28,-394,cs),
(14,-394,o),
(41,-385,o),
(69,-370,c),
(40,-285,l),
(18,-295,o),
(6,-298,o),
(-11,-298,cs),
(-33,-298,o),
(-44,-288,o),
(-44,-268,cs),
(-44,-244,o),
(-26,-226,o),
(30,-218,c),
(37,-191,o),
(40,-171,o),
(40,-128,cs),
(40,-49,o),
(1,14,o),
(-89,14,cs)
);
}
);
width = 0;
}
);
subCategory = Nonspacing;
unicode = 2402;
}
{
category = Letter;
glyphname = onedeva;
layers = (
{
anchors = (
{
name = Anchor4;
pos = (263,622);
},
{
name = Anchor8;
pos = (275,0);
}
);
layerId = "B871EA9A-50AC-43A6-961C-B7EB8764AD7C";
shapes = (
{
closed = 1;
nodes = (
(189,632,o),
(140,584,o),
(140,525,cs),
(140,463,o),
(177,430,o),
(253,400,c),
(265,423,l),
(197,447,o),
(167,476,o),
(167,523,cs),
(167,573,o),
(203,606,o),
(270,606,cs),
(334,606,o),
(382,573,o),
(382,506,cs),
(382,419,o),
(314,370,o),
(159,267,c),
(158,258,l),
(323,128,ls),
(370,91,o),
(383,70,o),
(383,32,cs),
(383,5,o),
(369,-23,o),
(346,-49,c),
(368,-65,l),
(392,-33,o),
(410,-1,o),
(410,34,cs),
(410,86,o),
(385,111,o),
(343,144,cs),
(182,269,l),
(183,253,l),
(359,365,o),
(409,426,o),
(409,507,cs),
(409,588,o),
(348,632,o),
(270,632,cs)
);
}
);
width = 551;
},
{
anchors = (
{
name = Anchor4;
pos = (235,622);
},
{
name = Anchor8;
pos = (275,0);
}
);
layerId = "6C7CC43D-04A1-4971-B3B5-A41D54964AD2";
shapes = (
{
closed = 1;
nodes = (
(176,632,o),
(134,570,o),
(134,517,cs),
(134,453,o),
(166,414,o),
(231,386,c),
(280,444,l),
(228,459,o),
(210,481,o),
(210,510,cs),
(210,542,o),
(234,562,o),
(276,562,cs),
(317,562,o),
(348,541,o),
(348,498,cs),
(348,431,o),
(273,366,o),
(132,276,c),
(128,254,l),
(310,103,ls),
(341,77,o),
(350,61,o),
(350,34,cs),
(350,9,o),
(339,-10,o),
(321,-30,c),
(386,-79,l),
(415,-40,o),
(433,-8,o),
(433,34,cs),
(433,81,o),
(415,119,o),
(362,160,cs),
(212,279,l),
(207,232,l),
(375,347,o),
(429,415,o),
(429,499,cs),
(429,575,o),
(371,632,o),
(275,632,cs)
);
}
);
width = 551;
},
{
anchors = (
{
name = Anchor4;
pos = (218,622);
},
{
name = Anchor8;
pos = (285,0);
}
);
layerId = UUID0;
shapes = (
{
closed = 1;
nodes = (
(164,632,o),
(111,568,o),
(111,504,cs),
(111,437,o),
(152,403,o),
(199,375,c),
(275,439,l),
(245,453,o),
(230,467,o),
(230,488,cs),
(230,508,o),
(245,526,o),
(279,526,cs),
(316,526,o),
(330,508,o),
(330,481,cs),
(330,427,o),
(265,374,o),
(116,285,c),
(106,233,l),
(290,87,ls),
(322,62,o),
(336,43,o),
(336,21,cs),
(336,1,o),
(327,-11,o),
(313,-28,c),
(415,-100,l),
(458,-55,o),
(472,-10,o),
(472,33,cs),
(472,82,o),
(451,117,o),
(395,159,cs),
(239,277,l),
(223,198,l),
(431,330,o),
(466,397,o),
(466,483,cs),
(466,573,o),
(404,632,o),
(288,632,cs)
);
}
);
width = 570;
},
{
anchors = (
{
name = Anchor4;
pos = (204,622);
},
{
name = Anchor8;
pos = (292,0);
}
);
layerId = "C05809E0-FD9D-43C4-90EB-E9E886B1ADAB";
shapes = (
{
closed = 1;
nodes = (
(164,632,o),
(95,573,o),
(95,493,cs),
(95,432,o),
(138,385,o),
(186,352,c),
(285,434,l),
(263,447,o),
(251,460,o),
(251,476,cs),
(251,491,o),
(261,504,o),
(284,504,cs),
(311,504,o),
(320,487,o),
(320,467,cs),
(320,412,o),
(244,362,o),
(102,280,c),
(90,218,l),
(291,64,ls),
(317,44,o),
(326,29,o),
(326,10,cs),
(326,-8,o),
(318,-21,o),
(307,-33,c),
(433,-121,l),
(480,-70,o),
(505,-28,o),
(505,22,cs),
(505,83,o),
(482,116,o),
(403,174,cs),
(263,276,l),
(242,168,l),
(466,309,o),
(498,376,o),
(498,466,cs),
(498,557,o),
(430,632,o),
(288,632,cs)
);
}
);
width = 585;
},
{
anchors = (
{
name = Anchor4;
pos = (193,622);
},
{
name = Anchor8;
pos = (205,0);
}
);
layerId = "5CC745D4-D12D-435B-A472-7D28876E43BC";
shapes = (
{
closed = 1;
nodes = (
(143,632,o),
(99,585,o),
(99,525,cs),
(99,463,o),
(137,430,o),
(192,402,c),
(206,424,l),
(157,448,o),
(126,476,o),
(126,523,cs),
(126,573,o),
(156,606,o),
(204,606,cs),
(251,606,o),
(285,573,o),
(285,512,cs),
(285,419,o),
(206,352,o),
(107,265,c),
(106,257,l),
(234,128,ls),
(273,89,o),
(284,63,o),
(284,32,cs),
(284,-2,o),
(273,-23,o),
(253,-51,c),
(275,-66,l),
(301,-30,o),
(311,0,o),
(311,29,cs),
(311,78,o),
(288,110,o),
(251,147,cs),
(130,269,l),
(132,253,l),
(257,359,o),
(312,426,o),
(312,511,cs),
(312,588,o),
(268,632,o),
(203,632,cs)
);
}
);
width = 411;
},
{
anchors = (
{
name = Anchor4;
pos = (168,622);
},
{
name = Anchor8;
pos = (205,0);
}
);
layerId = "AA2163BC-B14D-4D16-A884-99BB623F1DBF";
shapes = (
{
closed = 1;
nodes = (
(115,632,o),
(77,571,o),
(77,517,cs),
(77,449,o),
(121,411,o),
(168,385,c),
(215,441,l),
(174,457,o),
(149,481,o),
(149,514,cs),
(149,546,o),
(169,565,o),
(202,565,cs),
(235,565,o),
(261,543,o),
(261,499,cs),
(261,430,o),
(207,370,o),
(85,277,c),
(79,254,l),
(221,109,ls),
(253,77,o),
(263,57,o),
(263,28,cs),
(263,0,o),
(252,-16,o),
(236,-35,c),
(297,-78,l),
(325,-43,o),
(340,-7,o),
(340,34,cs),
(340,81,o),
(315,122,o),
(269,168,cs),
(155,281,l),
(150,233,l),
(291,343,o),
(337,416,o),
(337,500,cs),
(337,576,o),
(289,632,o),
(205,632,cs)
);
}
);
width = 411;
},
{
anchors = (
{
name = Anchor4;
pos = (171,622);
},
{
name = Anchor8;
pos = (229,0);
}
);
layerId = "9A082071-1CDF-4F9E-B116-82A287035C9D";
shapes = (
{
closed = 1;
nodes = (
(129,632,o),
(76,572,o),
(76,503,cs),
(76,439,o),
(111,399,o),
(161,369,c),
(229,440,l),
(204,453,o),
(188,470,o),
(188,494,cs),
(188,514,o),
(201,530,o),
(226,530,cs),
(251,530,o),
(266,511,o),
(266,483,cs),
(266,425,o),
(198,360,o),
(85,278,c),
(79,236,l),
(226,94,ls),
(258,63,o),
(268,48,o),
(268,20,cs),
(268,-4,o),
(255,-20,o),
(242,-34,c),
(335,-104,l),
(372,-62,o),
(392,-18,o),
(392,28,cs),
(392,83,o),
(369,128,o),
(308,185,cs),
(190,294,l),
(186,208,l),
(348,318,o),
(388,394,o),
(388,479,cs),
(388,566,o),
(333,632,o),
(229,632,cs)
);
}
);
width = 460;
},
{
anchors = (
{
name = Anchor4;
pos = (173,622);
},
{
name = Anchor8;
pos = (244,0);
}
);
layerId = "6EDA54BC-5413-4E6E-9D6B-A24A39A704A7";
shapes = (
{
closed = 1;
nodes = (
(138,632,o),
(75,572,o),
(75,495,cs),
(75,433,o),
(105,392,o),
(156,359,c),
(237,440,l),
(222,451,o),
(212,463,o),
(212,481,cs),
(212,494,o),
(221,508,o),
(240,508,cs),
(261,508,o),
(268,491,o),
(268,473,cs),
(268,422,o),
(192,353,o),
(85,278,c),
(78,224,l),
(229,84,ls),
(261,55,o),
(270,42,o),
(270,15,cs),
(270,-6,o),
(257,-22,o),
(246,-34,c),
(358,-120,l),
(401,-74,o),
(424,-25,o),
(424,24,cs),
(424,84,o),
(402,132,o),
(332,195,cs),
(211,302,l),
(209,193,l),
(383,302,o),
(420,380,o),
(420,466,cs),
(420,560,o),
(361,632,o),
(244,632,cs)
);
}
);
width = 490;
}
);
subCategory = Other;
unicode = 2407;
}
{
category = Letter;
glyphname = fourdeva;
layers = (
{
anchors = (
{
name = Anchor4;
pos = (263,622);
}
);
layerId = "B871EA9A-50AC-43A6-961C-B7EB8764AD7C";
shapes = (
{
closed = 1;
nodes = (
(269,308,l),
(368,212,o),
(385,178,o),
(385,122,cs),
(385,60,o),
(345,24,o),
(271,24,cs),
(200,24,o),
(157,58,o),
(157,126,cs),
(157,178,o),
(182,220,o),
(277,308,c),
(287,317,l),
(449,466,o),
(476,509,o),
(476,570,cs),
(476,595,o),
(473,612,o),
(467,632,c),
(441,626,l),
(446,610,o),
(449,588,o),
(449,570,cs),
(449,520,o),
(427,478,o),
(268,334,c),
(260,326,l),
(151,224,o),
(130,180,o),
(130,126,cs),
(130,42,o),
(190,-2,o),
(271,-2,cs),
(354,-2,o),
(412,43,o),
(412,122,cs),
(412,180,o),
(396,220,o),
(285,327,c),
(277,335,l),
(134,467,o),
(103,511,o),
(103,570,cs),
(103,588,o),
(106,610,o),
(111,626,c),
(85,632,l),
(79,612,o),
(76,595,o),
(76,570,cs),
(76,516,o),
(94,465,o),
(259,318,c)
);
}
);
width = 551;
},
{
anchors = (
{
name = Anchor4;
pos = (235,622);
}
);
layerId = "6C7CC43D-04A1-4971-B3B5-A41D54964AD2";
shapes = (
{
closed = 1;
nodes = (
(267,274,l),
(338,200,o),
(348,167,o),
(348,136,cs),
(348,97,o),
(319,69,o),
(274,69,cs),
(221,69,o),
(200,102,o),
(200,138,cs),
(200,167,o),
(209,200,o),
(278,270,cs),
(318,313,ls),
(463,459,o),
(490,509,o),
(490,579,cs),
(490,595,o),
(488,612,o),
(483,632,c),
(399,617,l),
(404,601,o),
(406,588,o),
(406,576,cs),
(406,535,o),
(383,484,o),
(263,363,c),
(233,329,l),
(135,228,o),
(120,186,o),
(120,131,cs),
(120,51,o),
(191,-2,o),
(277,-2,cs),
(370,-2,o),
(428,53,o),
(428,127,cs),
(428,176,o),
(422,229,o),
(314,334,c),
(283,367,l),
(164,483,o),
(147,532,o),
(147,579,cs),
(147,590,o),
(149,603,o),
(154,617,c),
(69,632,l),
(65,613,o),
(62,595,o),
(62,579,cs),
(62,516,o),
(81,461,o),
(232,313,c)
);
}
);
width = 551;
},
{
anchors = (
{
name = Anchor4;
pos = (218,622);
}
);
layerId = UUID0;
shapes = (
{
closed = 1;
nodes = (
(257,290,l),
(327,223,o),
(337,191,o),
(337,160,cs),
(337,131,o),
(319,108,o),
(285,108,cs),
(248,108,o),
(230,133,o),
(230,163,cs),
(230,191,o),
(242,222,o),
(308,285,cs),
(349,325,l),
(500,453,o),
(518,514,o),
(518,571,cs),
(518,597,o),
(514,613,o),
(506,632,c),
(374,609,l),
(378,595,o),
(380,583,o),
(380,572,cs),
(380,534,o),
(356,487,o),
(239,375,c),
(214,347,l),
(103,244,o),
(96,193,o),
(96,144,cs),
(96,54,o),
(176,-2,o),
(288,-2,cs),
(403,-2,o),
(473,56,o),
(473,146,cs),
(473,200,o),
(463,254,o),
(353,356,cs),
(327,379,ls),
(210,487,o),
(194,531,o),
(194,574,cs),
(194,585,o),
(196,596,o),
(201,609,c),
(68,632,l),
(61,614,o),
(57,596,o),
(57,575,cs),
(57,521,o),
(62,460,o),
(215,327,cs)
);
}
);
width = 570;
},
{
anchors = (
{
name = Anchor4;
pos = (204,622);
}
);
layerId = "C05809E0-FD9D-43C4-90EB-E9E886B1ADAB";
shapes = (
{
closed = 1;
nodes = (
(242,305,l),
(312,244,o),
(328,210,o),
(328,183,cs),
(328,149,o),
(312,136,o),
(290,136,cs),
(265,136,o),
(252,153,o),
(252,181,cs),
(252,210,o),
(266,241,o),
(331,296,c),
(372,331,l),
(517,438,o),
(539,509,o),
(539,565,cs),
(539,594,o),
(535,613,o),
(526,632,c),
(354,603,l),
(357,591,o),
(358,581,o),
(358,569,cs),
(358,527,o),
(342,490,o),
(240,401,c),
(199,360,l),
(95,272,o),
(80,217,o),
(80,160,cs),
(80,56,o),
(168,-2,o),
(292,-2,cs),
(430,-2,o),
(503,61,o),
(503,162,cs),
(503,226,o),
(478,274,o),
(374,372,c),
(317,421,l),
(236,489,o),
(231,526,o),
(231,570,cs),
(231,581,o),
(233,592,o),
(236,603,c),
(63,632,l),
(56,615,o),
(51,593,o),
(51,572,cs),
(51,509,o),
(56,447,o),
(196,338,c)
);
}
);
width = 585;
},
{
anchors = (
{
name = Anchor4;
pos = (193,622);
}
);
layerId = "5CC745D4-D12D-435B-A472-7D28876E43BC";
shapes = (
{
closed = 1;
nodes = (
(203,308,l),
(282,216,o),
(296,175,o),
(296,122,cs),
(296,59,o),
(264,24,o),
(204,24,cs),
(147,24,o),
(113,59,o),
(113,126,cs),
(113,178,o),
(132,220,o),
(208,308,c),
(220,317,l),
(352,466,o),
(375,507,o),
(375,570,cs),
(375,594,o),
(371,613,o),
(365,632,c),
(338,627,l),
(344,610,o),
(348,588,o),
(348,570,cs),
(348,517,o),
(328,479,o),
(201,335,c),
(192,326,l),
(99,224,o),
(86,177,o),
(86,126,cs),
(86,43,o),
(136,-2,o),
(205,-2,cs),
(276,-2,o),
(323,43,o),
(323,122,cs),
(323,176,o),
(313,221,o),
(219,327,c),
(208,336,l),
(91,468,o),
(67,508,o),
(67,570,cs),
(67,588,o),
(72,610,o),
(77,627,c),
(50,632,l),
(45,611,o),
(40,595,o),
(40,570,cs),
(40,511,o),
(56,465,o),
(191,318,c)
);
}
);
width = 411;
},
{
anchors = (
{
name = Anchor4;
pos = (168,622);
}
);
layerId = "AA2163BC-B14D-4D16-A884-99BB623F1DBF";
shapes = (
{
closed = 1;
nodes = (
(197,279,l),
(247,214,o),
(263,171,o),
(263,134,cs),
(263,90,o),
(241,66,o),
(204,66,cs),
(162,66,o),
(145,95,o),
(145,137,cs),
(145,168,o),
(156,208,o),
(212,278,c),
(243,311,l),
(365,457,o),
(380,509,o),
(380,578,cs),
(380,595,o),
(378,612,o),
(372,632,c),
(296,618,l),
(300,603,o),
(302,588,o),
(302,576,cs),
(302,527,o),
(288,476,o),
(192,360,c),
(167,330,l),
(87,231,o),
(70,186,o),
(70,131,cs),
(70,50,o),
(122,-2,o),
(205,-2,cs),
(292,-2,o),
(338,52,o),
(338,131,cs),
(338,176,o),
(332,225,o),
(244,331,c),
(218,363,l),
(122,480,o),
(113,523,o),
(113,575,cs),
(113,590,o),
(116,604,o),
(121,618,c),
(44,632,l),
(38,612,o),
(35,595,o),
(35,578,cs),
(35,516,o),
(46,459,o),
(167,313,c)
);
}
);
width = 411;
},
{
anchors = (
{
name = Anchor4;
pos = (171,622);
}
);
layerId = "9A082071-1CDF-4F9E-B116-82A287035C9D";
shapes = (
{
closed = 1;
nodes = (
(201,283,l),
(257,224,o),
(271,191,o),
(271,159,cs),
(271,122,o),
(252,106,o),
(228,106,cs),
(200,106,o),
(185,126,o),
(185,153,cs),
(185,189,o),
(200,218,o),
(254,284,c),
(292,318,l),
(414,442,o),
(429,510,o),
(429,567,cs),
(429,592,o),
(425,613,o),
(419,632,c),
(298,613,l),
(302,600,o),
(305,584,o),
(305,567,cs),
(305,526,o),
(298,477,o),
(210,386,c),
(172,352,l),
(85,263,o),
(64,208,o),
(64,144,cs),
(64,58,o),
(121,-2,o),
(228,-2,cs),
(334,-2,o),
(386,57,o),
(386,145,cs),
(386,211,o),
(370,261,o),
(280,356,c),
(237,397,l),
(169,475,o),
(157,518,o),
(157,567,cs),
(157,585,o),
(160,599,o),
(164,612,c),
(44,632,l),
(38,614,o),
(33,592,o),
(33,567,cs),
(33,513,o),
(40,450,o),
(156,328,c)
);
}
);
width = 460;
},
{
anchors = (
{
name = Anchor4;
pos = (173,622);
}
);
layerId = "6EDA54BC-5413-4E6E-9D6B-A24A39A704A7";
shapes = (
{
closed = 1;
nodes = (
(200,286,l),
(260,231,o),
(274,204,o),
(274,175,cs),
(274,142,o),
(256,131,o),
(240,131,cs),
(221,131,o),
(207,145,o),
(207,174,cs),
(207,206,o),
(224,233,o),
(281,288,c),
(328,321,l),
(452,430,o),
(460,510,o),
(460,560,cs),
(460,590,o),
(455,613,o),
(448,632,c),
(300,610,l),
(303,598,o),
(307,581,o),
(307,562,cs),
(307,525,o),
(304,478,o),
(222,402,c),
(174,368,l),
(82,284,o),
(61,221,o),
(61,159,cs),
(61,63,o),
(121,-2,o),
(243,-2,cs),
(360,-2,o),
(417,60,o),
(417,153,cs),
(417,227,o),
(394,284,o),
(303,371,c),
(249,418,l),
(199,472,o),
(185,515,o),
(185,562,cs),
(185,582,o),
(189,598,o),
(192,609,c),
(44,632,l),
(39,615,o),
(32,590,o),
(32,560,cs),
(32,511,o),
(37,438,o),
(150,331,c)
);
}
);
width = 490;
}
);
subCategory = Other;
unicode = 2410;
}
